<?xml version="1.0" encoding="UTF-8"?>
<svg id="Layer_2" data-name="Layer 2" xmlns="http://www.w3.org/2000/svg" viewBox="0 0 787 698">
  <defs>
    <style>
      .cls-1 {
        fill: none;
        stroke: #fff;
        stroke-linecap: round;
        stroke-linejoin: round;
      }

      .cls-1, .cls-2 {
        stroke-width: 0px;
      }

      .cls-2 {
        fill: #fff;
      }
    </style>
  </defs>
  <g>
    <path class="cls-2" d="m535.03,605.86c6.56-.92,20.83-.81,20.46,1.34q.37-2.14,10.15-3.25c-.07.36.43.62,1.3.83.86.2,2.16.35,3.41.42,2.59.16,5.62-.04,7.7-.34-1.79-.32-3.97-.51-7.25-.8-1.58-.15-3.8-.35-6.2-.53-2.43-.18-5.18-.38-8.32-.61-5.8,1.31-14.61.52-23.32-.3-4.36-.4-8.69-.78-12.62-.89-3.93-.13-7.44.02-10.18.72,7.74,1.2,15.23,3.77,24.86,3.42Z"/>
    <path class="cls-2" d="m586.45,615.14c.46-.48.92-.9,1.33-1.41-3.01,1.49-6.35,2.31-9.69,2.82-3.35.49-6.75.69-10.11.76,2.05-.26,6.53-.47,10.52-1.01,2-.26,3.87-.62,5.3-.88,1.42-.3,2.41-.45,2.64-.28Z"/>
    <path class="cls-2" d="m595.95,555.21c1.62,1.76,2.29-8.42,3.74-8.25-3.16.44-1.02-15.91-1.62-24.67l-2.51-3.46c-1.57,8.53-.31,29.99-.11,48.18l.5-11.8Z"/>
    <path class="cls-2" d="m597.37,538.79l-1.69-5.71c.52,4.79,1.02,15.89,1.69,5.71Z"/>
    <path class="cls-2" d="m589.1,551.27c.12,14.22.85-8.59,1.69,5.72-.52-4.8-.77-10.35-1.69-5.72Z"/>
    <polygon class="cls-2" points="592.61 491.65 594.46 521.87 595.24 509.33 592.61 491.65"/>
    <path class="cls-2" d="m597.76,489.87c.08,3.95-.67,10.19-1.65,4.56,1.67-10.87-1.19-17.52.21-27.62l1.04,9.6c1.99-1.36-2.53-20.03,1.08-19.62-2.83-12.96-2.84,9.95-5.03-6.9,1.02,15.92.52,27.71.19,41.09.65-3.89.47-5.47.95-10.94.32,9.51,1.71,22.31,2.21,33.42,2.19-6.07-.12-14.23,1-23.58Z"/>
    <path class="cls-2" d="m597.15,441.63c-.05-10.27-.34-26.1-3.13-28.78-1.67,10.86.67,12.72,1.92,17.58-.37,3.13-.33,13.4-1.85,9.26.55-1.52,2.14,6.59,3.06,1.94Z"/>
    <path class="cls-2" d="m596.69,401.32l-2.59-7.43.52,4.8-1.72.6c.45.84,3.68,4.37,3.73,14.64,1.2-5.38-.42-7.17.05-12.61Z"/>
    <path class="cls-2" d="m584.69,399.12c1.03-6.98.23-11.03-.64-19.02.5,11.12.79,26.93,1.86,30.23l-.45-.86s1.49,10.44,3.36,17.78c-1.94-11.3.13-31.59-4.13-28.14Z"/>
    <path class="cls-2" d="m584.81,413.35l-1.59-8.08,1.59,8.08Z"/>
    <polygon class="cls-2" points="595.37 369.57 594.95 385.3 595.6 381.44 595.37 369.57"/>
    <path class="cls-2" d="m588.52,388.51c.05-12.61-1.74,6.92-1.97-4.94-.35-3.21.47,17.41,1.64,18.34.37-3.11-1.66-12.04.33-13.4Z"/>
    <path class="cls-2" d="m595.33,359.31l-2.11-12.89,2.11,12.89Z"/>
    <path class="cls-2" d="m595.73,326.96l-1.35-2.52c.22-3.85.07-8.26-1.1-12.78-.29-1.11-.68-2.3-1.16-3.46-.23-.58-.53-1.13-.79-1.69-.29-.55-.62-1.08-.93-1.61-1.33-2.09-3.09-3.85-5.05-5.16-2.6-1.72-5.5-2.62-8.22-3.22-2.58-.58-4.8-.93-6.68-1.48,1.11.79-.24,1.62-.42,2.31-.09.34.09.65.99.89.9.27,2.53.4,5.33.81.92-.34,2.49-.3,3.74-.19,1.25.11,2.22.25,2.09-.35,1.46.66,2.26,1.34,2.75,1.87,1.18,1.43.98,2,2.31,3.91,1.65,1.34,3.07,3.43,4.03,5.86.94,2.4,1.46,4.99,1.78,7.53.32,2.53.44,5.01.59,7.24.15,2.21.37,4.21.72,5.83-.35-3.18-.07-3.95.02-6.3,2.56,13.72-2.86,16.25,1,22.21-1.24-4.86,1.05-13.28.35-19.69Z"/>
    <path class="cls-2" d="m586.97,328.3l-.23,11.06c-1.79-3.37-.39-13.53-2.02-15.22-.99.61-1.22,11.67-2.01,7.64,4.06,1.25.57,15.08,4.93,9.25.84,14.3-2.37,4.47-1.8,19.54l2.24,4.21c-1.46-16.76.35-19.71-1.11-36.48Z"/>
    <path class="cls-2" d="m570.07,303.97l-5.37-1.26,2.93,1.85c-24.61.61-39.14-6.97-54-5.7-18.55,2.77-35.86-.82-54.8-.21-9.22,1.74,8.88.86,9.86,1.85-2.62,3.22-9.02-1.57-13.29,1.09-1.18,2.33,19.43,2.26,27.58,3.56,7.08-.41,6.96-1.13,9.11-2.46,1.81,1.27,9.01,1.57,10.83,2.84,14.74-1.98,22.5,1.35,36.99-.77,4.55,1.7-10.87.47-6.06.67l7.92-.13-.84-.28c5.38-.96,13.04-1.08,20.23-.82,1.8.06,3.57.15,5.26.25,1.69.11,3.35.22,4.76.36,2.84.28,4.96.83,5.78,1.33-.41-.16-.8-.31-1.17-.45-.48-.16-.94-.31-1.34-.45-.84-.29-1.55-.56-1.92-.82-.37-.26-.41-.51.03-.73.44-.21,1.35-.4,2.78-.41.78.41,1.33.84,1.89,1.29.54.45,1.02.94,1.44,1.44.76.02,1.54.11,2.31.32,2.53.68,4.82,2.52,6.49,5.07-.79-1.27-1.57-2.5-2.47-3.62-.89-1.13-1.91-2.13-3.03-2.95-1.14-.81-2.37-1.4-3.58-1.78-1.21-.39-2.35-.6-3.55-.67-2.32-.12-4.11.33-4.77,1.57Z"/>
    <path class="cls-2" d="m579.68,309.38c.74.75,1.16,1.37,1.47,1.82.3.46.53.72.71.87.38.29.69.05,1-.21.31-.24.64-.51,1.12.02.24.29.47.66.78,1.61.28.96.57,2.3.7,4.27-.18-1.23-.4-2.44-.7-3.53-.13-.55-.34-1.12-.47-1.55-.17-.42-.32-.85-.52-1.25-.75-1.64-1.96-3.07-3.49-4.01-.32-.19-.64-.36-.97-.51.15.5.26,1,.32,1.49.04.33.05.67.05.98Z"/>
    <path class="cls-2" d="m506.49,303.31l-8.17-1.3c4.47,2.8,17.25-1.16,8.17,1.3Z"/>
    <polygon class="cls-2" points="476.39 303.68 480.68 301.01 473.01 302.58 476.39 303.68"/>
    <path class="cls-2" d="m448.9,300.84c-6.1,1.4,1.23,2.43,8.31,2.02-6.39-.03-9.74-1.13-8.31-2.02Z"/>
    <path class="cls-2" d="m403.61,296.32c13.82-.17-12.26-.51-2.36-2.98-1.79,1.13-8.77,2.7,2.36,2.98Z"/>
    <path class="cls-2" d="m358.79,290.64c5-.56,7.04-.12,7.72.51-3.63,0-6.53-.12-7.72-.51Z"/>
    <path class="cls-2" d="m531.42,296.73c1.58-.03,3.29-.05,4.85.01-1.66,0-3.21,0-4.85-.01Z"/>
    <path class="cls-2" d="m528.25,296.72c1.05,0,2.12,0,3.17,0-1.19.02-2.25.01-3.17,0Z"/>
    <path class="cls-2" d="m425.5,292.3s.04,0,.04,0c.37.08.71.13,1.08.24l-1.13-.23Z"/>
    <path class="cls-2" d="m600,579.37c.2,2.68.29,4.76.31,6.42-.11-2.11-.22-4.25-.32-6.35,0-.04.01-.04.02-.07Z"/>
    <path class="cls-2" d="m596.54,586.9c-1.94-11.31,3.66-12.22,2.02-30.59.53,7.41.99,15.18,1.42,23.14-2.37,10.59-1.58-8.12-3.44,7.45Z"/>
    <path class="cls-2" d="m589.87,433.54c-.04-.22-.05-.41-.09-.64-.12-1.11-.02-.54.09.64Z"/>
    <polygon class="cls-2" points="153.62 540.25 152.91 540.09 154.66 530.04 153.62 540.25"/>
    <path class="cls-2" d="m152.2,541.54c-.46,2.86-.95,5.65-1.38,8.58-.43,2.92-.77,5.91-.86,9.01-.23-4.57.11-9.02.45-13.26l1-12.73,2.01-25.46,4.01-50.93.72,3.38c1.42-1.3-7.36,84.31-5.95,81.41Z"/>
    <path class="cls-2" d="m152.93,546.54c1.06,5.09.53,9.15.45,13.62-.03,2.23.04,4.59.68,7.09.64,2.47,1.92,5.16,4.26,7.3-1.55-1.42-2.84-3.01-3.81-4.69-1.01-1.67-1.78-3.4-2.32-5.17-1.12-3.54-1.42-7.2-.91-11.22.48-2.36,1.07-4.68,1.65-6.94Z"/>
    <path class="cls-1" d="m165,574.45c1.58,1.45,4.02,2.3,6.37,2.71,2.34.45,4.6.58,6.02,1.03-1.06,1-3.59.77-6.13-.1-1.27-.43-2.53-1.04-3.6-1.7-1.08-.66-1.96-1.36-2.67-1.93Z"/>
    <path class="cls-2" d="m178.3,569.73c.73.07,1.48.17,2.25.3-.95.02-1.77.05-2.37.1l.12-.4Z"/>
    <path class="cls-2" d="m178.19,570.13l-.28,1c-1.44-.64-.97-.89.28-1Z"/>
    <path class="cls-2" d="m180.56,570.03c2.18-.05,4.94-.06,6.34-.31l-2.3-.44c3.21.13,8.92,0,10.34.76-6.23-.95-6.42-.25-6.78,1.15l10.13,1.46c-2.32,3.16-8.81-1.28-17.72-2.62Z"/>
    <path class="cls-1" d="m212.69,573.17l-10.69.69c-2.65-2.22,6.79-1.15,10.69-.69Z"/>
    <path class="cls-2" d="m227.82,577.23c-2.5.27-12.65-1.13-6.59.49-1.71.18-3.67-.13-5.76-.39,6.93.36.74-2.71,12.35-.1Z"/>
    <path class="cls-2" d="m215.46,577.33c-.83-.04-1.74-.11-2.96-.26,1,.03,2,.14,2.96.26Z"/>
    <path class="cls-1" d="m157.83,523.52c-.37,1.25-.61,1.19-.8.61l.8-.61Z"/>
    <path class="cls-2" d="m248.48,581.72l3.92.47c-1.12-.13-2.17-.2-3.17-.26l-.75-.2Z"/>
    <path class="cls-2" d="m162.85,338.91c-1.73,13.7-3.46,26.69-3.82,46.65,2.49-.25.02,8.04,2.51,9.41,1.37-20.6-4.89,77.63-2.45,61.3l-.72-5.01,2.14,5.32c-1.46,9.8-4.62,23.13-3.71,29.95-.96,1.77,6.83-84.06,5.83-80.87,3.59-7.36-6.67,115.21-5.6,118.48l-1.67,1.24c.2,7.69.65,14.02,1.07,20.05.4,6.02.76,11.65,2.08,17.23-.47.92-.96,1.91-1.35,2.91-.35-2.14-.53-3.92-.68-5.54-.17-1.64-.32-3.08-.47-4.52-.31-2.94-.61-5.97-.6-10.81-.58,8.32-.91,13.14-.58,17.5.17,2.17.46,4.22,1.17,6.41.72,2.16,1.87,4.51,4.08,6.7.67-.99-.61-3.05-.72-3.68-.09-.3.04-.17.73.68.4.38.88,1.01,1.72,1.67.79.71,1.89,1.49,3.45,2.2.73.71.74,1.11.46,1.4-.28.3-.84.46-1.15.71-.3.24-.35.63.54,1.28.88.65,2.75,1.61,6.28,2.33,4.21,1.13,7.27,1.31,9.62,1.38,2.36.04,4.06-.15,5.69-.37,3.27-.45,6.27-1.04,13.77-.21l-9.97-2.17c5.53.57,15.88,1.34,21.04,3.27-6.24-.89-22.31-1.56-22.16.94,3.21.12,8.29.86,13.26,1.63,4.97.76,9.84,1.53,12.61,1.81l-3.58,1.3c5.87,2.32,9.65.33,17.14,2.7,7.34-.14-4.1-2.96.02-3.19,1.43.75,15.35,3.27,20.36,2.71-3.02-4-16.79-.81-25.33-5.36l13.21,2.17c4.38-1.29-.94-1.89-6.76-2.45-5.82-.58-12.16-1.16-9.83-2.32,10.38-2.46,20.35,5.93,30.15,2.32-6.05-1.59-25.67-3.91-23-4.92,6.77,2.14,12.03.17,21.64.81l11.38,2.94c5.01-.59,1.07-1.04-2.68-2.19,16.77,3.97,45.67,4.51,69.47,9.34,14.29.81,1.94-1.4,8.53-2.07,3.69,1.44,8.78,2.01,13.93,2.31,5.15.28,10.37.28,14.3.64,2.33.36,6.75-1.4,4.58-2.47l-19.97-.39c1.06-1.06-1.67-3.2-8.79-3.61,2.26,2.32-4.67,1.03-12.4-.26-7.73-1.32-16.25-2.68-17.2-.38l.5-2.12c-8.5-.32-17-.73-25.5-1.11l.72.37c.09-.36-5.31-.51-12.46-.95-7.15-.44-16.07-1.06-23.02-2.32,4.1-.22,27.44,3.12,13.9-.73,10.5-.1,28.88,3.82,47.94,4.76l-3.56-1.81c20.11-.05,46.22,5.04,68.34,6.44l-6.73,1.42c7.7,1.44,17.58,3.85,25.03,2.76-9.46-.67-4.51-1.4-2.74-2.12,12.84-.05,31.46,2.61,48.96,3.03,0,0-.88.37-.16.71l18.36.02c8.62.89,11.51,2.27,16.76,3.9,3.21-.08,11.11.43,8.17-.92-1.7-.21-3.39-.42-4.52-.38,9.37-1.62,6.43,1.04,18.08.38-9.04,1.32,2.64,2.77,1.47,4.56,13.59-.06,1.44-3.24,3.18-4,8.18.99,12.78,1.91,17.4,2.75,4.62.81,9.25,1.53,17.51,2.12,1.01-1.1-11.68-1.36-13.01-2.72,4.68.54,10.21.7,11.08.31l-10.08-1.41c8.54,1.1,16.94,1.99,25.6,2.5,4.33.26,8.72.46,13.22.58,4.72.14,8.67.2,12.1-.34l-1.14-.51c2.89-.13,5.34-.64,6.35-1.13-.02.2-.03.42-.1.63l-.24.65c-.14.46-.47.87-.74,1.33.4-.19.85-.32,1.17-.46.17-.07.39-.11.52-.17l.22-.08c.05-.02.09-.02.14-.03.17-.05.34-.1.54-.13.18-.06.36-.11.52-.19.63-.33,1.1-.97.41-1.64-.1.13-.22.24-.34.35.03-.28.01-.55-.03-.81-.01-.06-.02-.12-.04-.19-.02-.06-.03-.1-.03-.27,0-.28-.01-.6-.03-.98l.38,1.06c.06.18.13.22.2.32.08.09.13.18.2.28.26.39.46.86.56,1.37.28-.24.47-.6.55-.99.04-.22.05-.35.06-.66.02-.36.03-.76,0-1.24-.07-1.85-.59-4.58-1.15-8.14-1.1-6.84-2.29-14.48-2.3-22.77,1.41-1.82,1.83,5.33,2.37,13.19.27,3.93.57,8.04,1.04,11.29.49,3.22,1.01,4.91,1.91,5.38.21-1.01.37-2.36.46-3.96.09-1.61.15-3.47.16-5.18.03-3.45-.14-6.63-.68-8.28-1,.69-.92,4.64-.85,8.61-2.29-14.48.33-36.29-3.15-45.39l-.95,10.94c-.67-12.7,3.07-20.96.83-25.17l3.93,9.93c-2.11-12.87-2.13-29.45-3.8-41.5-2.16-.26.47,17.43.02,16.59l-1.69-5.72c.8-18.85,1.2-5.4,1.92-28.21l-1.45-.17c2.02-7.66-2.68-27.94,1.35-20.36l-.75,6.21,1.72-.57-1.79-26.29c1.35,2.54.68-10.17,2.47-6.81l-1.77-9.67c2.36-4.47,3.36,17.77,5.25,18.76,1.12-.37.88-4.94.67-7.17,2.09,11.65-2.06,17.51-1.84,29.14l1.69,5.75-2.16-.27c.52,4.8,2.04,8.92,2.93,10.6-2.67,11.55,1.17,23.82.91,41.18-1.56-14.38-1.85,9.26-2.47,6.82.15,7.91,4.4,27.37,1.93,34.18-.92,4.64-1.76-9.66-1.99,1.36.42,7.16,1.67,12.05,2.59,7.4.25,3.98.44,8.15.58,12.44.06,2.14.12,4.32.19,6.51.05,2.19.12,4.45.1,6.46-.01,2.03-.17,3.92-.5,5.51-.31,1.39-.82,2.77-1.69,3.91-.82,1.16-1.9,2.14-3.13,2.83-1.14.68-2.7,1.29-4.4,1.7.95-.74,1.81-1.5,2.44-2.3-3.48.88-8.02,1.45-12.33,1.97-1.1.14-2.16.27-3.18.4-1.02.14-2.12.27-3.1.42-1.98.3-3.74.64-5.19.96-1.48-.65-2.35-.26-.62-1.04-6.89-1.49-11.37-.95-16.98-.24-5.61.69-12.35,1.55-23.76.72,1.19,2.09,11.43,2.78,18.71,2.17l-2,2.2c9.88.56,20.39.87,30.42,1.05,5.01.11,9.91-.03,14.34-1.02,2.21-.49,4.28-1.19,6.09-2.13,1.77-.93,3.3-2.09,4.44-3.46-1.15,1.93-2.86,3.6-4.95,4.99,3.51-.48,5.72-1.99,6.96-3.32.58-.73,1.06-1.35,1.3-2.02.28-.65.49-1.24.6-1.85.25-1.22.37-2.37.76-3.91.37-1.54.99-3.58,1.92-6.83-.42-4.83-.73-3.06-1.01-1.04-.33,2.03-.77,4.23-1.14.72.33-3.32,1.29-2.95,2.23-3.09.93-.16,1.78-.89,1.72-6.59.13,2.69.28,5.34.38,8.12.08,2.79.07,5.71-.54,8.79-.32,1.57-.8,3.12-1.5,4.59-.34.73-.74,1.45-1.21,2.11l-.69,1.01c-.25.32-.53.62-.79.93-1.05,1.25-2.35,2.28-3.71,3.22-.7.43-1.41.86-2.15,1.23-.76.34-1.47.72-2.22.96-2.97,1.12-6.02,1.7-9.03,2.02-3.01.32-6,.36-8.94.3-5.75-.2-11.53-.41-17.32-.62-23.14-.89-46.52-2.06-68.91-3.24-.88.37,1.48.67,3.8.97-7.82,1.11-42.77-2.34-76.24-5.86-33.47-3.48-65.48-6.94-67.76-4.15-2.15-1.08,5.16-1.38-4.32-2.16-.9.35-3.38.69-1.23,1.76-23.71-5.46-56.08-5.22-84.7-10.58.53,1.08-5.9.9-6.09,1.6-4.82-1.73-11.52-2.46-18.16-3.05-6.64-.61-13.21-1.11-17.76-2.32l2.86,1.52c-9.72-1.14-19.43-2.37-29.14-3.57-.91.32,3.04.83,5.35,1.27-6.43-.25-7.68-1.72-8.18-2.8-4.37.28-8.95.7-14.19.11-2.66-1.04-5.47-2.34-8.13-4.25-2.67-1.88-5.06-4.42-6.8-7.25-1.75-2.84-2.86-5.91-3.55-8.92-.68-3.01-.97-5.98-1.07-8.88-.1-2.9-.01-5.74.14-8.53.17-2.7.33-5.43.5-8.17.32-5.42.59-10.92.85-16.47,1.06-22.18,1.98-45.09,5.12-66.89-1.44-6.75-1.81-12.46-1.12-23.57l-1.05,5.4c-.74-11.42,1.06-.57,1.04-10.23-.72-6.61-2.84-2.23-2.46,6.69-1.14,5.47-1.54,2-1.7-1.99,3.12-35.16,7.18-67.81,13.19-96Z"/>
    <path class="cls-2" d="m235.68,287.19c3.84.89-15.15,1-5.84,2.91,29.58,3.56,77.52-.12,112.54,2.54,9.34,1.41,11.83,1.42,20.24,2.14.16-.33.17-.75-.24-1.12,9.53.02,24.93-.74,34.46.13,2.7-.45,4.68-2.04-.51-1.6,14.46-1.54,25.01,2.62,33.15,1.29-7.04-.95,6.98-1.57-1.43-2.29,15.17-.39,13.87,5.15,25.87,5.67.71-.44,1.44-.89-.98-.99,13.11,2.23,40.16-1.84,41.64,2.03l5.26-1.68c5.77,1.2,4.35,2.09,13.94,2.5,6.24-.69-.26-1.44,2.02-2.05,2.65,1.54,19.4.64,27.05,2.75.47,2.44-13.62-3.12-21.16-.83-.24.49.86.62,2.41.66-39.72-.13-70.06-6.63-102.7-4.42-7.2-1.64-12.7.03-15.88,1.76,5.9.71,22.74,2.15,23.09-1.27l10.24,2.1c3.88-.21,3.83,3.24,5.51,3.79-7.2-.31-15.32,3.14-5.59,4.27-18.94.61,6.02-7.35-10.75-6.28l-2.42,2.5c3.16-1.36-11.38-2.34-16.8-1.44l2.26.47c-44.67-.65-104.26,1.15-153.65,2.54-12.2-6-36.21,2.58-47.68-2.27-5.43.89,7.76,2.09-2.66,2.96-5.22.43-5.7-1.17-5.47-1.63-1.57.18-3.16.36-4.77.54-3.88-5.92,5.21-11.34,38.85-15.67Z"/>
  </g>
  <g>
    <path class="cls-2" d="m325.33,472.64c-1.19-1.96-1.47-6.17.68-5.97q-2.15-.2-3.53-3.14c1.43.15,1.2-2.44,1.19-4.07-1.12,1.28-1.42,3.11-1.97,6.8,2.9,3.53-2.11,10.33,1.2,13.62.83-2.27,3.11-4.4,2.42-7.24Z"/>
    <path class="cls-2" d="m335.64,458.22l-.82-.55.97,5.82c-.62-1.2-1.17-5.16-.14-5.28Z"/>
    <path class="cls-2" d="m338.47,439.56c.42.76,1.23.64,2.11.66.85-.03,1.73.04,2.19.65-.54-.63-.65-1.15-.46-1.61.23-.41.7-.84,1.38-1.05.33-.12.69-.23,1.04-.34.36-.1.76-.12,1.12-.19.72-.16,1.44-.16,1.96-.4.07-.89.21-1.72.39-2.54-.74-.41-1.71-.45-2.86-.37-.55.11-1.15.26-1.76.44-.6.22-1.2.55-1.83.86-1.2.72-2.39,1.67-3.37,2.84-.98,1.16-1.83,2.45-2.53,3.74.81-.99,1.64-1.92,2.61-2.68Z"/>
    <path class="cls-2" d="m343.22,437.79c.19-.72.44-1.45.74-2.17-.3.23-.67.57-1.04.86-.37.3-.72.6-.9.89-.38.57-.27.76,1.2.41Z"/>
    <path class="cls-2" d="m334.7,433.66c-1.1,1.03-1.35,1.52-1.32,1.6.05.09.45-.15.85-.37.42-.21.87-.37.96-.21.11.17-.16.63-.94,1.84.42-.9,1.05-1.75,1.31-2.31.26-.56.15-.87-.88-.55Z"/>
    <path class="cls-2" d="m356.88,433.14l-1.17-.11-1.28-.07c-.86-.06-1.71-.04-2.55,0-.84,0-1.67.15-2.48.23-.81.15-1.61.32-2.39.54.71.05,1.41.19,2.09.29.68.14,1.35.34,1.99.52.88-.31,1.82-.62,2.81-.83l1.52-.31,1.45-.26Z"/>
    <path class="cls-2" d="m356.2,438.3c-1.05-.26-2.58-1.46-.87-1.98,1.32,1.26,2.53,1.37,3.79,1.47,1.25.1,2.48.18,3.66,1.36l-2.88.03c-.2,2.05,6.12-.41,5.09,3.01,2.21-.74,1.65-1.69,1.25-2.47-.4-.82-.64-1.43,1.88-1.77-2.25-.17-4.16-.77-5.93-1.47-1.78-.71-3.44-1.55-5.33-2.31.97.97,1.44.96,2.83,1.95-1.34-.32-3.01-.43-4.72-.45-1.74.02-3.43.12-4.97.28.49.6.94.91,1.41,1.07.46.2.94.24,1.46.25.51.02,1.06.06,1.62.18.56.12,1.17.4,1.72.85Z"/>
    <path class="cls-2" d="m369.71,442.26c.77.18,1.69.33,2.61.41.93.02,1.9.07,2.74-.12,1.72-.29,3.05-1.08,3.34-2.46-.81-.43-1.43-.61-1.94-.62-.5-.03-.9.12-1.24.36-.69.5-1.2,1.33-1.98,1.85-.23-.12-.59-.24-.99-.36-.39-.15-.81-.31-1.15-.5-.69-.37-1.04-.82-.35-1.45.37.67-2.24,1.63-1.05,2.89Z"/>
    <path class="cls-2" d="m382.01,442.7l1.88-2.65-1.33.57-.35-1.7c-.2.44-.85,3.73-3.96,3.78,1.71,1.2,2.13-.43,3.76,0Z"/>
    <path class="cls-2" d="m381.38,430.75c2.07.96,3.15.1,5.59-.82-.85.13-1.79.28-2.74.43-.89.14-1.8.3-2.58.46-1.58.32-2.77.66-3.16,1.19l.19-.45s-.66.38-1.48.95c-.86.6-1.87,1.33-2.8,2.18,1.38-.83,3.29-.68,4.94-.98,1.6-.26,2.75-.87,2.03-2.96Z"/>
    <path class="cls-2" d="m377.65,430.91l1.91-1.58-1.91,1.58Z"/>
    <path class="cls-2" d="m390.9,441.24c-1.44-.2-2.93-.33-4.44-.42l1.16.61c1.1-.08,2.21-.17,3.28-.19Z"/>
    <path class="cls-2" d="m384.84,434.46c3.78-.07-2.26-1.67,1.28-2.01.48-.19-.86-.03-2.25.33-1.4.36-2.83.9-2.9,1.48.89.35,3.25-1.77,3.87.2Z"/>
    <path class="cls-2" d="m393.55,441.41c.54-.26,1.12-.53,1.74-.79.61-.21,1.25-.42,1.93-.62-.68.2-1.32.41-1.93.62-.61.26-1.19.52-1.74.79Z"/>
    <path class="cls-2" d="m400.27,444.55c.43-.28.84-.48,1.28-.7.23.4.52.75.81,1.1.86,1.1,1.81,2.27,2.28,3.6.47,1.31.45,2.73-.56,3.82.73-.42,1.58-.34,2.26-.45.67-.11,1.2-.46,1.05-2.01-.93-.17-1.23-1.12-2.12-.54-.11-1.21.99-1.54,1.03-2.56-1.18-.68-2.02-1.86-3.07-2.78-.46-.37-.94-.7-1.4-.95-.47-.24-.99-.3-1.46-.25.83.18.86.49,1.18,1.01-.49-.06-.91-.1-1.23-.21-.32-.11-.56-.27-.75-.47-.41-.34-.64-.83-.86-1.27-.43-.85-.94-1.42-2.21.2.37-.22.73-.16,1.07,0,.34.16.66.44.94.81.27.34.55.68.82,1.02.26.33.55.57.94.64Z"/>
    <path class="cls-2" d="m405.18,437.1c-.54-.42-1.07-.89-1.65-1.26l-1.81-1.07c.48-.26,1.03-.26,1.61-.12.29.07.58.17.87.29.29.12.55.3.82.46.54.33,1.05.65,1.52.85.45.22.86.33,1.26.14.11-.24-.01-.62-.24-1.06-.23-.43-.61-.86-.94-1.27-.66-.81-1.19-1.46-.23-1.3-1.3,1.5-2.71.92-3.85.55-.57-.19-1.09-.23-1.4,0-.32.25-.43.85-.36,2.04-2.59-.56-2.84-1.06-3.14-1.82-.15-.36-.32-.73-.84-1.06-.52-.29-1.41-.54-2.95-.57-.6.7-1.24,1.42-1.67,2.13,1.49-.31,2.82-.27,3.89-.16,1.09.12,1.97.43,2.84.69,1.7.72,3.37,1.26,6.27,2.55Z"/>
    <path class="cls-2" d="m412.8,450.4c-.3.74-.62,1.45-.98,2.12.58-.42,1.16-.87,1.71-1.34.24,1.2.25,2.1.16,3.02-.1.9-.32,1.75-.62,2.54-.6,1.58-1.5,2.93-2.38,4.17-1.76,2.46-3.43,4.57-2.89,6.71,2.54,5.36-1.26,10.32-.88,15.78,1.63,2.66.96-2.55,1.97-2.83,3.19.77-1.68,2.59.93,3.83,2.31.35,2.5-5.59,3.9-7.93-.32-2.04-1.04-2.01-2.35-2.64,1.29-.51,1.68-2.59,2.97-3.1-1.81-4.27,1.62-6.45-.33-10.68.87-.68.96.14.86.93-.1.77-.39,1.54-.26.84l-.04-2.33-.28.25c-.9-1.61-.98-3.93-.89-6.28.05-1.32.11-2.59.15-3.7.04-1.19.07-2.25.13-3.01.06,1.13-.23,2.15-.65,2.59-.42.44-.95.31-1.49-.68.46-.81.93-1.69,1.3-2.59-1.52-1.26-3.12-2.24-4.79-2.9,1.81.87,2.26,3.01,2.47,4.57.22,1.59.39,2.71,2.28,2.66Z"/>
    <path class="cls-2" d="m414.35,443.33c-.24-.87-.53-1.46-.77-1.87-.24-.41-.45-.63-.65-.72-.38-.18-.65.12-.93.39-.28.28-.58.53-1,.33-.42-.21-.94-.88-1.95-2.34,1.74,1.76,3.12,3.87,4.1,6.17.44-.63.83-1.28,1.2-1.96Z"/>
    <path class="cls-2" d="m412.15,469.71l-1.4,2.35c2.86-1.27-.95-4.97,1.4-2.35Z"/>
    <polygon class="cls-2" points="412.15 478.38 409.54 477.13 411.02 479.34 412.15 478.38"/>
    <path class="cls-2" d="m408.98,486.28c1.33,1.76,2.44-.34,2.12-2.38-.11,1.84-1.25,2.8-2.12,2.38Z"/>
    <path class="cls-2" d="m403.91,499.3c0-3.98-.66,3.53-3.01.66,1.11.52,2.6,2.54,3.01-.66Z"/>
    <path class="cls-2" d="m397.69,512.19c-.5-1.44-.03-2.03.6-2.22-.05,1.04-.2,1.88-.6,2.22Z"/>
    <path class="cls-2" d="m405.87,462.49c-.01-.46-.01-.95.07-1.4-.02.48-.05.93-.07,1.4Z"/>
    <path class="cls-2" d="m405.82,463.41c.02-.3.03-.61.05-.91,0,.34-.01.65-.05.91Z"/>
    <path class="cls-2" d="m400.16,492.98s0-.01,0-.01c.09-.11.14-.2.25-.31l-.25.32Z"/>
    <path class="cls-2" d="m338.42,447.42c-.08.7-.12,1.16-.26,1.6.09-.57.14-1.05.24-1.59,0,0,.01,0,.02-.01Z"/>
    <path class="cls-2" d="m334.4,448.46c-.21-.9,0-1.65.44-2.13.43-.51,1.07-.84,1.75-1.16.66-.33,1.4-.63,1.99-1.15.64-.51,1.13-1.23,1.64-2.41-.92,1.83-1.48,3.83-1.82,5.82-1.62.89-1.81.36-2-.15-.16-.45-.37-.87-2.01,1.18Z"/>
    <path class="cls-2" d="m372.86,435.53c.06-.03.1-.03.16-.07.28-.08.13,0-.16.07Z"/>
    <polygon class="cls-2" points="335.38 531.31 334.66 531.27 335.62 528.36 335.38 531.31"/>
    <path class="cls-2" d="m334.07,531.69l-1.46,4.94.07-29.44.98.97c1.31-.39-.77,24.37.41,23.52Z"/>
    <path class="cls-2" d="m335.18,533.13c2.93,2.91-1.16,4.73.88,8.27-1.37-2.36-2.9-4.05-2.1-6.29l1.22-1.98Z"/>
    <path class="cls-1" d="m340.76,543.03c-.63,1.56.61,3.46.15,4.34-2.28-.58-.48-3-.15-4.34Z"/>
    <path class="cls-2" d="m349.41,547.41c.04.25.03.49,0,.73-.14-.29-.28-.55-.42-.75l.41.03Z"/>
    <path class="cls-2" d="m349,547.38l-1.03-.06c.41-.51.73-.36,1.03.06Z"/>
    <path class="cls-2" d="m349.42,548.14c.32.66.65,1.43,1.06,1.84l.16-.67c.26.93,1.07,2.57.48,3,.2-1.82-.51-1.86-1.95-1.94l-.24,2.95c-3.42-.61.23-2.55.49-5.18Z"/>
    <path class="cls-1" d="m350.09,557.49l-1.92-3.07c1.9-.81,1.95,1.94,1.92,3.07Z"/>
    <path class="cls-2" d="m347.79,561.93c-.55-.72-.31-3.67-1.24-1.9-.38-.49-.29-1.06-.27-1.67.44,2.01,2.78.17,1.51,3.56Z"/>
    <path class="cls-2" d="m346.28,558.36c-.05-.24-.09-.5-.08-.86.08.29.09.58.08.86Z"/>
    <path class="cls-1" d="m338.27,526.45c-.27.36-.52.35-.75.18l.75-.18Z"/>
    <path class="cls-2" d="m326.07,556.8l-.08-1.15c.02.33.1.63.18.92l-.09.23Z"/>
    <path class="cls-2" d="m328.91,473.17c-.66,3.96-1.37,7.72-.17,13.48,2.46-.09.65,2.32,3.23,2.7-.24-5.95,1.17,22.42,2.33,17.7l-1.11-1.44,2.54,1.52c-.7,2.84-2.81,6.7-1.36,8.66-.81.52.26-24.29-.48-23.37,3-2.15,2.32,33.28,3.64,34.21l-1.57.37c1.59,4.43,3.8,7.29,4.83,11.01l-1.9.81c.66-2.7-.61-3.46-1.38-6.25.27,4.81-.91,5.66-.59,9.33,2.45-.09,1.25-3.12,2.54,1.51-1.05,1.31-3.69-1.8-3.25,2.33-.74,4.98,2.89,4.04,3.04,8.39l.96-2.91c.09,1.6.57,4.6-.78,6.12.2-1.81-1.09-6.46-3.54-6.36.52,1.85-.48,5.91-.39,7.51l-1.7-1.01c-1.48,1.56.33,2.56-.39,4.35l5.4-.22c.06-.21.15-.43.28-.67-1.16-1.99-2.34,1.5-3.15.41.54-.49,1.09-4.62-.16-5.92-3.09,1.15.44,3.93-.89,6.57l2.47-.1c.22-.34.52-.66.95-.96l-.18.97-4,.16.21-2.92c-2.21-1.22-1.62,1.09-1.35,3.03l6.29-.25c-.04-1.38.05-2.55,1.23-2.01.84.68,1.1,1.37,1.06,2.05l-10.85.44c-.11-2.31,3.11-4.95-.68-6.7-.62,1.6-.39,6.06-1.16,6.88l14.54-.59c.14-.15.3-.17.48-.07l-.05.07-15.41.62c1.04-2.11-1.57-3.32-2.28-6.06l1.38-3.53c-1.24-1.34-1.17-.18-1.81,1,1.64-5.15-1.38-13.4.82-20.6-.72-4.15-1.6-.45-2.96-2.29,2.07-2.33.14-6.02.07-8.34.14-.69-2.04-1.88-2.9-1.19.5,1.94,1.04,3.88,1.56,5.81-1.16-.24-3.01.7-2.67,2.8,4.13-1.66-2.17,8.42,2.63,8.58l-2.16.04c.64,2.48,1.28,4.95,1.95,7.41l.27-.24c-.36.01.12,1.57.62,3.64.52,2.08,1.05,4.67.75,6.77-.8-1.13-.53-8.12-2.56-3.85-1.51-2.98.05-8.63-1.2-14.19l-1.39,1.19c-2.43-5.82-.08-13.8-.72-20.33l2.04,1.89c.69-2.33,2.23-5.31.51-7.44.15,2.79-1.01,1.38-1.87.89-1.17-3.77,0-9.34-.77-14.51,0,0,.43.25.72.03-.39-1.81-.81-3.62-1.18-5.43.36-2.56,1.54-3.43,2.88-4.98-.26-.95-.16-3.28-1.35-2.42-.12.5-.24,1-.14,1.34-2.11-2.79.68-1.9-.56-5.36,1.77,2.7,2.63-.75,4.49-.38-.67-4.01-3.3-.47-4.14-1,1.25-4.83,2.85-5.39,3.45-10.24-1.13-.33-.93,3.42-2.25,3.78.37-1.37.33-3.01-.09-3.28l-1.05,2.96c1.6-5.03,2.2-9.87,1.66-15.55l-.61.4.29-3.49,2.05,1.4c-.44-1.84,1.65-3.99.07-5.32l-.24.78c-.14-.92-.26-1.88-.35-2.88.56,1.09,1.16,2.11,1.78,3.09.62-1.65-.02-3.79-.42-6.6-.09-.72-.2-1.39-.21-2.27.02-1.08.11-2.07.27-3.11.31-2.08.98-4.21,2.14-6.15,1.69-.05-.02,3.34-.83,7.33-.11.5-.21.98-.3,1.52l-.12.8c-.02.2-.04.41-.06.61-.05.77-.04,1.49.03,2.14.18,1.26.62,2.21,1.53,2.52.43-.9.95-2.14,1.32-3.35.08-.31.17-.61.24-.9.07-.27.15-.71.2-1.02.1-.67.13-1.22,0-1.68-.52-.02-.94.42-1.27,1.1-.16.34-.32.84-.43,1.2-.11.35-.2.72-.28,1.08-.05-.36-.08-.73-.06-1.11,0-.37.08-.98.16-1.45.17-.97.43-1.97.77-2.95.68-1.97,1.72-3.85,2.83-5.55,2.27-3.42,4.94-5.85,5.91-8.51-1.74.73-3.41,1.68-5.01,2.8.55-.63,1.12-1.2,1.73-1.66.62-.45,1.25-.82,1.86-1.14,1.27-.59,2.46-.97,3.57-1.13,2.16-.48,3.7-.55,4.32-1.94-.56.87-1.08,1.74-1.53,2.6-.44.9-.81,1.82-1.15,2.69,1.98-2.28,5.17-3.77,8.51-4.45,3.35-.71,6.81-.7,9.88-.83.28-1.02-1.98-1.47-4.18-1.36-2.21.02-4.25.67-4.07.42.9-.54,1.85-1.13,2.86-1.59,2.5.42,3.85.88,4.72,1.23.43.17.74.32.99.45.12.07.25.13.34.19l.22.18c.54.47,1.55.96,4.89,2.52l.44-1.37c.44.69,1.22,1.06,2,1.26.83.21,1.66.23,2.36.27.72.05,1.19.06,1.38.3.18.23.03.67-.68,1.48l-1.33-1.29-.33,1.7c2.4.27,4.53.38,6.14.2-.31.61.1.89.53,1.23.42.32.87.66.48,1.5l.99-.72,1.04-.79c.25.61.15,1.11-.18,1.53-.32.42-.89.8-1.43,1.08-1.12.65-2.48,1.01-2.76,1.93-.1,1.12,1.04,1.13,1.59,1.03-.75.37-1.39.37-1.95.14-.58-.26-1.05-.71-1.5-1.24-.47-.55-.89-1.14-1.39-1.65-.52-.53-1.08-.96-1.84-1.19l-1.97,1.06.68-2.05c-1.44,0-3.01,1.04-3.74,1.73-.62-.94-1.42-1.48-2.33-1.81-.44-.17-.96-.25-1.47-.31-.55-.06-.98-.08-1.7-.08-.66,0-1.34.02-2.03.05-.68.05-1.38.11-2.1.17-1.42.14-2.89.26-4.53.34,2.56-.92,1.71-1.34.09-1.58-.8-.15-1.75-.12-2.46-.12-.71,0-1.17-.04-.97-.24-.79.23-1.77.85-2.76,1.64-.46.43-.95.89-1.46,1.35-.49.45-.91,1.03-1.36,1.53-1.76,2.08-2.96,4.2-4.73,4.52-.92.46-.7-.58-.55-1.35.16-.74.16-1.25-1.37.59-.73,1.39-1.01,2.75-.88,3.55.12.8.6,1.04,1.43.46-.54,1.49-.98,3.08-1.41,4.7-.1.41-.19.82-.29,1.23-.09.36-.15.72-.23,1.08-.16.72-.28,1.43-.41,2.15-.24,1.42-.46,2.84-.61,4.21-.08.69-.14,1.36-.2,2.04-.04.64-.09,1.28-.13,1.92l-1.34-1.31c-1.41,3.1.34,6.31,1.81,8.06-.61.4-.2.68-1.02.13-2.6,3.92,2.64,5.33,1.82,11.92,2.02-.3,2.36-3.25,1.48-5.39l2.27.65c.34-5.7.27-12.09-.74-16.85.5.77,1.01,1.52,1.53,2.26,1.67-1.88,1-2.62.38-3.38-.62-.73-1.19-1.53.82-3.12-.17-1.42-.55-1-.96-.46-.41.53-.83,1.18-1.16.04.5-.96,1.45-.64,2.38-.52.92.13,1.79.07,2.19-1.4-.36,2.87-.47,5.89-.52,9.12-.09,3.24-.19,6.53-.29,9.85-.21,6.63-.43,13.33-.37,19.75.42.25.59-.42.76-1.09,1.47,2.25-.02,12.21-.84,21.86-.86,9.64-1,18.91,2.03,19.35-.85.68-1.91-1.36-1.7,1.36.44.23,1.04.9,1.88.22-2.97,7.06,1.05,16.04-.38,24.47.99-.27,1.69,1.51,2.41,1.48-1.17,1.71-.75,3.94-.35,6.04l-9.38.38c-.13-1.66-.25-3.25.35-4.41l-1.18.85.13-8.45c-.42-.26-.46.89-.63,1.56-.52-1.85.8-2.24,1.81-2.41l-2.47-3.8c4.39-10.94-1.94-24.77.93-37.4-1.96-1.94-2.77-3.58-2.95-6.79l-.63,1.56c-1.62-3.29,1.01-.17.24-2.96-1.24-1.9-3.01-.62-1.93,1.95-.71,1.59-1.38.59-1.85-.56.37-10.16,1.87-19.61,5.67-27.78Z"/>
    <path class="cls-2" d="m392.74,547.63c.94-1.1.82,4.37,2.84,1.7,3.92-8.5.82-22.33,3.91-32.4,1.53-2.68,1.57-3.4,2.39-5.82-.33-.05-.75-.05-1.12.06.14-2.75-.43-7.19.54-9.92-.41-.78-1.98-1.36-1.61.14-1.36-4.17,2.92-7.19,1.69-9.54-1.03,2.02-1.48-2.02-2.31.4-.2-4.37,5.32-3.97,5.98-7.42-.44-.21-.87-.42-1.01.28,2.39-3.77-1.35-11.58,2.53-11.98l-1.62-1.52c1.27-1.65,2.14-1.24,2.67-4-.61-1.8-1.44.07-2.03-.59,1.57-.75.88-5.59,3.07-7.77,2.46-.14-3.27,3.9-1.08,6.09.49.07.63-.25.69-.69-.61,11.44-7.48,20.15-5.66,29.56-1.73,2.07-.12,3.66,1.57,4.58.78-1.7,2.43-6.54-.99-6.66l2.23-2.94c-.16-1.12,3.29-1.09,3.86-1.57-.4,2.07,2.96,4.43,4.2,1.63.38,5.46-7.28-1.77-6.41,3.06l2.47.71c-1.32-.92-2.47,3.27-1.65,4.83l.49-.65c-1.19,12.86-.12,30.04.67,44.27-6.15,3.49,2.14,10.44-2.85,13.72.83,1.57,2.19-2.23,2.93.78.37,1.5-1.24,1.64-1.69,1.57.16.45.32.91.49,1.38-5.97,1.09-11.28-1.56-15.2-11.27Z"/>
  </g>
  <g>
    <path class="cls-2" d="m655.97,282.5c0-.08.03-.16.07-.23.05,0-.07-.08-.13-.13l-.22-.17c-.14-.11-.29-.22-.43-.33-.57-.44-1.11-.88-1.61-1.3-1-.83-1.81-1.59-2.38-2.21-.56-.63-.88-1.14-.87-1.49.02-.35.35-.54,1.2-.41-1.71-.27-2.57-.42-3.55-.82-.97-.38-2.21-1.16-4.13-2.12.89-.09.7-.69.07-1.47-.31-.39-.71-.8-1.12-1.2-.2-.2-.41-.39-.61-.58-.12-.11-.24-.23-.35-.34-.24-.24-.47-.47-.69-.69.14.23.28.47.42.71l.11.18c.05.07.07.12.07.13l.05.17c.06.22.14.44.22.66.17.43.38.85.64,1.3.26.45.58.92.94,1.43.34.5.81,1.11,1.16,1.64,1.61.62,2.84,1.57,3.69,2.46.43.45.76.88,1.02,1.27l.18.29.08.14.04.07s-.09,0-.13,0l-1.18-.14c-1.55-.19-2.88-.38-3.74-.3-.88.08-1.35.42-1.57,1.27,1.53.39,3.7,1.14,6.21,1.7,2.44.56,5.25.92,6.53.52Z"/>
    <path class="cls-2" d="m645.37,256.19l-1.7-.54,6.84,6.2,7.19,6.87c-1.75-1.39-4.97-4.38-7.62-7.01-2.65-2.55-4.87-4.95-4.71-5.51Z"/>
    <path class="cls-2" d="m601.62,216.04c2.29-.02-3.94-7.07-2.83-8.01-1.84,2.5-11.33-9.37-17.63-14.46l-4.05-.29c2.42,3.17,7.32,8.02,13.25,13.38,2.98,2.66,6.1,5.59,9.27,8.53,3.16,2.95,6.39,5.89,9.36,8.83-2.41-2.7-4.91-5.31-7.36-7.97Z"/>
    <path class="cls-2" d="m591.76,204.5l-4.98-2.37c3.56,2.64,11.34,9.29,4.98,2.37Z"/>
    <path class="cls-2" d="m594.28,218.42c9.36,9.01-5.01-6.11,4.91,2.44-3.5-2.7-7.28-6.07-4.91-2.44Z"/>
    <path class="cls-2" d="m556.53,178.85c7.42,5.55,14.63,11.37,21.91,17.11l-8.02-8.32c-2.31-1.48-4.58-3.01-6.91-4.46l-6.98-4.34Z"/>
    <path class="cls-2" d="m558.66,173.88c2.8,2.34,6.64,6.68,2.09,4-3.23-3.92-6.46-6.36-9.66-8.68-3.24-2.28-6.43-4.47-9.55-8l7.45,4.88c.3-2.33-15.75-9.94-13.23-12.41-11.08-5.29,5.35,7.95-8.11-.07,3,2.1,5.79,4.1,8.36,6.11,2.56,2.03,4.96,4.01,7.28,5.98,2.32,1.97,4.55,3.92,6.78,5.89,2.19,2.02,4.38,4.04,6.64,6.13-2.27-2.83-3.47-3.67-6.98-7.32,6.8,5.49,16.66,12.12,24.51,18.69-1.34-2.69-3.79-4.88-6.61-7.21-2.84-2.31-6.1-4.71-8.98-7.98Z"/>
    <path class="cls-2" d="m524.05,145.9c-3.7-2.96-8.56-6.52-12.88-9.34-2.17-1.4-4.2-2.62-5.94-3.4-1.75-.77-3.18-1.16-4.09-.97,3.53,3.62,5.92,5.31,8.01,6.25,2.09.95,3.86,1.18,6.01,2.06,1.03,1.03,3.42,2.98,5.06,4.54,1.64,1.56,2.49,2.75.55,2.15-.76-1.32,6.05,2.12,3.28-1.29Z"/>
    <path class="cls-2" d="m494.19,123.7c-2.34-.67-4.68-1.33-7.05-1.94,1.3.71,2.61,1.42,3.89,2.17l-.56,1.72c.88.1,5.4-.58,13.04,5.04-3.27-3.92-5.56-3.6-9.32-6.98Z"/>
    <path class="cls-2" d="m485.52,132.21c-4.55-4.59-8.06-6.04-14.47-9.57,4.25,2.77,9.4,6.12,13.81,8.98,4.37,2.91,8.08,5.24,9.61,5.71l-.9-.11s2.13,1.12,5.08,2.55c2.96,1.41,6.65,3.28,9.89,4.59-2.34-1.19-4.93-2.91-7.51-4.71-2.59-1.78-5.22-3.59-7.5-5.16-4.6-3.09-8.01-4.95-7.99-2.28Z"/>
    <path class="cls-2" d="m496.01,139.85l-6.86-3.11,6.86,3.11Z"/>
    <path class="cls-2" d="m469.54,107.8c3.94,2.81,7.79,5.75,11.64,8.67l-2.53-2.6-4.53-3.08-4.58-3Z"/>
    <path class="cls-2" d="m479.88,123.43c-9.38-6.74,4.15,5.1-4.82-1.02-2.59-1.41,13.25,8.81,14.56,8.47-2.04-2.04-9.89-5.11-9.75-7.45Z"/>
    <path class="cls-2" d="m461.69,102.5c-3.65-1.68-7.37-3.23-11.06-4.81,3.69,1.58,7.42,3.13,11.06,4.81Z"/>
    <path class="cls-2" d="m436.79,85.81c-.91-.02-1.84-.02-2.74-.02-2.51-1.6-5.45-3.11-8.71-4.19-3.24-1.11-6.82-1.77-10.34-1.83-3.52-.07-6.86.43-9.83.97-2.98.54-5.64,1.1-7.94,1.28,1.26.35.39,1.58.49,2.29.05.35.32.56,1.19.49.87-.07,2.33-.46,4.82-1.12.63-.65,1.86-1.22,2.85-1.68.98-.48,1.74-.85,1.33-1.3,2.31-.29,3.28.03,4.03.33.75.34,1.29.66,2.76.9,1.91-.34,4.15-.32,6.43.06,2.29.37,4.61,1.09,6.8,1.94,4.39,1.71,8.27,3.91,11.19,4.9-2.7-1.26-3.19-1.86-5.07-3.04,6.3,2.12,8.99,4.88,11.08,6.89,2.09,2.03,3.51,3.43,6.86,3.32-2.22-.71-4.64-2.6-7.18-4.66-2.52-2.06-5.21-4.26-8.03-5.52Z"/>
    <path class="cls-2" d="m433.37,93.98c2.74,1.74,5.54,3.68,8.32,5.59-1.78-.08-4.43-1.74-6.86-3.17-2.43-1.45-4.66-2.66-5.69-2.29.02.56,1.99,2.05,3.57,3.36,1.58,1.31,2.77,2.38,1.05,1.76,1.53-1.45,4.49.31,6.79,1.61,2.3,1.29,3.95,2.11,2.9-1.18,5.71,3.23,6.24,4.29,6.83,5.42.57,1.15,1.26,2.28,7.09,5.96l4.43.31c-3.38-1.86-5.97-3.46-8.21-4.88-2.25-1.4-4.11-2.68-5.98-3.95-1.86-1.27-3.73-2.55-5.98-3.95-2.25-1.4-4.91-2.98-8.26-4.59Z"/>
    <path class="cls-2" d="m400.21,90.45c-1.61.18-3.26.43-4.92.71,1.06.2,2.11.43,3.15.66-2.47,1.12-4.92,2.19-7.29,3.14-2.37.94-4.67,1.74-6.9,2.44-4.45,1.42-8.66,2.36-12.55,3.36-7.77,2-14.61,3.51-20.42,7.2-3.48,2.59-7.07,4.78-10.74,6.76-1.83.99-3.7,1.91-5.56,2.83-1.85.94-3.72,1.85-5.59,2.74-3.76,1.79-7.56,3.52-11.36,5.37-3.8,1.86-7.53,3.95-11.24,6.25-6.48,5.75,7.52-3.35,8.79-2.94-.49,4-7.98,2.79-10.05,7.06.12,1.27,4.27-.47,9.27-2.85,4.97-2.44,10.96-5.24,14.53-6.49,5.49-3.48,5.06-4.05,6.15-6.17,2.04.29,8.07-2.44,10.13-2.1,11.04-8.06,18.96-8.12,29.93-15.87,4.48-.29-8.73,4.79-4.69,3.05,2.15-1.09,4.28-2.24,6.47-3.28l-.82.07c4.05-2.93,10.38-6.01,16.46-8.55,3.05-1.27,5.98-2.3,8.49-2.98,2.51-.68,4.6-1,6-1.05-2.15.26-4.15.46-4.99.23-.84-.22-.5-.93,2.04-2.08,1.64.19,3.23.47,4.72.85,3.35-1.71,6.9-2.79,10.97-2.92-2.29,0-4.49-.09-6.66-.02-2.17.05-4.33.23-6.29.57-3.92.71-6.92,1.95-7.04,4Z"/>
    <path class="cls-2" d="m412.78,90.78c1.4.03,2.36.1,3.08.16.72.02,1.19.06,1.5-.04.61-.14.55-.52.51-.93-.04-.4-.06-.8.76-.9.82-.09,2.52.09,5.82,1.59-2.39-.87-4.76-1.53-7.06-1.76-1.16-.16-2.29-.15-3.43-.13-1.15.06-2.31.19-3.5.4.83.5,1.61,1.04,2.32,1.61Z"/>
    <path class="cls-2" d="m347.49,114.93l-7.26,2.31c4.95.59,13.52-8.33,7.26-2.31Z"/>
    <polygon class="cls-2" points="323.33 128.3 325.49 124.07 320.07 128.83 323.33 128.3"/>
    <path class="cls-2" d="m299.97,138.37c-2.06,2.03-1.49,2.43.23,1.81,1.75-.57,4.7-2.09,7.41-3.9-5.1,2.9-8.33,3.5-7.64,2.08Z"/>
    <path class="cls-2" d="m262.06,156.58c5.35-3.51,2.89-2.09-.12-.67-3,1.43-6.48,2.97-3.35-.63-.75,1.88-5.28,6.75,3.46,1.3Z"/>
    <path class="cls-2" d="m224.49,175.36c3.49-3.13,5.3-3.86,6.18-3.71-2.77,1.93-5.05,3.39-6.18,3.71Z"/>
    <path class="cls-2" d="m365.03,98.75c1.3-.67,2.71-1.39,4.03-1.96-1.37.67-2.67,1.3-4.03,1.96Z"/>
    <path class="cls-2" d="m362.4,100.04c.87-.42,1.76-.86,2.63-1.28-.97.5-1.86.93-2.63,1.28Z"/>
    <path class="cls-2" d="m277.02,142.29s.03-.02.03-.02c.34-.11.64-.23.99-.32l-1.02.35Z"/>
    <path class="cls-2" d="m620.18,228.93c1.87,1.63,3.28,2.93,4.37,4.02-1.44-1.32-2.9-2.65-4.33-3.96-.03-.03-.02-.04-.03-.06Z"/>
    <path class="cls-2" d="m622.54,236.31c-4.31-3.06-5.63-5.68-7.49-8.94-1.86-3.25-4.24-7.18-10.89-12.49,5.29,4.36,10.61,9.18,16.05,14.12,5.13,8.62-6.34-4.24,2.32,7.31Z"/>
    <path class="cls-2" d="m513.72,147.04c-.19-.09-.33-.19-.52-.28-.88-.53-.4-.29.52.28Z"/>
    <polygon class="cls-2" points="292.71 296.26 292.64 296.98 283.27 296.33 292.71 296.26"/>
    <path class="cls-2" d="m294.04,297.52l15.89.93c-31.32.97-62.64,2.17-93.95,3.43l3.01-1.1c-.67-.62,18.79-1.25,38.07-1.77,19.28-.52,38.38-.96,36.98-1.49Z"/>
    <path class="cls-2" d="m298.53,296.26c9.04-3.23,15.19.64,26.33-1.75-7.43,1.59-12.69,3.31-19.91,2.75l-6.42-1Z"/>
    <path class="cls-1" d="m329.73,289.67c5.04.48,11.01-.94,13.86-.56-1.69,2.34-9.54.76-13.86.56Z"/>
    <path class="cls-2" d="m343.03,280.62c.79-.06,1.56-.08,2.33-.08-.92.16-1.75.33-2.38.49l.05-.41Z"/>
    <path class="cls-2" d="m342.98,281.03l-.11,1.03c-1.65-.36-1.2-.69.11-1.03Z"/>
    <path class="cls-2" d="m345.36,280.54c2.07-.38,4.53-.78,5.8-1.24l-2.17-.1c2.95-.35,8.15-1.31,9.56-.75-5.83-.05-5.9.68-6.04,2.13l9.46-.02c-1.71,3.46-8.18-.01-16.6-.02Z"/>
    <path class="cls-1" d="m375.22,279.05l-9.69,2.17c-2.72-1.83,6.05-2.11,9.69-2.17Z"/>
    <path class="cls-2" d="m389.59,280.98c-2.25.61-11.72.62-5.97,1.4-1.54.42-3.38.38-5.32.41,6.38-.6.33-2.79,11.29-1.8Z"/>
    <path class="cls-2" d="m378.3,282.78c-.76.07-1.61.13-2.74.16.92-.11,1.85-.14,2.74-.16Z"/>
    <path class="cls-1" d="m276.96,293.91c1.19.23,1.15.48.64.73l-.64-.73Z"/>
    <path class="cls-2" d="m409.06,282.74l3.64-.05c-1.04.02-2.01.08-2.93.15l-.71-.1Z"/>
    <path class="cls-2" d="m107.83,310.78c12.71.03,24.75.08,43-2-.53-2.44,7.33-1,8.29-3.63-9.48.58,8.37-.6,26.7-1.88,18.33-1.28,37.14-2.73,29.55-2.99l-4.49,1.3,4.62-2.74c9.12.33,21.64,1.94,27.77.24.86.39-18.53,1.06-37.75,1.83-9.61.4-19.18.8-26.16,1.09-6.98.34-11.36.63-10.61.78-3.57-1.35,22.92-3.17,50.67-4.7,27.75-1.53,56.76-2.73,58.2-3.44l1.31,1.52c14.02-2.1,22.98-4.58,34.78-6.01l2.73,1.81c-8.69-.38-11.02.98-19.85,2.04,15.33-.78,18.14.28,29.84-.38-.48-2.44-10.08-.95,4.63-2.68,4.27.93-5.46,3.85,7.7,3.02,15.96.27,12.68-3.29,26.57-3.8l-9.38-.71c5.12-.23,14.66-.96,19.62.26-5.81-.05-20.55,1.63-20.07,4.07,5.88-.68,18.9-.02,24.02-.24l-3.1,1.78c5.65,1.5,8.83-1.01,15.95.32,6.67-1.09-4.11-2.4-.38-3.16,1.4.56,14.41,1.26,18.9.05-3.24-3.55-15.41,1.33-23.78-1.99l12.32.41c7.67-3.72-19.69.41-15.75-2.51,9.17-3.91,19.32,3.2,27.83-1.67-5.72-.79-23.95-.57-21.63-1.89,6.46,1.21,11.02-1.4,19.89-2.01l10.77,1.48c4.52-1.21.86-1.16-2.71-1.84,7.91.89,18.5.67,29.91.47,11.4-.21,23.63-.31,34.79.86,13.19-.65,1.64-1.59,7.63-2.92,7.04,2.1,18.92.23,26.21.21,2.17.14,6.09-2.03,4-2.89l-18.4,1.48c.88-1.15-1.83-3.04-8.42-2.71,4.6,4.16-25.98-2.31-27.27,2.46l.24-2.16-23.53,1.78.7.28c.08-.72-19.88,1.75-32.91,1.07,3.73-.77,25.52-.31,12.66-2.46,9.63-1.4,26.93.31,44.54-.83l-3.46-1.42c9.25-1.13,20-1.08,31-.83,11,.27,22.25.76,32.5.45l-6.08,2.03c7.21.7,16.49,2.28,23.27.57-8.77.13-4.26-1.02-2.69-1.88,11.83-1.13,29.2.03,45.37-.72,0,0-.79.43-.1.72l16.94-1.21c8.01.36,10.76,1.54,15.69,2.88,2.96-.26,10.28-.2,7.5-1.38-1.58-.12-3.15-.23-4.19-.12,4.29-1.07,5.78-.91,7.55-.64.88.14,1.83.3,3.23.35.7.02,1.51.02,2.48-.03.49-.03,1.01-.06,1.59-.11l.22-.02c.06,0,.02-.02.04-.02l.02-.05.06-.11c-.02.12-.06.22-.07.33v.08c-.1.03-.18.05-.25.08-.16.05-.29.1-.42.15-.5.2-.76.39-.84.56-.16.36.39.69,1.16,1.02.1.04.2.08.3.12.05.04.05.08.08.12.04.08.09.17.14.25.13.18.25.37.36.53.24.37.49.77.5,1.23,2.06-.39,1.43-1.22.77-2.06-.72-.84-1.29-1.68-1.34-2.11.85.55,2.19,1.23,3.79,1.82.81.3,1.7.57,2.7.8.5.11,1.03.21,1.6.3.28.04.56.07.87.12.15.02.3.03.45.05.03-.04-.08-.15-.12-.23-.68-.32-.98-.38-1.19-.37-.56-.15-1.1-.26-1.63-.37-1.06-.22-2.09-.46-3.2-1.12,1.15.32,1.85.2.95-.23-1.08-.31-1.99-.62-2.72-.93.43.17.9.33,1.38.48l.74.2c.33.1.32.04.36,0,.14-.17.03-.52-.25-.95-.15-.22-.3-.43-.54-.7-.29-.31-.6-.63-.94-.94-.33-.31-.69-.61-1.04-.89-.18-.14-.36-.27-.54-.4l-.27-.18-.13-.09-.07-.04s0,0-.14-.12c.07.14.04.18.01.22l-.07.14-.15.27-6.66-7.07,4.23,1.33c-4.42-3.82-7.32-9.7-10.75-10.71l1.39,1.63-5.61-4.7,6.78,3.84c-2.92-3.62-7.44-6.92-12.49-10.69-2.51-1.9-5.24-3.83-7.96-5.99-2.72-2.16-5.46-4.52-8.1-7.21-.16-2.18,4.68,2.16,10.06,6.88,1.35,1.18,2.73,2.38,4.07,3.52,1.32,1.16,2.61,2.24,3.79,3.15,2.37,1.83,4.33,2.97,5.33,2.66-1.54-1.98-3.71-4.6-5.85-6.91-2.14-2.31-4.32-4.23-5.75-4.94-.28,1.16,2.32,3.64,4.85,6.21-2.67-2.01-5.49-4.43-8.26-7.1-2.79-2.64-5.54-5.52-8.28-8.18-5.51-5.29-10.66-10.1-14.84-11.7,2.18,2.51,4.3,5.09,6.45,7.62-2.17-1.9-3.97-3.82-5.52-5.64-1.56-1.81-2.9-3.51-4.08-5.02-2.37-3.02-4.18-5.24-6.34-5.74l9.26,3.33c-9.93-6.57-21.08-16.74-30.42-22.71-.81.76,2.3,3.21,5.38,5.6,3.1,2.37,6.3,4.54,5.87,4.45l-4.98-2.23c-1.51-1.52-2.69-2.72-3.64-3.68-.95-.95-1.66-1.68-2.2-2.26-1.09-1.16-1.54-1.75-2.08-2.41-1.08-1.31-2.47-2.95-10.1-10.01l-1.05,1c-2.02-3.01-7.32-6.58-11.12-9.22-3.78-2.66-6.19-4.28-2.22-3.7,1.31,1.37,2.58,2.8,3.87,4.19l.69-1.66c-3.23-2.36-6.55-4.6-9.84-6.88l-9.88-6.8c2.66.35-6.91-6.2-3.39-5.75l-8.05-3.99c-1.82-4.38,14.88,7.23,16.74,6.35.45-1.12-3.02-3.48-4.77-4.57,4.89,2.41,7.67,5.38,10.33,8.47,2.64,3.12,5.18,6.33,9.32,9.65l5.11,2.07-1.56,1.51c3.69,2.42,7.55,3.67,9.31,3.98,6.28,8.91,17.27,13.36,28.84,24.31-10.79-7.69,5.03,7.05,2.91,6.06,2.68,2.43,7.98,5.91,12.97,9.56,4.91,3.74,9.52,7.64,10.88,10.7,2.38,3.62-7.54-4.92-.51,2.29,4.94,4.29,8.9,6.67,6.59,2.96,5.45,4.85,11.25,10.33,16.91,16.19,2.84,2.92,5.75,5.84,8.57,8.81,2.82,2.97,5.62,5.93,8.36,8.82l-3.65-1.77c1.5,2.01,3.13,3.87,4.81,5.57.43.42.85.84,1.27,1.25l.26.24.19.17.38.33c.51.43,1.04.84,1.59,1.25,2.19,1.6,4.85,3.2,7.18,4.59-.12.73.79,1.09-1.07.32.63,1.54,1.35,2.57,2.6,3.74,1.23,1.16,2.92,2.42,5,4.03,1.04.81,2.17,1.7,3.38,2.69.59.5,1.21,1.02,1.86,1.56.54.37.08.3-.05.38-.19.05-.4.1-.62.15-1.77.37-4.72.58-9.01.42,1.78,1.02,4.87,1.6,8.16,1.8,1.63.1,3.28.11,4.72.03.72-.04,1.39-.1,1.99-.18l.22-.03c-.06-.07-.17-.16-.26-.25l-.54-.5c-.37-.33-.74-.66-1.09-.98,1.98,1.07,4.02,2.2,6.11,3.39-5.88-6.72-12.41-14.14-18.86-20.64-1.59-1.61-3.16-3.21-4.7-4.77-.76-.76-1.52-1.51-2.27-2.25-.8-.75-1.58-1.5-2.36-2.24-3.12-2.93-6.11-5.66-8.9-8.09l5.9,3.73c-3.28-5.68-5.4-6.83-7.4-7.92-2.04-1.07-3.95-2.1-6.91-7.58-6.82-5.71,3.67,5.39-1.73,1.33-3.94-4.91,3.96-1.66-3.35-9.23,7.15,6.81,14.55,13.87,21.79,21.37,1.82,1.86,3.65,3.73,5.49,5.61,2.08,2.23,4.17,4.48,6.26,6.72,2.12,2.29,4.25,4.59,6.38,6.89l3.21,3.48,3.19,3.58c2.13,2.4,4.27,4.8,6.41,7.2l3.22,3.62,1.61,1.81.81.91.2.23.1.11h-.15s-.59,0-.59,0c-6.37,0-12.74-.02-19.09-.03-6.39,0-12.76-.01-19.09-.02-5.58.02-11.12.03-16.6.05-.79.42,1.39.59,3.54.75-3.56.76-13.4.78-26.22.48-12.82-.24-28.61-.85-44.07-1.27-30.93-.88-60.56-1.17-62.38,1.83-2.07-.86,4.6-1.9-4.16-1.71-.79.44-3.03,1.03-.96,1.88-22.2-3.07-51.76.73-78.47-.95.61,1-5.27,1.65-5.36,2.37-9.2-2.2-24.78.6-33.38-.54l2.8,1.11-26.97.59c-.79.45,2.87.37,5.04.48-5.87.69-7.21-.58-7.81-1.58l-11.93,2.82c-35.26-3.34-78.88,4.49-119.4,3.34-6,2.2-11.17,3.26-21.39,3.88l5.04.41c-10.34,2.08-.64-.99-9.45.18-5.95,1.5-1.71,3.08,6.39,1.66,5.12.48,2,1.3-1.62,1.92-32.43,1.02-62.67,1.06-89.11-1.38Z"/>
    <path class="cls-2" d="m132.98,244.94c3.25-1.78-9.75,10.34-2.05,5.84,2.84-2.01,5.8-4.28,8.85-6.76,3.09-2.43,6.31-5.03,9.59-7.8,6.53-5.55,13.53-11.5,20.65-17.55l2.67-2.28,2.72-2.23,5.46-4.45c1.82-1.48,3.65-2.95,5.46-4.41,1.81-1.47,3.63-2.91,5.48-4.28,7.36-5.52,14.51-10.83,21.52-15.04,3.92-2,6.34-3.34,8.62-4.68,2.27-1.36,4.44-2.67,7.85-4.61-.07-.35-.31-.7-.83-.78,3.63-2.53,8.26-6.01,12.96-9.39,4.77-3.28,9.59-6.48,13.5-8.58,1.84-1.77,2.49-4.11-1.28-1.07,2.57-2.2,5.17-3.96,7.73-5.38,2.55-1.45,5.03-2.63,7.35-3.71,4.65-2.15,8.65-3.91,11.55-6.4-6.09,2.59,4.72-4.7-2.35-1.26,5.93-3.83,9.36-4.4,12.52-4.68,3.16-.28,6.03-.29,10.98-2.81.34-.71.7-1.43-1.29-.4,2.91-1.04,6.31-2.81,9.84-4.85,3.5-2.08,7.2-4.28,10.61-6.32,6.84-4.03,12.6-7.27,14.12-5.86l3.53-3.72c5.29-1.39,4.54,0,12.57-3.71,4.79-3.26-.87-1.17.72-2.69,1.43.12,5.54-1.7,10.17-3.72,4.65-2,9.79-4.29,13.46-4.77,1.42,1.94-12.65,2.66-17.9,7.79.02.53.99.2,2.29-.39-4.13,1.97-8.15,3.87-12.05,5.73-3.93,1.83-7.79,3.55-11.59,5.19-7.59,3.34-14.83,6.53-21.89,9.64-6.99,3.27-13.82,6.43-20.39,9.99-3.27,1.81-6.49,3.68-9.67,5.65-3.17,1.98-6.33,4-9.35,6.29-6.51,2.2-9.92,6.36-11.45,9.38,5.01-2.33,18.84-9.51,17.38-12.5l9.2-3.12c2.96-2.04,4.7.94,6.3.61-5.84,3.18-10.4,9.99-2.18,6.32-14.54,9.54.91-9.15-11.73-.23l-.58,3.28c1.73-2.73-10.09,3.65-13.82,7.09l2.01-.73c-17.48,10.85-37.24,24.58-56.55,39.78-19.34,15.16-38.3,31.65-54.95,47.13-6.19,1.47-12.11,7.42-17.6,13.66-2.77,3.09-5.5,6.19-8.23,8.74-2.69,2.59-5.36,4.67-8.11,5.62-2.98,4.11,6.61-3.45.29,3.83-3.15,3.64-4.6,2.8-4.77,2.33-.92,1.13-1.85,2.28-2.79,3.44-3.35-.86-4.52-3.71-2.34-9.45,2.18-5.73,7.57-14.5,17.77-26.69Z"/>
  </g>
</svg>