<?xml version="1.0" encoding="UTF-8"?>
<svg id="Layer_1" data-name="Layer 1" xmlns="http://www.w3.org/2000/svg" viewBox="0 0 1279 1080">
  <defs>
    <style>
      .cls-1 {
        fill: none;
        stroke: #fff;
        stroke-linecap: round;
        stroke-linejoin: round;
      }

      .cls-1, .cls-2 {
        stroke-width: 0px;
      }

      .cls-2 {
        fill: #fff;
      }
    </style>
  </defs>
  <g>
    <path class="cls-2" d="m1212.47,583.42c-.29,1.64-.87,3.5-1.46,5.52-.3,1.01-.73,2.04-1.11,3.1-.2.53-.41,1.07-.61,1.61-.25.53-.5,1.07-.75,1.62-.26.54-.51,1.09-.77,1.64-.25.55-.53,1.1-.85,1.63-.63,1.07-1.26,2.15-1.88,3.22-.73,1.02-1.46,2.04-2.17,3.04l-.55.74-.6.69c-.4.46-.8.91-1.2,1.36-.4.44-.79.88-1.18,1.32-.41.42-.84.79-1.25,1.18-.84.75-1.65,1.48-2.42,2.17-1.67,1.21-3.16,2.31-4.47,3.1-2.69,1.45-4.37,2.15-4.42,1.73.09.8.15,1.2-2.15,2.67-1.14.8-2.92,1.62-5.6,2.86-1.34.56-2.92,1.13-4.77,1.83-.92.29-1.91.6-2.96.94-.53.17-1.08.34-1.64.51-.56.15-1.14.31-1.73.47.05-.27-1-.22-2.75.03-.87.12-1.91.24-3.09.42-1.18.19-2.48.38-3.85.58-5.51.83-12.17,1.79-17.13,2.71,4.19-.37,9.18-.84,16.36-1.77,3.57-.46,7.75-1.13,12.63-2.17,4.88-1.11,10.59-2.69,16.91-5.82,2.74-1.68,5.78-3.79,8.84-6.39.8-.6,1.51-1.36,2.27-2.07.74-.73,1.54-1.44,2.26-2.23,1.39-1.63,2.93-3.24,4.19-5.1.33-.45.66-.91,1-1.37.34-.45.66-.92.95-1.41.59-.97,1.19-1.95,1.79-2.93.58-.99,1.07-2.03,1.61-3.06.26-.52.53-1.03.78-1.56l.68-1.59c1.9-4.24,3.27-8.68,4.35-13.09,2.18-8.84,2.97-17.56,3.29-25.28.25-7.72.02-14.43-.59-19.64-.24,7.53-.81,14.9-1.64,22.87-.44,3.98-.92,8.08-1.62,12.38-.3,2.15-.75,4.35-1.14,6.61-.49,2.26-.94,4.58-1.58,6.96Z"/>
    <path class="cls-2" d="m1126.54,624.92l-2.9,1.55c11.89-4.45,24.68-5.68,36.96-8.16-3.7.95-11.95,2.31-19.4,3.62-7.46,1.3-13.99,3.09-14.66,2.99Z"/>
    <path class="cls-2" d="m1026.15,693.81c2.73-2.21-15.32,4.47-15.35,3.18.35.47-1.24,1.33-4.08,2.45-1.42.56-3.15,1.19-5.1,1.86-1.98.58-4.18,1.19-6.52,1.82-4.65,1.37-9.94,2.39-15.02,3.52-5.11.99-10.05,1.94-14.11,2.73l-6.3,2.73c2.01-.16,4.41-.42,7.12-.74,2.7-.4,5.71-.93,8.99-1.5,3.29-.52,6.77-1.39,10.47-2.22,1.84-.45,3.76-.81,5.68-1.37,1.92-.54,3.88-1.09,5.88-1.66,15.94-4.56,33.62-11.68,48.59-20.54-3.3,1.78-6.67,3.45-9.99,5.17-.82.45-1.68.83-2.54,1.2l-2.57,1.13-5.14,2.25Z"/>
    <path class="cls-2" d="m996.49,703.13l-5.09,2.02c-1.7.68-3.44,1.22-5.16,1.84,1.1-.29,2.38-.64,3.75-1,1.36-.37,2.78-.85,4.2-1.28,2.83-.88,5.59-1.73,7.49-2.36,1.88-.69,2.9-1.15,2.31-1.06-.3.04-1,.22-2.2.55-1.22.28-2.95.7-5.28,1.28Z"/>
    <path class="cls-2" d="m1020.7,701.19c1.61-.64,2.95-1.17,4.07-1.61.56-.22,1.06-.42,1.51-.6.44-.2.82-.39,1.16-.54,1.35-.64,1.93-.94,1.99-1,.12-.15-1.79.68-3.74,1.38-1.97.65-3.93,1.29-3.8,1.1.06-.1.65-.4,2.03-1.01.68-.32,1.58-.65,2.66-1.2,1.09-.53,2.4-1.17,3.96-1.93-1.04.52-2.11,1.06-3.15,1.58-.53.26-1.04.53-1.56.77-.52.23-1.04.45-1.54.66-2,.86-3.78,1.64-5.03,2.21-2.49,1.15-2.85,1.51,1.44.19Z"/>
    <path class="cls-2" d="m908.29,718.59c19.15-1.14,38.28-3.11,57.17-6.59-3.94.48-7.87,1.05-11.82,1.46-3.95.36-7.89.78-11.84,1.09-5.56.79-11.12,1.67-16.71,2.27-5.58.72-11.18,1.23-16.79,1.77Z"/>
    <path class="cls-2" d="m905,715.09c7.46-.32,19.26-.33,8.6.82-2.57-.04-5.01-.03-7.36,0-2.35,0-4.6.03-6.79.09-4.37.15-8.48.29-12.54.42-4.06.18-8.08.25-12.28.25-4.2,0-8.57-.1-13.34-.38l18.22-.58c-1.25-.71-10.75-.35-19.83-.12-2.27.05-4.51.11-6.59.11-2.08-.02-4-.07-5.62-.15-3.24-.17-5.27-.51-5.02-1.13-24.7,1.28,18.69,2.52-13.37,3.14,7.56.04,14.62.13,21.36.25,3.37.09,6.66.06,9.89.08,3.23.03,6.4.05,9.53.08,12.53.2,24.46.24,37.17-.03-7.37-.28-10.37,0-20.74-.28,2.25-.06,4.61-.12,7.04-.18,2.43-.08,4.94-.22,7.52-.34,5.14-.21,10.53-.63,16-1.02,10.94-.92,22.23-2.03,32.65-3.54-5.75-.03-12.44.58-19.91,1.3-3.74.29-7.68.65-11.78.89-4.11.18-8.39.35-12.8.29Z"/>
    <path class="cls-2" d="m813.71,714.3c-9.71-.41-22.06-.93-32.62-1.38-5.29-.18-10.13-.26-13.99-.22-3.85,0-6.72.16-8.05.55,10.18,1.41,16.22,1.57,20.86,1.51,4.64-.08,7.89-.51,12.53-.66,2.95.35,9.28.68,13.88,1.05,4.6.37,7.48.76,3.51,1.11-2.84-.52,12.61-.92,3.88-1.97Z"/>
    <path class="cls-2" d="m737.52,709.71l-14.27.57,9.12.44.96,1.29c.82-.09,2.97-.52,7.34-.79,4.37-.28,10.96-.35,20.66.37-10.04-1.61-13.57-.72-23.81-1.87Z"/>
    <path class="cls-2" d="m732.21,717.69c-13.11-1.89-20.85-1.94-36.03-2.85,21.04,1.79,51.02,4.02,57.38,3.7l-1.68.19s4.98.09,11.71.2c6.73.1,15.24-.04,22.28-.23-5.39,0-11.83-.23-18.36-.54-6.52-.42-13.13-.84-18.87-1.2-11.49-.65-19.49-1.05-16.44.73Z"/>
    <path class="cls-2" d="m759.18,719.73l-15.46-.06,15.46.06Z"/>
    <path class="cls-2" d="m677.53,705c9.86,1.13,19.73,2.15,29.6,3.23l-7.21-1.16c-7.46-.69-14.93-1.32-22.39-2.07Z"/>
    <path class="cls-2" d="m712.52,713.26c-23.82-2.31,12.89,2.49-9.54.48-3.04-.2,5.18.6,14.42,1.16,9.24.6,19.47,1.15,20.4.82-5.83-.77-22.93-.85-25.29-2.46Z"/>
    <path class="cls-2" d="m658.19,702.99l-24.51-1.21,24.51,1.21Z"/>
    <path class="cls-2" d="m597.35,695.85l-4.9.38c-23.51-3.29-55.49-5.49-72.47-9.21,3.92,1.54-10.06,1.26,10.67,3.78,3.28-.26,10.72.54,9.58-.29,8.85,1.17,6.95,1.78,12.82,2.72,15.35.65,38.89,3.97,51.23,4.38-6.02-.45-7.44-.8-11.84-1.39,26.11,1.2,30.24,5.52,41.91,4.09-9.29-.14-24.88-3.58-37.01-4.48Z"/>
    <path class="cls-2" d="m598.83,702.2l20.8,2.56c-6.59.5-25.45-2.64-28.97-1.92,1.17.85,21.88,3.39,14.22,3.07,2.83-2.53,28.46,2.87,18-1.4,27.05,2.41,8.13,2.62,36.62,5.31l8.18-.71c-15.89-1.14-25.16-2.27-34.44-3.36-9.28-1.08-18.54-2.23-34.43-3.54Z"/>
    <path class="cls-2" d="m518.49,693.15l-10.01-1.98,5.34,1.89c-46.38-4.62-73.15-12.3-101.35-13.79-35.24-.95-67.72-5.76-103.21-10.49-8.72-.69-4.6.08,1.93,1.14,6.54,1,15.49,2.2,16.36,2.62-5.28,1.65-16.76-3.28-25.08-2.7-.63.32,1.32.92,4.83,1.69,3.51.8,8.6,1.66,14.26,2.56,11.3,1.78,24.86,3.45,32.51,4.62,13.42,1.02,13.26.42,17.42-.13,3.31,1.19,16.91,2.54,20.24,3.7,28.01.84,42.36,4.4,69.85,5.54,4.21,1.01-.92.59-5.97.04-5.05-.55-10.03-1.14-5.5-.68l14.93,1.35-1.56-.35c20.43.55,57.82,5.66,70.8,7.86-10.18-1.49-17.21-3.26-5.07-2.37l9.77,2.47,26.35.75c-20.05-.79-42.66-5.95-46.85-3.75Z"/>
    <path class="cls-2" d="m547.09,698.77c30.98,4.1-3.47-2.52,30.53,1.82l-35.9-3.73,5.37,1.91Z"/>
    <path class="cls-2" d="m398.65,681.28l-15.34-2.17c8.23,2.66,32.67,1.84,15.34,2.17Z"/>
    <path class="cls-2" d="m341.76,676.41l8.33-1-14.61-.46c2.09.52,4.18.97,6.27,1.46Z"/>
    <path class="cls-2" d="m290.42,667.3c-11.59-1.12,1.92,2.22,15.3,3.92-6.01-.87-10.52-1.9-13.2-2.62-2.67-.73-3.5-1.23-2.1-1.3Z"/>
    <path class="cls-2" d="m209.99,641c2.68,1.52,4.51,2.34,5.56,2.8,1.05.45,1.31.54,1.04.38-.54-.32-3.26-1.62-5.93-3.3-2.69-1.66-5.24-3.74-6.13-4.87-.47-.55-.56-.82-.11-.67.46.14,1.43.73,3.26,1.74-.72-.28-1.93-.84-3-1.47-1.13-.58-2.07-1.25-2.6-1.42-.5-.19-.49.07.53,1.18,1.03,1.1,3.11,3.09,7.38,5.62Z"/>
    <path class="cls-2" d="m188.71,565.17c2.02,5.26,2.58,8.96,2.91,11.47.29,2.52.26,3.91.11,4.6-.39-3.64-.93-7.01-1.5-9.79-.3-1.39-.57-2.63-.85-3.7-.24-1.06-.49-1.93-.65-2.58Z"/>
    <path class="cls-2" d="m446.24,680.72c3,.26,6.23.5,9.16.85-3.13-.29-6.07-.56-9.16-.85Z"/>
    <path class="cls-2" d="m440.26,680.18c1.97.18,4,.36,5.99.54-2.24-.2-4.25-.39-5.99-.54Z"/>
    <path class="cls-2" d="m248.89,651.97q.06.02.08.02c.65.24,1.26.45,1.9.7l-1.98-.72Z"/>
    <path class="cls-2" d="m1064.17,668.26c3.88-3.22,6.81-5.82,9.19-7.88-2.97,2.67-6.03,5.3-9.08,7.8q-.07.05-.11.07Z"/>
    <path class="cls-2" d="m1076.57,661.11c-3.85,3.78-7.02,6.46-10.06,8.64-.74.56-1.5,1.06-2.27,1.53-.76.47-1.52.93-2.27,1.4-1.51.9-3.03,1.8-4.64,2.76-.81.47-1.61.98-2.49,1.46-.88.46-1.8.94-2.77,1.44-1.92,1.02-4,2.15-6.33,3.49-1.14.7-2.45,1.27-3.78,1.98-1.34.7-2.75,1.44-4.26,2.23-2.95,1.69-6.44,3.27-10.32,5.21,12.63-6.01,25.26-13.63,36.9-23.05,4.15-2.74,5.47-3.56,5.57-3.36.09.18-1.08,1.34-2.05,2.27-.97.92-1.73,1.66-.74,1.08.98-.58,3.72-2.47,9.5-7.06Z"/>
    <path class="cls-2" d="m797.85,718.67c-.43,0-.79,0-1.22,0-2.12-.04-1.03-.03,1.22,0Z"/>
    <polygon class="cls-2" points="599.13 303.82 598.94 304.33 579.69 304.24 599.13 303.82"/>
    <path class="cls-2" d="m601.81,304.66l32.67.36c-64.5,1.17-128.97,3.66-193.37,7.46l6.22-1.07c-.68-.17,8.98-.92,23.78-1.63,14.8-.73,34.72-1.78,54.56-2.42,9.92-.36,19.82-.73,29.03-1.07,9.22-.26,17.77-.5,24.98-.7,14.43-.43,23.55-.77,22.12-.94Z"/>
    <path class="cls-2" d="m611.1,303.69c9.37-1.22,17.19-1.17,25.53-1.06,4.17.06,8.48.13,13.18.07,4.7-.02,9.8-.15,15.56-.57-15.38,1.06-26.27,2.41-41.11,2.15l-13.16-.59Z"/>
    <path class="cls-1" d="m675.62,298.74c10.36.36,22.72-.7,28.57-.33-3.6,1.54-19.67.48-28.57.33Z"/>
    <path class="cls-2" d="m703.44,292.45c1.62-.03,3.21-.02,4.8,0-1.9.1-3.63.19-4.92.29l.12-.29Z"/>
    <path class="cls-2" d="m703.32,292.74l-.27.72c-3.38-.29-2.44-.51.27-.72Z"/>
    <path class="cls-2" d="m708.25,292.45c4.29-.22,9.36-.45,12-.74l-4.46-.12c6.1-.18,16.86-.75,19.73-.33-12-.15-12.19.36-12.55,1.37l19.48.17c-3.69,2.39-16.84-.16-34.2-.35Z"/>
    <path class="cls-1" d="m769.81,292.22l-20.06,1.14c-5.51-1.39,12.57-1.24,20.06-1.14Z"/>
    <path class="cls-2" d="m799.3,294.19c-4.67.24-24.16-.06-12.37.69-3.2.23-6.97.13-10.97.08,13.18-.15.82-1.99,23.34-.77Z"/>
    <path class="cls-2" d="m775.96,294.96c-1.57.02-3.31.03-5.65,0,1.9-.04,3.81-.02,5.65,0Z"/>
    <path class="cls-1" d="m566.82,302.77c2.43.12,2.35.29,1.29.49l-1.29-.49Z"/>
    <path class="cls-2" d="m839.3,296.57c2.5.05,5,.13,7.5.22-2.15-.07-4.13-.11-6.05-.11l-1.45-.11Z"/>
    <path class="cls-2" d="m218.9,333.55c13.01-1.09,25.69-2.14,39.8-3.5,7.05-.68,14.46-1.39,22.46-2.17,7.99-.8,16.56-1.71,25.93-2.77-.51-.82,3.26-1.28,7.4-1.78,4.15-.46,8.68-.97,9.7-1.96-9.74.83-5.44.45,6-.56,11.44-.97,30.02-2.76,48.87-4.18,9.42-.76,18.91-1.53,27.59-2.23,8.69-.66,16.57-1.25,22.79-1.72,12.44-.96,18.22-1.53,10.42-1.26l-9.28,1.34,9.58-2.37c4.68-.16,9.8-.29,15.04-.42,5.24-.09,10.6-.19,15.78-.28,10.35-.22,19.93-.59,26.27-1.42,1.76.24-38.14,1.99-77.67,4.51-9.89.54-19.74,1.29-28.92,1.92-9.18.65-17.68,1.25-24.86,1.76-14.34,1.1-23.35,1.94-21.8,1.93-7.29-.44,47.14-5.48,104.25-8.92,3.57-.23,7.15-.46,10.72-.69,3.58-.2,7.15-.39,10.7-.59,7.11-.39,14.14-.77,20.97-1.15,13.67-.8,26.59-1.34,37.82-1.85,11.22-.53,20.76-.98,27.67-1.3,6.91-.29,11.21-.51,11.96-.65l2.63,1.02c7.23-.5,13.82-1,20-1.5,6.19-.5,11.98-1.01,17.63-1.41,11.3-.84,22.03-1.63,34.2-2.24l5.53,1.22c-17.87-.11-22.72.88-40.94,1.79,31.59-.79,37.33-.23,61.43-.63-.87-1.71-20.71-.67,9.66-1.88,8.75.65-11.43,2.7,15.71,2.12,16.42.18,22.98-.27,29.02-.87,6.04-.57,11.56-1.27,25.87-1.27-6.43-.28-12.85-.47-19.28-.7,5.27-.01,12.83-.17,20.34-.07,7.51.1,14.96.33,20.04.86-5.98-.12-16.58-.07-25.57.3-8.99.42-16.38,1.08-15.94,1.94,3.03-.09,6.98-.11,11.36-.1,4.38,0,9.2.08,13.96.2,9.53.22,18.86.47,24.14.5l-6.46,1.12c5.77.64,10.33.55,15.26.45,2.47-.05,5.03-.1,7.89-.06,2.86.07,6.01.22,9.66.56,13.79-.38-8.32-1.92-.62-2.24,2.84.47,29.58,1.72,38.89,1.13-6.47-2.68-31.79.04-48.83-2.78l25.34,1c7.99-1.07-2.14-1.29-13.25-1.47-11.1-.22-23.17-.19-19.03-1.15,9.54-1.23,19.44-.29,29.18.43,9.74.76,19.3,1.39,28.2-.03-11.73-.92-49.26-1.8-44.43-2.6,13.23,1.23,22.76-.33,41.06-.25l22.08,1.87c9.36-.49,1.83-.75-5.47-1.5,32.47,2.32,87.22,3.01,133.03,7.43,6.85.35,10.53.6,12.36.64,1.83.06,1.81-.1,1.32-.32-.98-.45-3.87-1.17,2.51-.93,7.31,1.59,17.32,3.21,27.35,6.28,5.01,1.53,9.97,3.56,14.51,5.85,2.23,1.25,4.42,2.4,6.36,3.8.97.68,1.97,1.28,2.84,2,.87.72,1.72,1.41,2.53,2.08.98.79,2.09,1.8,3.25,2.75,1.15.96,2.37,1.83,3.26,2.59,1.85,1.46,3,1.97,1.6-.1-4.94-5.42-10.78-9.99-17.03-13.44-6.25-3.47-12.83-5.93-19.4-7.71,1.06-.11.26-.9-2.63-2.15-1.44-.58-3.41-1.23-5.91-1.91-1.25-.3-2.63-.62-4.15-.94-1.52-.31-3.16-.55-4.94-.82,2.35,1.15.02.93-4.75.36-4.78-.61-12.03-1.5-19.55-2.16-14.92-1.24-31.24-2.43-32.71-.85l.63-1.48c-8.09-.23-16.17-.57-24.26-.71l-24.26-.52,1.43.26c.03-.06-.6-.12-1.76-.18-1.16-.06-2.86-.11-4.99-.17-4.25-.1-10.22-.28-17.04-.38-13.63-.2-30.63-.53-44.02-1.29,7.72-.24,52.55,1.8,26.2-.72,4.97-.06,10.93.06,17.62.27,6.7.2,14.13.64,22.08,1.04,7.95.4,16.41.82,25.16,1.26,8.74.39,17.76.9,26.84,1.19l-7.03-1.4c9.55.14,19.85.53,30.59,1.07,10.76.54,22.42,1.43,34.37,3.64,5.99,1.15,12.06,2.68,18.08,4.8,6.01,2.13,12,4.81,17.57,8.4,5.58,3.56,10.69,7.98,15.03,12.9,2.19,2.46,4.02,5.01,5.78,7.52,1.67,2.51,3.26,5.01,4.65,7.42-2.63-3.61-5.5-7.3-8.79-10.8,5.03,6.9,8.84,15.1,12.6,22.35,1.89,3.63,3.8,7.05,5.85,10,2.06,2.95,4.18,5.42,6.47,7.27-2.66-2.68-4.01-4.7-4.79-5.9-.76-1.21-.88-1.58-.66-1.48.23.09.81.65,1.46,1.31.65.66,1.41,1.32,1.94,1.78.4.51.84.95,1.27,1.42.44.46.84.97,1.34,1.4.95.9,1.92,1.82,2.92,2.77,1.1.86,2.21,1.75,3.34,2.67,1.23.84,2.48,1.7,3.75,2.57,5.26,3.37,11.68,6.37,18.86,9.19,7.17,2.84,15.07,5.53,23.23,8.74,8.15,3.21,16.63,6.98,24.62,12.16,0,0-1.72-.73-.48.3,11.1,7.05,20.57,16.78,27.59,27.71,4.67,7.94,6.82,13.67,8.43,18.57,1.58,4.92,2.5,9.1,3.52,14.41,1.01,3.08,2.34,8.5,3.25,12.41.91,3.9,1.48,6.28,1.37,3.24-.29-1.69-.57-3.37-.87-4.91-.32-1.54-.63-2.93-.91-4.02,1.41,4.47,2.16,7.53,2.64,9.94.46,2.41.69,4.17.86,6.07.2,1.9.35,3.95.7,6.93.31,2.99.81,6.92,1.43,12.6-1.33-8.76-1.73-7.33-1.87-3.99-.16,3.34-.31,8.58-1.03,7.58.53,6.58.8,10.02,1.1,11.53.3,1.51.58,1.09.84-.06.54-2.29.9-7.5,1.27-5.85.15,8.07-.04,14.33-.28,19.7-.25,5.36-.56,9.88-.95,14.46-.43,4.59-.93,9.23-1.81,14.82-.93,5.58-2.14,12.17-5.18,20.51.02.55.58-.64,1.42-2.8.45-1.08.83-2.4,1.29-3.87.48-1.47.86-3.07,1.26-4.71,1.62-6.58,2.4-13.65,3.01-15.02-.54,4.73-1.32,9.93-2.15,14.21-.85,4.28-1.78,7.6-1.87,8.53,2.32-6.94,3.7-13.91,4.62-20.75-1.13,8.68-2.96,17.55-6.52,26.29-1.74,4.37-4.12,8.66-6.94,12.71l-2.24,2.98-2.52,2.81c-.81.96-1.78,1.79-2.71,2.65-.95.84-1.85,1.75-2.89,2.47-1.02.76-2.03,1.51-3.05,2.27-1.04.72-2.14,1.33-3.21,1.99l-1.63.97-1.67.82c-1.12.53-2.24,1.12-3.37,1.59-4.54,1.92-9.14,3.29-13.71,4.42-9.11,2.12-18.06,3.21-26.61,4.76l2.78-.03c-7.17,1.11-13.95,2.35-19.88,4.54,2-1.24,4.07-2.43,6.34-3.49-5.28,1.5-10.34,3.23-14.85,5.46-2.25,1.07-4.29,2.3-6.07,3.45-1.75,1.24-3.23,2.35-4.27,3.51,1.13-.81,2.29-1.52,3.44-2.24-3.77,2.67-7.44,5.66-11.05,8.88,3.51-3.56,7.08-6.92,10.83-9.94-3.82,2.28-7.76,5.35-11.85,9-4.1,3.65-8.36,7.89-13,12.49-4.66,4.58-9.67,9.6-15.61,14.47-3.01,2.36-6.11,4.77-9.32,7.17-3.34,2.19-6.78,4.39-10.32,6.58-.91.22-.79-.03.04-.76.84-.72,2.42-1.87,4.51-3.31,4.28-2.75,10.28-7.3,16.43-12.16,6.03-5.01,11.8-10.45,16.21-14.75,4.39-4.32,7.48-7.51,7.81-8.64-3.99,3.1-9.3,7.62-14.28,11.96-4.97,4.34-9.7,8.37-12.06,10.68.71-.14,2.64-1.41,5.04-3.31,2.41-1.9,5.32-4.42,8.15-6.94-2.47,2.44-5.21,4.99-8.17,7.57-1.47,1.29-3.04,2.58-4.62,3.87-1.65,1.23-3.32,2.47-5,3.72-1.69,1.24-3.39,2.51-5.12,3.73-1.8,1.13-3.6,2.26-5.4,3.39-1.81,1.11-3.59,2.29-5.42,3.33-1.86,1-3.71,1.99-5.53,2.97-14.67,7.84-28.96,13-37.2,16.84l10.33-3.06,10.2-3.61c-2.91,1.2-5.72,2.3-8.4,3.32-1.33.54-2.67.95-3.97,1.34-1.3.39-2.58.78-3.81,1.15-1.24.36-2.45.72-3.63,1.06-1.18.34-2.32.67-3.45.91-2.25.51-4.38.99-6.38,1.44-3.98.96-7.49,1.54-10.47,2.21-1.49.33-2.85.67-4.08,1.04-.62.18-1.2.37-1.75.57-.56.17-1.08.35-1.57.55,1.56-.5,3.09-1.12,4.63-1.7l4.6-1.76c1.53-.6,3.06-1.15,4.57-1.79l4.51-1.96c-11.89,4.03-25.88,7.35-39.76,9.52-13.88,2.23-27.62,3.6-39.19,4.82-.13.4,1.91.45,5,.29,1.55-.08,3.36-.2,5.3-.35.97-.08,1.97-.17,2.99-.25,1.02-.12,2.05-.24,3.08-.35,4.12-.51,8.2-.95,11.15-1.43,2.95-.45,4.77-.72,4.37-.6l-5.47,1.24c-1.83.41-3.66.74-5.49,1.11-9.09.74-14.27.82-17.64.95-3.36.12-4.89.03-6.67.02-1.77-.03-3.78-.04-8.08.03-4.29-.02-10.88.12-21.78.04l-.38,1.02c-7.29-.69-20.61-.39-30.32-.16-9.7.06-15.75-.03-8.43-1.22,3.93.28,7.86.6,11.79.77l-1-1.21c-16.71.06-33.43.03-50.13-.43,2.46-.36-2.36-.7-6.98-1.07-4.62-.34-9.03-.87-5.77-1.28l-18.5.09c-4.15-1.09,4.35-1.15,14.13-1.09,2.44.01,4.97.03,7.4.04,2.43-.03,4.76-.06,6.82-.09,4.12-.09,7.14-.24,7.64-.55-.62-.82-9.3-1.05-13.56-1.1,11.13-.22,19.38.54,27.64,1.42,8.26.76,16.51,1.68,27.56,1.92l11.01-1.08-.6,1.51c9.16-.3,17.04-1.26,20.27-1.91,10.94.89,22.31.44,35.05-.59,12.74-1.14,26.82-2.87,43.24-5.26-3.39.64-5.65,1.13-7.04,1.42-1.39.28-1.88.43-1.73.51.15.07.96.06,2.19-.01,1.22-.1,2.85-.29,4.67-.5,7.26-.71,17.3-2.59,15.02-1.91.93-.19,1.95-.4,3.05-.62.55-.12,1.11-.24,1.69-.37.58-.15,1.17-.31,1.78-.47,2.43-.66,5.11-1.4,7.95-2.17.71-.2,1.43-.4,2.15-.61.72-.24,1.45-.47,2.18-.71,1.47-.48,2.97-.97,4.48-1.47,1.51-.5,3.04-1,4.58-1.5,1.52-.57,3.04-1.14,4.56-1.72,1.52-.57,3.03-1.13,4.53-1.7.75-.28,1.5-.55,2.24-.83.74-.29,1.45-.61,2.17-.91,2.87-1.22,5.65-2.37,8.26-3.4,2.59-1.08,4.94-2.21,7.09-3.08,2.13-.9,4.06-1.56,5.61-2.13,2.05-.91,2.08-.74,1.25-.14-.42.3-1.03.73-1.74,1.16-.71.4-1.49.83-2.18,1.22-1.39.77-2.43,1.37-1.89,1.22.27-.07.93-.33,2.13-.85.6-.26,1.34-.59,2.24-.98.88-.43,1.9-.97,3.09-1.59,3.05-1.73,5.87-3.3,8.18-4.77,2.26-1.55,4.07-2.87,5.26-3.81,2.39-1.88,2.29-2.26-1.7-.17,1.62-1.06,3.26-2.12,4.92-3.2,1.63-1.12,3.2-2.37,4.83-3.56,1.62-1.21,3.25-2.42,4.89-3.65,1.62-1.25,3.2-2.58,4.8-3.9,6.33-5.33,12.48-11.04,18.77-16.53,6.28-5.51,12.76-10.75,19.65-15.09,3.45-2.15,7-4.03,10.62-5.64,3.66-1.5,7.33-2.84,11.19-3.73-1.16.49-2.36.91-3.48,1.46-1.12.54-2.25,1.05-3.34,1.61,9.15-2.78,18.94-4.17,27.82-5.86,4.42-.82,8.61-1.75,12.34-2.76,1.87-.54,3.62-1.01,5.24-1.6,1.62-.55,3.1-1.07,4.42-1.67,2.98-.51,4.52-1.36,1.48.27,6.79-1.78,12.24-4.59,16.62-8.14,4.39-3.54,7.78-7.73,10.56-12.73,2.77-5.02,4.91-10.88,6.57-18.16,1.66-7.29,2.68-16.04,3.27-26.98-.8,1.21-1.32,6.71-2.33,13.61-1,6.88-2.55,15.18-5.01,21.83-.02-.67-.02-1.33-.06-1.99l-.17-1.98c-1.53,4.43-3.55,8.8-6.22,12.81-2.67,4-6.06,7.58-9.97,10.47-3.89,2.91-8.26,5.2-12.82,6.84-4.57,1.64-9.26,2.8-13.94,3.74-9.36,1.83-18.61,2.88-27.17,4.81-4.29.91-8.35,2.17-12.17,3.59-1.87.81-3.74,1.51-5.47,2.44-.87.45-1.75.85-2.59,1.32-.83.48-1.65.95-2.46,1.42,3.8-2.61,7.89-4.79,12.17-6.63-1.62.33-3.04.82-4.38,1.24-1.35.4-2.53.89-3.63,1.35-2.21.87-3.93,1.84-5.42,2.66-2.93,1.73-4.76,3.17-6.48,4.64-3.45,2.96-6.67,5.67-16.79,12.77-6.66,6.25-4.04,4.22-1.01,1.83,3.04-2.39,6.56-5.04,1.58-.32-9.96,8.18.6-4.28-15.59,9.98,7.53-6.73,14.99-13.91,23.3-20.47,4.16-3.27,8.5-6.41,13.18-9.13,4.67-2.72,9.67-5.04,14.9-6.75,10.48-3.45,21.42-4.55,32.04-6.28,5.32-.86,10.59-1.87,15.67-3.4,5.07-1.53,9.93-3.61,14.23-6.54,4.3-2.92,7.97-6.69,10.86-11.03,2.9-4.35,5.01-9.23,6.55-14.31,3.08-10.2,3.95-21.08,4.29-31.89.53-21.73-.1-43.42-3.95-64.04-.6-1.51.15,2.84.66,7.19-.8-3.53-1.98-10.23-4.3-19-2.39-8.72-5.96-19.63-12.47-30.57-3.23-5.47-7.31-10.85-12.2-15.79-4.86-5-10.72-9.29-17.22-12.94-6.51-3.65-13.68-6.63-21.05-9.45-7.37-2.83-14.96-5.53-22.38-8.76-7.41-3.22-14.68-7.04-21-12.07-.77-.65-1.54-1.29-2.31-1.94-.77-.64-1.55-1.27-2.23-2.01-.7-.71-1.4-1.42-2.1-2.13l-1.05-1.06-.96-1.13c-2.57-3-4.79-6.18-6.76-9.38-3.94-6.4-7.09-12.81-10.43-18.58-1.66-2.89-3.35-5.64-5.17-8.14-.87-1.28-1.85-2.44-2.76-3.62-.99-1.1-1.89-2.25-2.95-3.21-.51-.5-1.01-.99-1.51-1.48-.5-.49-.98-.98-1.53-1.4-1.06-.86-2.1-1.7-3.12-2.53-1.08-.74-2.14-1.45-3.17-2.15-1.02-.71-2.12-1.24-3.13-1.84-.51-.29-1.02-.57-1.52-.86-.52-.24-1.03-.48-1.53-.72-1.01-.47-1.97-.94-2.92-1.35-.97-.37-1.9-.73-2.8-1.07-.89-.35-1.76-.66-2.61-.9-3.35-1.09-6.17-1.67-8.23-2.07-2.09-.3-3.44-.39-3.95-.24-1.94-.78.37-.56,1.05-.64.66-.03-.26-.66-9.01-2.12-1.64,0-6.19-.2-2.15.98-10.98-2.21-23.27-3.15-36.25-3.92-12.96-.79-26.56-1.52-40.45-2.12-13.89-.53-28.07-1.04-42.21-1.67-14.14-.53-28.23-1.08-41.95-1.91,1.2.75-10.94.73-11.16,1.26-9.4-1.03-22.16-1.29-34.76-1.45-12.6-.22-25.06-.06-33.89-.66l5.7.89-27.76-.33-27.76-.08c-1.64.3,5.89.32,10.34.44-12.12.36-14.81-.56-16-1.27-8.23.59-16.46,1.1-24.69,1.8-9.05-.29-18.37-.47-27.93-.55-4.78-.03-9.61-.08-14.5-.04-4.89.07-9.83.14-14.81.21-9.97.18-20.12.42-30.4.7-10.28.41-20.69.82-31.18,1.24-5.25.22-10.52.44-15.8.66-5.28.26-10.58.53-15.88.79-10.61.51-21.26,1.02-31.9,1.53-10.64.54-21.26,1.1-31.83,1.55-10.57.42-21.08.84-31.48,1.25-6.2,1.06-11.97,1.9-18.81,2.65-6.84.76-14.77,1.35-25.27,2.2l10.34-.28c-21.3,2.63-1.29-.63-19.41,1.2-12.26,1.74-3.61,2.37,13.07.43,10.5-.25,4.07.68-3.4,1.54-66.63,4.26-128.62,8.87-182.72,11.94Z"/>
    <path class="cls-2" d="m175.15,402.47c-1.9.41-1.06.05,1.08-.76,1.06-.41,2.48-.93,3.99-1.6,1.51-.66,3.16-1.31,4.65-2.09,3.03-1.44,5.55-3.02,6.24-3.6.34-.3.22-.36-.55-.1-.39.13-.94.34-1.67.64-.73.3-1.65.7-2.82,1.11-.91.37-1.82.74-2.75,1.12-.92.38-1.89.68-2.85,1.02-1.91.69-3.89,1.32-5.82,1.85-3.87,1.1-7.67,2.01-11.28,3.04-3.59,1.03-7.02,2.17-10.01,3.71-.39.18-.75.39-1.11.59-.36.2-.73.4-1.07.64-.7.46-1.4.92-2.11,1.39-.66.54-1.32,1.08-1.99,1.62-.68.53-1.25,1.21-1.9,1.81-4.95,5.05-8.78,12.15-11.48,20.24-2.75,8.06-4.62,17.04-6.31,26.22-1.64,9.09-2.83,18.25-3.05,27.22-.09,4.48.05,8.9.52,13.18.51,4.26,1.31,8.41,2.59,12.23,2.49,7.7,6.89,13.97,12.87,18.2,5.86,4.24,13.99,6.67,22.09,10.32,4.29,2.08,7.87,4.25,10.8,6.58,2.93,2.35,5.25,4.75,7.11,7.33,3.69,5.16,6.23,10.87,7.69,19.35.29.27.59.26.68-.61,1.01,4.83,1.59,10.31,1.98,15.97.41,5.65.66,11.5,1.27,17.1.6,5.59,1.59,10.94,3.3,15.45.84,2.26,1.82,4.33,2.97,6.14,1.13,1.83,2.36,3.46,3.68,4.88,1.64,1.48,3.4,2.4,3.81,2.36.45-.06-.61-.9-3.55-3.7,4.06,3.94,8.87,6.88,13.76,9.32,4.9,2.43,9.83,4.43,14.58,6.2,9.54,3.55,17.83,6.41,25.35,7.82-3.16-.93-3.91-1.32-3.52-1.36.38-.03,1.93.21,3.39.44,2.93.46,5.53.85-2.03-1.27,6.89,1.61,11.83,3.09,15.78,4.23,3.94,1.17,6.81,2.36,9.53,3.35,2.72,1.02,5.26,2.03,8.51,3.08,3.25,1.02,7.23,1.98,12.79,3.03,1.38-.11,2.79-.16-1.7-1,3,.74,6.46,1.32,10.16,1.97,3.71.66,7.71,1.2,11.83,1.75,4.12.57,8.37,1.02,12.6,1.48,4.23.48,8.44.85,12.48,1.24,16.17,1.5,29.63,2.57,30.87,4.05l10.06-.34c10.79,1.72,8.05,2.12,26.13,3.88,11.84.5-.38-1.04,3.97-1.12,1.22.37,4.13.77,8.01,1.22,3.88.46,8.75.97,13.91,1.52,5.16.55,10.62,1.12,15.67,1.76,5.05.66,9.7,1.36,13.26,2.08.34.89-6.02-.28-14.26-1.66-8.25-1.31-18.4-2.79-25.61-2.64-.49.3,1.58.58,4.5.87-18.75-1.71-36.38-3.32-53.21-5.17-16.83-1.84-32.85-3.88-48.37-6.22-31.05-4.7-60.08-10.43-89.66-18.23-6.24-2.57-11.98-4.23-16.68-5.63-4.71-1.39-8.53-2.41-11.37-3.18,2.3,1.33,5.85,3.07,10.02,4.72,4.14,1.7,8.95,3.21,13.42,4.62,4.46,1.46,8.73,2.45,11.91,3.11,1.59.32,2.92.53,3.9.59.98.05,1.6-.06,1.76-.33l9.15,3.01c3.06.99,6.15,1.86,9.23,2.8,1.79.35,3.1.77,4.1,1.19,1,.41,1.69.85,2.26,1.28,1.13.86,1.73,1.69,3.25,2.18-6.69-1.32-13.89-2.45-17.25-2.46-3.34-.06-2.82.91,6.15,3.26-8.86-1.76-12.46-3.03-13.43-3.71-.96-.7.73-.94,2.52-1.14,3.6-.4,7.65-.65-7.83-4.07l-4.91.47c3.03.32-2.07-1.43-9.11-3.72-3.5-1.21-7.51-2.48-11.24-3.68-3.72-1.23-7.13-2.44-9.54-3.29,1.25.66,2.54,1.26,3.82,1.87-4.92-1.88-9.85-4.08-14.45-6.98-4.6-2.89-8.83-6.58-12.01-11.16-3.14-4.61-5.18-10.01-6.35-15.66-1.2-5.66-1.69-11.54-2.06-17.51-.38-5.96-.62-12.04-1.43-18.15-.81-6.08-2.18-12.31-5.21-17.92-1.51-2.79-3.43-5.39-5.71-7.64-2.28-2.25-4.92-4.12-7.71-5.66-5.6-3.09-11.68-4.99-17.54-7.25-2.93-1.13-5.82-2.35-8.56-3.84-2.74-1.48-5.3-3.27-7.63-5.34-4.69-4.13-8.2-9.48-10.58-15.26-2.39-5.8-3.72-12.01-4.36-18.25-.66-6.25-.64-12.55-.27-18.79.79-12.49,3-24.75,5.56-36.68,1.34-5.95,2.96-11.79,5.13-17.38,2.18-5.56,4.86-10.92,8.48-15.54,4.41-3.84,9.81-8.27,16.88-11.15,3.5-1.5,7.34-2.74,11.31-3.99,3.97-1.26,8.09-2.49,12.08-4.17l2.98-1.26c.97-.47,1.93-.95,2.89-1.42.97-.45,1.89-.98,2.82-1.5.92-.53,1.86-1,2.74-1.57.89-.56,1.77-1.11,2.64-1.65.88-.53,1.69-1.16,2.53-1.72,1.69-1.12,3.24-2.37,4.79-3.53,6.11-4.79,11.04-9.73,15.13-13.54,3-4.34.38-1.59-1.45.15-.9.89-1.71,1.45-1.43.89.14-.28.52-.86,1.2-1.89.69-1.02,1.75-2.44,3.07-4.53.34-.51.67-1,.97-1.46.29-.47.56-.91.81-1.32.51-.82.98-1.53,1.39-2.13.8-1.23,1.37-2.08,1.84-2.63.93-1.1,1.31-1.04,1.34-.77.62-1.38,1.21-2.79,1.81-4.19.52-1.43,1.05-2.88,1.58-4.33,1.61-1.32,2.66-1.22,3.01.63.3,1.85-.06,5.74-2.15,11.62-.54,1.46-1.13,3.08-1.96,4.76-.4.85-.81,1.74-1.26,2.65-.49.89-1.01,1.82-1.54,2.78-2.21,3.81-5.03,8.09-8.88,12.47-3.83,4.39-8.61,8.98-14.61,13.33-1.5,1.09-3.11,2.11-4.74,3.2-1.7.98-3.4,2.06-5.24,3-1.84.94-3.72,1.93-5.74,2.77-1.99.9-4.07,1.73-6.11,2.46Z"/>
  </g>
  <g>
    <path class="cls-2" d="m305.85,442.83c-.62-3.25-.28-10.24,1.2-9.96-1.49-.28-1.5-.28-2.1-5.13.99.2,1.16-4.08,1.36-6.79-.94,2.16-1.41,5.21-2.24,11.34,1.62,5.8-2.72,17.16-.74,22.62.82-3.77,2.69-7.34,2.53-12.07Z"/>
    <path class="cls-2" d="m314.92,418.4l-.51-.89-.07,9.76c-.28-2.01-.17-8.64.58-8.87Z"/>
    <path class="cls-2" d="m325.5,390.44c-.17.69.95.63,2.13.6,1.18-.03,2.44-.06,2.57.43-.96-2.04,7.1-3.04,11.05-4.56l1.12-2.13c-1.09,0-2.5.27-4.17.67-.83.21-1.72.45-2.66.72-.93.29-1.9.62-2.91.96-2.01.69-4.16,1.43-6.33,2.38-2.17.95-4.35,2.11-6.23,3.65,1.72-1.2,3.57-2.06,5.42-2.72Z"/>
    <path class="cls-2" d="m333.44,388.74l2.28-1.96c-2.12,1.05-7.15,3.01-2.28,1.96Z"/>
    <path class="cls-2" d="m325.58,385.24c-1.8.71-2.45,1.08-2.46,1.15-.02.08.58-.08,1.17-.21.59-.13,1.17-.22,1.17-.08,0,.15-.57.48-2.33,1.44,2.3-1.46,4.99-2.51,2.45-2.3Z"/>
    <path class="cls-2" d="m354.75,379.59c-4.73,1.47-9.4,3.12-14.02,4.84l6.06-1.07c2.63-1.27,5.27-2.59,7.96-3.78Z"/>
    <path class="cls-2" d="m356.43,382.91c-1.85.46-4.94.6-2.43-.65,2.72.01,4.73-.67,6.73-1.28,1.99-.63,3.94-1.28,6.45-1.2-1.48.5-2.96,1-4.43,1.55.9,1.19,9.22-3.43,9.47-.87,5.88-2.88-5.13-1.25,2.74-3.97-7.58,1.79-13.28,2.52-19.73,3.69,1.96.04,2.68-.27,5.38-.45-2.26.53-4.84,1.44-7.51,2.34-2.66.97-5.41,1.93-7.96,2.82,1.63.35,3.29-.09,5.13-.65.92-.28,1.88-.6,2.9-.86,1.03-.24,2.11-.43,3.26-.48Z"/>
    <path class="cls-2" d="m379.33,378.57c2.46-.35,5.58-.71,8.23-1.29,2.65-.53,4.83-1.23,5.4-2.26-2.69-.37-4.23-.13-5.36.34-1.14.49-1.88,1.2-2.99,1.75-1.54-.14-6.48.52-4.64-.78.78.29-2.96,1.88-.63,2.24Z"/>
    <path class="cls-2" d="m398.68,376.55c1.15-.69,2.32-1.3,3.48-1.96l-2.31.45-.37-1.19c-.39.35-1.95,2.67-6.89,3.04,2.66.63,3.43-.51,6.08-.34Z"/>
    <path class="cls-2" d="m399.21,368.1c3.52.6,5.49-.07,9.45-.71-2.77.18-6.11.44-8.96.74-2.85.32-5.21.72-6,1.14l.4-.34s-1.28.33-2.98.9c-1.7.57-3.84,1.3-5.57,2.16,5.41-1.95,15.55-1.02,13.66-3.89Z"/>
    <path class="cls-2" d="m392.14,368.61c1.3-.48,2.62-.91,3.94-1.36-1.32.46-2.63.88-3.94,1.36Z"/>
    <path class="cls-2" d="m413.97,375.33c-2.54-.15-5.07-.19-7.62-.27l1.88.43c1.91-.09,3.82-.15,5.73-.16Z"/>
    <path class="cls-2" d="m404.61,370.6c6.23-.07-3.47-1.18,2.39-1.42,1.58-.31-8.61.55-9,1.45,1.54.15,5.88-1.39,6.61-.03Z"/>
    <path class="cls-2" d="m418.93,375.39c2.08-.42,4.17-.87,6.27-1.24-2.1.37-4.19.82-6.27,1.24Z"/>
    <path class="cls-2" d="m434.22,376.93c.43-.24.87-.47,1.31-.7,2.81.86,6.1,1.66,8.9,3.09,2.79,1.42,5.05,3.46,5.79,5.54.05-.73.86-.75,1.26-1.02.38-.26.42-.9-1.5-2.72-.51,0-1.14-.29-1.65-.47-.51-.18-.94-.22-1.01.15-1.68-1.36-.94-1.75-2.09-2.78-.99-.19-2.02-.53-3.12-.85-1.1-.31-2.24-.66-3.38-.92-2.28-.55-4.54-.83-6.11-.57,1.52-.01,1.85.25,2.91.54-3.29.24-5.11-.41-6.56-.96-1.44-.53-2.47-.87-3.95.4,1.18-.37,2.77-.08,4.4.31,1.64.4,3.3.91,4.79.94Z"/>
    <path class="cls-2" d="m434.55,370.75c-1.88-.38-3.76-.65-5.62-.87.9-.56,2.64-.45,4.29-.26,1.65.17,3.2.46,3.78,0-.11-.38-1.63-.91-2.84-1.3-1.21-.38-2.12-.68-1.02-.81-.52,1.36-2.48,1.2-3.97,1.21-1.49,0-2.5.08-1.13,1.72-3.59.03-4.11-.36-4.7-.84-.59-.47-1.22-.94-4.96-.87-.7.5-1.39,1-2.09,1.52,4.14-.4,6.55-.28,9-.08,2.46.22,4.9.39,9.25.58Z"/>
    <path class="cls-2" d="m454.74,380.53c.49.87.87,1.81,1.27,2.69,0-.66-.02-1.34-.05-2.03,2.33,2.4,3.78,5.08,4.65,7.61.87,2.55,1.21,4.96,1.3,7.18.17,4.47-.4,8.01.21,11.5,1.2,4.38.57,8.86-.77,12.95-1.42,4.12-3.46,7.87-5.73,11.66-.69,2.15.01,1.37,1.01,0,.52-.66.99-1.54,1.45-2.21.42-.69.78-1.22.99-1.25.74,1.05-.02,1.96-.91,2.83-.88.89-1.94,1.72-1.72,3.12.26.35.8.08,1.52-.58.36-.33.77-.76,1.2-1.26.4-.53.84-1.12,1.29-1.76,1.75-2.58,3.23-6.01,4.24-7.93.37-1.82.35-2.75.21-3.37-.14-.62-.45-.94-.82-1.56,1.1-.73,1.74-4.38,2.67-5.29-.46-3.88-.41-6.77-.57-9.72-.18-2.92-.6-5.95-2.58-9.33.15-1.35.72-.02,1.13,1.37.37,1.39.57,2.79.29,1.54-.4-1.34-.88-2.67-1.42-3.97v.49c-1.64-2.43-3.46-5.99-5.63-9.18-2.13-3.2-4.6-6-5.95-7.46,1.12,1.05,1.81,2.2,1.92,2.74.1.56-.41.57-1.83-.38-.43-.94-.9-1.91-1.44-2.84-2.5-.88-5.07-1.35-7.53-1.55,2.81.32,5.38,2.1,7.19,3.66,1.86,1.55,3.09,2.86,4.42,2.31Z"/>
    <path class="cls-2" d="m449.45,373.33c-.5-.33-.95-.61-1.34-.85-.4-.22-.74-.38-1.04-.52-.59-.27-.99-.39-1.25-.43-.52-.05-.52.25-.55.53-.03.28-.09.55-.7.49-.61-.06-1.77-.48-4.08-1.29,3.32.83,6.67,2.17,9.7,4.07-.22-.67-.46-1.35-.75-2Z"/>
    <path class="cls-2" d="m465.27,410.94c-.34,1.38-.75,2.73-1.2,4.04.56-.5.81-1.31.93-2.16.1-.85.01-1.73-.08-2.39-.25-1.32-.48-1.79.35.51Z"/>
    <path class="cls-2" d="m462.64,425.98c-.31-.89-.69-1.77-1.07-2.62-.02,1.3-.12,2.61-.28,3.94.48-.42.89-.87,1.34-1.32Z"/>
    <path class="cls-2" d="m454.13,436.85c-.52,1.47-.11,1.63.7,1.03.8-.6,2.03-1.95,2.84-3.54-.45.66-.87,1.23-1.28,1.66-.43.42-.82.73-1.15.94-.66.41-1.08.38-1.11-.09Z"/>
    <path class="cls-2" d="m436.07,448.54c2.65-1.78,1.41-1.08-.12-.44-1.58.58-3.4,1.06-1.91-.8-.27,1.07-2.53,3.66,2.02,1.24Z"/>
    <path class="cls-2" d="m415.81,453.19c2.04-1.02,2.96-1.09,3.41-.76-1.53.56-2.82.86-3.41.76Z"/>
    <path class="cls-2" d="m459.46,399.48c-.19-.7-.44-1.45-.58-2.15.2.73.41,1.42.58,2.15Z"/>
    <path class="cls-2" d="m459.78,400.9c-.11-.47-.22-.95-.32-1.42.14.53.24,1.01.32,1.42Z"/>
    <path class="cls-2" d="m442.37,440.52s.01-.01.01-.01c.16-.06.3-.13.47-.18l-.49.19Z"/>
    <path class="cls-2" d="m318.8,399.7c-.39,1.11-.62,2.01-.83,2.74.2-.94.47-1.86.8-2.72.01-.02.02-.01.02-.02Z"/>
    <path class="cls-2" d="m315.27,402.27c.12-2.95,1.54-4.34,3.21-5.5.86-.58,1.81-1.12,2.95-1.8,1.14-.68,2.5-1.51,4.35-2.65-3.05,1.74-5.82,4.12-7.01,7.41-.88.88-1.25,1.2-1.45,1.11-.18-.07-.17-.5-.14-.86.03-.35.04-.64-.22-.44-.26.21-.84.91-1.69,2.73Z"/>
    <path class="cls-2" d="m382.57,373.05c.11-.04.2-.05.3-.1.54-.14.26-.04-.3.1Z"/>
    <polygon class="cls-2" points="304.36 520.32 303.85 520.28 304.41 515.33 304.36 520.32"/>
    <path class="cls-2" d="m303.45,521.02l-.83,8.4-1.12-49.67.72,1.6c.9-.7.43,41.15,1.22,39.67Z"/>
    <path class="cls-2" d="m304.29,523.4c2.17,4.79-.63,8.03.95,13.92-1.05-3.93-2.19-6.71-1.72-10.53l.77-3.39Z"/>
    <path class="cls-1" d="m308.59,539.89c-.38,2.66.56,5.82.27,7.32-1.62-.9-.45-5.04-.27-7.32Z"/>
    <path class="cls-2" d="m314.82,546.93c.04.41.04.82.03,1.23-.11-.48-.21-.93-.32-1.26l.29.03Z"/>
    <path class="cls-2" d="m314.53,546.9l-.72-.06c.27-.87.5-.63.72.06Z"/>
    <path class="cls-2" d="m314.85,548.16c.25,1.09.51,2.39.82,3.06l.09-1.14c.22,1.56.85,4.3.45,5.04.07-3.07-.43-3.11-1.45-3.19l-.05,4.99c-2.42-.9.06-4.32.14-8.76Z"/>
    <path class="cls-1" d="m315.7,563.91l-1.46-5.11c1.3-1.44,1.44,3.19,1.46,5.11Z"/>
    <path class="cls-2" d="m314.26,571.49c-.42-1.19-.37-6.18-.94-3.15-.28-.81-.24-1.78-.25-2.81.38,3.37,1.95.17,1.2,5.95Z"/>
    <path class="cls-2" d="m313.06,565.54c-.05-.4-.08-.85-.09-1.45.07.48.09.97.09,1.45Z"/>
    <path class="cls-1" d="m306.19,512.01c-.18.63-.35.61-.52.34l.52-.34Z"/>
    <path class="cls-2" d="m312.95,581.77v.72s-13.36.18-13.36.18v-1.21c0,.43.02.83.05,1.21l13.27-.18c-.01-.13-.02-.24-.03-.34l.07-.37Z"/>
    <path class="cls-2" d="m297.52,422.49c-.31,6.71-.65,13.08.41,22.75,1.72-.25.55,3.89,2.37,4.42-.4-10.03,1.71,37.79,2.33,29.77l-.83-2.38,1.84,2.46c-.37,4.82-1.7,11.42-.61,14.67-.55.91-.78-41-1.27-39.41,2.02-3.75,2.95,56.05,3.9,57.58l-1.08.68c1.29,7.41,2.95,12.16,3.82,18.39l-1.3,1.44c.36-4.59-.56-5.82-1.21-10.49.38,8.1-.41,9.58-.04,15.76,1.71-.25.75-5.32,1.84,2.45-.68,2.26-2.65-2.89-2.18,4.06-.32,8.43,2.19,6.7,2.46,14.04l.56-4.96c.13,2.7.58,7.74-.3,10.36.07-3.07-1.02-10.85-2.73-10.6.44,3.1-.1,9.99.03,12.69l-1.23-1.63c-1.08,2.99.65,4.66-.32,8.43.74,3.52,1.7-2.17,2.22-.21-.39.72-.91,7.37-.14,9.83h.44c-.01-.07-.03-.12-.04-.16-.07.04-.13.09-.19.16h.01c2.15-1.89-1.01-8.1,1.31-12.41l-.34,6.51c2.57,4.04-.21-10.4,1.83-8.32,2.57,4.65-1.94,9.79.7,14.16l-7.01.1c-.11-.18-.22-.36-.35-.54-.03.15-.06.31-.08.54l7.88-.11c.49-3.38.45-12.04,1.32-10.88-.88,3.41.94,5.81,1.34,10.5l-.07.35-13.08.18,1.07-5.35c-.81-2.4-.81-.46-1.31,1.43,1.37-8.37-.3-22.48,1.7-34.27-.24-7-1.09-.9-1.92-4.1,1.61-3.69.5-10.02.64-13.89.15-1.15-1.28-3.28-1.93-2.19l.68,9.8c-.79-.49-2.15.91-2.06,4.41,2.99-2.37-2.06,13.76,1.3,14.52l-1.51-.16c.31,4.17.6,8.35.95,12.52l.2-.37c-.25-.02,0,2.62.24,6.13.26,3.51.51,7.89.21,11.34-.5-1.98,0-13.55-1.61-6.73-.92-5.13.46-14.3-.08-23.66l-1.04,1.82c-1.35-9.87.8-22.85.87-33.74l1.29,3.28c.65-3.81,1.96-8.69.93-12.33-.12,4.65-.81,2.23-1.38,1.37-.52-6.32.76-15.5.71-24.1,0,0,.28.44.5.08-.12-3.01-.23-6.03-.31-9.04.51-4.23,1.4-5.64,2.52-8.19-.08-1.58.23-5.46-.7-4.04-.14.83-.27,1.66-.23,2.22-1.19-4.65.66-3.14.16-8.89.94,4.48,1.93-1.23,3.2-.61-.03-6.67-2.26-.8-2.8-1.67,1.39-8,2.61-8.94,3.57-17-.76-.54-1.04,5.68-2.01,6.29.42-2.28.57-4.99.31-5.44l-1.07,4.91c1.68-8.33,2.71-16.38,3.04-25.77l-.48.69.65-5.78,1.26,2.24c-.04-3.16,1.66-6.35.66-8.15l-.24,1.13-.04-3.96,1.03,4.18c.3-1.22.38-2.58.34-4.07-.02-1.5-.14-3.27-.08-5.42.09-2.15.34-4.73,1.47-7.68.56-1.46,1.37-3.01,2.42-4.44,1.04-1.43,2.27-2.71,3.58-3.76.88-.04.21.79-1.11,2.41-.66.81-1.47,1.87-2.26,3.12-.79,1.26-1.49,2.67-2.02,4.08-1.07,2.84-1.46,5.52-1.51,7.44-.03,1.94.25,3.19.86,3.54.37-1.35.84-3.34,1.36-5.36.51-2.01,1.18-4.04,1.36-5.26-.87.12-1.96,2.82-2.45,5.21.15-2.25.83-5.09,2.54-7.99.85-1.45,1.96-2.83,3.14-3.98,1.18-1.16,2.44-2.12,3.65-2.92,2.44-1.58,4.69-2.58,6.5-3.48,1.83-.9,3.19-1.69,4.08-2.61-1.79.33-3.73.73-5.87,1.37,3.54-1.67,6.03-1.77,8.2-2.06,2.13-.27,3.71-.45,4.49-1.49-1.33,1.33-2.63,2.69-3.91,4.07,5.66-3.36,13.68-5.54,19.28-8.03-.25-1.51-8.43,2.4-8.08,2.03.82-.62,1.64-1.27,2.47-1.87,4.69-.85,5.4-.82,6.35-.81.96.02,2.14-.12,7.8-.98l-.13-1.01c4.03.55,13.5-4.23,10.24-.87-1.06-.03-2.11,0-3.16,0l.5,1.13c4.24-1.15,8.52-2.18,12.82-3.12-1.13,1.06,5.12-.1,3.6,1.34,1.55-.57,3.1-1.17,4.66-1.7,2.38,1.41-8.54,3.19-8.81,4.64.29.76,2.49.29,3.57.05-2.76,1.03-4.93.98-7.15.72-2.21-.19-4.47-.59-7.3-.04l-2.58,1.65-.16-1.51c-2.29.74-4.06,2.21-4.75,2.97-6.01-.72-11.34,3.18-19.6,5.27,3.27-1.44,2.09-1.46.2-1.2-1.89.25-4.45.87-3.94.48-.93.31-2.17.86-3.52,1.56-1.36.71-2.85,1.53-4.34,2.28-3.01,1.5-6.14,3.11-8.29,3.38-1.36.41-.28-.59.47-1.25.37-.33.64-.58.46-.59-.19.01-.84.21-2.35,1.05-1.87,1.28-3.25,2.88-3.73,3.87-.48,1.01-.21,1.22,1.07.41-.85.94-1.67,2.01-2.34,3.17-.67,1.16-1.21,2.37-1.63,3.58-.84,2.43-1.24,4.84-1.55,7.1-.56,4.42-1.09,8.74-1.55,12.99l-.77-2.12c-1.41,5.21-.56,10.5.24,13.39-.48.69-.22,1.13-.73.25-2.3,6.6,1.2,8.85-.14,19.91,1.47-.51,2.04-5.47,1.67-9.05l1.52,1.06c.94-9.58,1.68-20.37,1.62-28.23l.78,3.69c2.9-6.45-1.55-5.04,1.62-11.03.03-2.35-.29-1.56-.65-.59-.35.96-.72,2.07-.84.26.45-1.64,1.12-1.32,1.78-1.29.68.05,1.24-.25,1.89-2.76-.51,2.37-.68,4.95-.91,7.64-.23,2.67-.47,5.37-.71,8.1-.48,5.46-.97,11.02-1.47,16.62-.99,11.19-1.89,22.51-2.54,33.37.27.44.46-.7.65-1.83.79,3.82-1.31,20.7-2.71,36.97-1.44,16.26-2.18,31.89-.09,32.91-.64,1.07-1.24-2.46-1.28,2.16.29.43.66,1.62,1.3.54-2.54,11.65-.26,27.29-1.63,41.36.52-.24.88,1.4,1.23,2.28l-7.09.1c-.13-.32-.26-.54-.39-.55,1.57-4.87-.33-13.09.53-17.64l-.79,1.48-.24-14.26c-.31-.42-.29,1.52-.38,2.66-.44-3.1.47-3.81,1.17-4.13l-1.88-6.31c2.64-18.63-2.34-41.72-.83-63.13-1.45-3.19-2.08-5.93-2.34-11.34l-.38,2.66c-1.27-5.49.7-.33.05-5-.94-3.16-2.13-.93-1.28,3.36-.43,2.7-.94,1.05-1.32-.88-.14-17.16.53-33.16,2.87-47.1Z"/>
    <path class="cls-2" d="m358.01,458.7c1,.21-.88.58-2.4,1.01-1.53.43-2.7.94-.28,1.32,7.52.41,17.01-.27,26.56-1.21,9.55-.96,19.15-2.31,27.11-3.3,4.42-.05,5.53-.41,9.4-1.09,0-.24-.1-.52-.36-.71,1.03-.36,2.21-.81,3.46-1.29,1.23-.53,2.53-1.1,3.84-1.66,1.27-.62,2.57-1.18,3.78-1.74,1.19-.58,2.35-1.05,3.36-1.45.91-.89,1.09-2.28-.75-.86,2.52-2.05,5.08-3.1,7.31-4.17,2.26-1.01,4.16-2.03,5.2-3.56-1.39.79-.98.07-.65-.57.31-.67.59-1.23-.9-.19,1.15-1.15,2.11-1.85,3.04-2.27.87-.47,1.7-.68,2.52-.87,1.68-.34,3.23-.67,5.05-2.77-.08-.45-.15-.89-.82-.03.58-.5,1.14-1.14,1.71-1.86.28-.36.57-.74.85-1.14.24-.41.49-.83.74-1.25.94-1.74,1.68-3.72,2.24-5.57,1.11-3.72,1.53-6.9,2.94-7.06-.28-.87-.54-1.72-.87-2.55.54-1.27.94-1.76,1.26-2.48.33-.72.61-1.68.65-3.97-.66-2.91-.98.19-1.48-.84.48-.65.45-2.93.08-5.47-.33-2.56-1-5.34-1.03-7.33.75-.44.9,1.33.97,3.52.1,2.2.02,4.75,1.03,6.4.35.06.38-.47.3-1.21.72,4.71.4,9.26-.62,13.35-1,4.1-2.67,7.76-4.66,10.94-1.03,1.59-2.05,3.03-3.28,4.44-.61.7-1.11,1.45-1.76,2.1-.62.67-1.22,1.34-1.81,2.01-2.5,2.6-4.99,5.1-7.63,7.7-1.64.55-2.78,1.38-3.58,2.33-.84.91-1.34,1.94-1.62,2.86.64-.27,1.56-.69,2.58-1.2,1-.53,2.04-1.22,2.99-1.9,1.84-1.42,3.1-3.02,2.36-3.94l2.19-1.08c.74-.37,1.49-.74,2.18-1.17,1.08-1.42,2.91.17,3.75-.2-1.27,1.21-2.05,3.02-2.22,4.05-.06.53.08.91.49.97.4.05,1.14-.16,2.11-.97-.75.96-1.45,1.48-1.94,1.83-.5.34-.87.43-1.13.37-.52-.12-.66-.87-.78-1.62-.25-1.51-.4-2.99-3.03,0l.28,2.06c.27-.86-1.05-.26-2.63.77-1.64.96-3.54,2.38-4.49,3.31l1.09-.33c-9.02,5.92-20.74,10.82-33.27,13.83-12.54,3.01-25.76,4.45-37.68,5.92-3.14-1.85-7.51-1.04-11.8-.03-4.3,1-8.46,2.2-11.51.97-2.52,1.03,3.98.86-.94,2.25-2.45.71-2.88-.32-2.83-.67-.73.26-1.47.52-2.22.79-1.33-1.86-1.16-3.92,1.49-6.28,2.63-2.35,7.8-4.93,16.06-7.28Z"/>
  </g>
  <g>
    <path class="cls-2" d="m472.13,512.92c.44,1.73-.13,5.08-1.57,4.61q1.44.47,1.86,2.97c-.95-.31-1.27,1.75-1.51,3.04.96-.87,1.49-2.26,2.53-5.07-.69-1.6.15-3.54.95-5.46.83-1.91,1.64-3.8.86-5.36-1.03,1.62-3.05,2.91-3.12,5.26Z"/>
    <path class="cls-2" d="m462.47,523.04l.48.55c.1-1.62.18-3.25.32-4.87.19,1.06-.07,4.36-.8,4.32Z"/>
    <path class="cls-2" d="m460.62,538.36c-.53-.27-1.01.17-1.49.69-.46.52-.91,1.13-1.41,1.09,1.12,0,1.18.98,1.11,2.25-.07,1.26-.17,2.92.29,3.97.63.13,1.24.24,1.88.3.27-1.12.02-2.71,0-4.66-.05-1.93.09-4.2.57-6.27-.35.86-.66,1.74-.94,2.62Z"/>
    <path class="cls-2" d="m459.22,542.19c.38.45.79.87,1.2,1.26-.45-1.03-.61-3.72-1.2-1.26Z"/>
    <path class="cls-2" d="m465.25,539.66c.2-1.36-.02-.98-.3-.58-.28.39-.64.81-.67-.67.16,1.03.2,2.08.97,1.25Z"/>
    <path class="cls-2" d="m465.44,550.8c-1.64-1.32-2.99-3.02-3.87-5.04-.01.48.06.93.09,1.42l.26,1.43c1.13.93,2.26,1.68,3.51,2.18Z"/>
    <path class="cls-2" d="m463.11,553.63c-.35-.38-.69-.96-.73-1.37-.03-.43.17-.61.85-.29.38,1.43,1.33,2.1,2.26,2.61.94.52,1.86.91,2.65,2.02-.78-.23-1.56-.49-2.34-.8-.29.69,1.02,1.12,2.18,1.51,1.16.41,2.22.78,1.64,1.9,1.88-.11,1.49-.89,1.25-1.51-.24-.66-.38-1.1,1.68-.93-1.81-.48-3.26-1.25-4.47-2.18-1.23-.91-2.19-2.01-3.05-3.2.09.5.26.78.46,1.07.21.29.42.65.81,1.18-.9-.63-1.98-1.35-3.04-2.25-.49-.48-1.05-.94-1.47-1.5-.22-.28-.46-.55-.65-.84-.18-.3-.36-.6-.52-.9-.21.5-.24.98-.12,1.43.14.44.4.85.69,1.27.63.82,1.41,1.58,1.92,2.76Z"/>
    <path class="cls-2" d="m473.41,560.05c2.36,1.02,6.16,2,7.22.26-2.2-1.9-3-.48-4.38-.05-.65-.5-2.96-1.43-1.68-2.04.22.52-1.98.76-1.15,1.83Z"/>
    <path class="cls-2" d="m482.89,562.91l2.1-1.31-1.19.05.11-1.21c-.26.25-1.54,2.27-3.97,1.57,1.07,1.2,1.75.21,2.95.89Z"/>
    <path class="cls-2" d="m485.16,554.83c1.45,1.14,2.49.84,4.44.75-2.61-.35-6.29-1.13-7.11-.62l.26-.25s-.62.09-1.48.26c-.86.18-1.95.43-2.91.77,1.38-.22,3.06.35,4.45.56,1.36.22,2.45.09,2.36-1.47Z"/>
    <path class="cls-2" d="m482.02,554.01l1.98-.57-1.98.57Z"/>
    <path class="cls-2" d="m490.46,564.01c-1.2-.4-2.4-.85-3.6-1.27l.8.69c.93.2,1.86.41,2.79.59Z"/>
    <path class="cls-2" d="m487.04,558.12c2.89.83-1.34-1.63,1.41-1.04.78-.04-4.06-.76-4.44-.02.66.45,3-.39,3.03,1.06Z"/>
    <path class="cls-2" d="m492.86,564.59l3.28-.69-3.28.69Z"/>
    <path class="cls-2" d="m500.37,566.75l.75-.79c2.84,1.27,7.05.61,8.93,2.88-.34-1.18,1.58-2.09-.98-2.83-.49.53-1.43.37-1.39,1.1-1.08-.39-.73-1.15-1.42-1.57-2.08.69-4.92-.57-6.6.05.79-.06.93.17,1.47.37-3.53.99-3.44-2.87-5.32-.58,1.29-.55,2.98,1.48,4.57,1.37Z"/>
    <path class="cls-2" d="m501.14,560.63l-2.53-.77c1.01-1.05,3.17.48,3.78-.54-.04-.73-2.55-1.49-1.52-1.82-.79,2.73-3.55-.45-2.75,2.88-3.41-.26-.73-1.89-4.27-2.39l-1.27,1.29c4.06-.02,4.5,1.43,8.57,1.35Z"/>
    <path class="cls-2" d="m511.09,562.67l1.13,1.11-.49-1.41c2.91.31,5.03,1.91,6.89,3.41,1.86,1.49,3.47,2.85,5.28,2.7,2.32-.6,4.42-.16,6.52.48,2.1.65,4.21,1.46,6.49,1.53,2.31-.93-2.06-.87-2.22-1.59.85-2.16,2.03,1.37,3.23-.35.44-1.59-4.45-2.15-6.27-3.36-1.7.04-1.73.55-2.34,1.4-.33-.94-2-1.4-2.32-2.35-3.64.83-5.16-1.76-8.76-.86-.9-1.36,2.59.11,1.48-.22l-1.87-.23.17.23c-2.71.89-7.24-.92-8.74-2.01,1.21.61,1.95,1.76.38,1.91l-1.02-1.61-3.59,1.55c2.7-.98,5.15,2.2,6.03-.32Z"/>
    <path class="cls-2" d="m507.88,559.57c-3.74-1.35.12,2.19-4.01.84,1.49.22,2.99.38,4.49.57l-.48-1.41Z"/>
    <path class="cls-2" d="m525.96,565.65l1.82,1.19c-.82-2.09-4.17.18-1.82-1.19Z"/>
    <polygon class="cls-2" points="533.1 566.43 531.88 568.14 533.81 567.31 533.1 566.43"/>
    <path class="cls-2" d="m539.41,569.27c1.54-.79-.13-1.73-1.84-1.66,1.51.22,2.23,1.09,1.84,1.66Z"/>
    <path class="cls-2" d="m549.97,573.65c-3.33-.21,2.92.65.42,2.14.49-.75,2.24-1.68-.42-2.14Z"/>
    <path class="cls-2" d="m560.54,578.61c-1.23.29-1.71-.06-1.85-.51.88.08,1.58.22,1.85.51Z"/>
    <path class="cls-2" d="m519.48,569.29c-.38-.04-.79-.09-1.15-.2.39.07.76.13,1.15.2Z"/>
    <path class="cls-2" d="m520.23,569.41c-.25-.04-.5-.08-.75-.13.28.03.54.08.75.13Z"/>
    <path class="cls-2" d="m544.49,575.88s-.01,0-.01,0c-.08-.07-.16-.11-.25-.2l.26.19Z"/>
    <path class="cls-2" d="m459.25,532.2c.06-.66.15-1.16.26-1.54-.08.51-.16,1.02-.24,1.53,0,0,0,0-.02.01Z"/>
    <path class="cls-2" d="m462.15,531.07c.24,1.45-.58,1.97-1.5,2.73-.9.75-1.93,1.77-1.8,4.08-.03-1.84.15-3.76.42-5.69,2.37-2.04.49,2.11,2.88-1.12Z"/>
    <path class="cls-2" d="m476.82,555.96c.06,0,.1,0,.15,0,.26.01.12.03-.15,0Z"/>
    <polygon class="cls-2" points="501.31 418.33 500.86 418.09 502.51 416.19 501.31 418.33"/>
    <path class="cls-2" d="m500.34,418.24l-2.69,3.3c1.76-3.7,3.5-7.41,5.31-11.09,1.85-3.66,3.62-7.36,5.55-10.97l.24,1.03c.25.03-.26,1.16-1.11,2.83-.83,1.69-2.02,3.92-3.21,6.14-2.39,4.44-4.6,8.91-4.09,8.75Z"/>
    <path class="cls-2" d="m500.53,419.64c.82,3.03-2.41,3.23-2.31,6.5-.06-2.18-.48-3.91.83-5.37l1.48-1.13Z"/>
    <path class="cls-1" d="m500.66,428.73c-.93,1-.79,2.78-1.38,3.31-1.27-1.08.72-2.39,1.38-3.31Z"/>
    <path class="cls-2" d="m504.73,434.45c-.06.2-.14.37-.24.55.01-.25,0-.49-.01-.68l.25.13Z"/>
    <path class="cls-2" d="m504.48,434.32l-.64-.33c.43-.26.59-.06.64.33Z"/>
    <path class="cls-2" d="m504.49,434.99c-.02.58-.06,1.25.08,1.67l.32-.46c-.13.77-.14,2.23-.66,2.38.72-1.31.27-1.54-.63-1.99l-1.11,2.15c-2-1.4.96-1.87,2-3.75Z"/>
    <path class="cls-1" d="m501.89,442.2l-.25-2.83c1.48-.08.63,1.99.25,2.83Z"/>
    <path class="cls-2" d="m498.97,444.91c-.13-.69.98-2.85-.19-1.76-.09-.47.16-.88.37-1.33-.37,1.63,1.74.87-.18,3.09Z"/>
    <path class="cls-2" d="m499.15,441.82c.04-.19.1-.41.22-.67-.04.24-.13.46-.22.67Z"/>
    <path class="cls-1" d="m504.87,415.55c-.3.19-.45.1-.54-.09l.54.09Z"/>
    <path class="cls-2" d="m495.66,448.92l-.38.86c.11-.25.17-.49.23-.72l.14-.14Z"/>
    <path class="cls-2" d="m519.86,373.21c-2.04,2.67-4.06,5.17-5.69,9.79,1.55.76-.53,1.93.91,3.07,1.12-2.23-.95,1.99-2.96,6.37-1.95,4.41-3.81,9-2.54,7.43l-.14-1.42,1,1.93c-1.54,1.86-4.31,4.09-4.12,6.01-.36.06,1.93-4.46,4.32-8.87,2.33-4.45,4.82-8.77,4.39-8.56.68-.15.28,1.35-.69,3.7-.98,2.34-2.43,5.58-4,8.84-3.07,6.56-6.28,13.4-6.01,13.96l-1.13-.19c-.57,3.81-.21,6.59-.82,9.68l-1.49.06c1.34-1.85.81-2.78,1.31-5.1-1.55,3.68-2.56,4-3.62,6.86,1.6.63,1.87-2,1.11,1.87-1.12.69-1.75-2.41-2.88.84-2.19,3.56.5,3.88-.84,7.22l1.57-1.95c-.47,1.25-1.13,3.65-2.5,4.44.72-1.32,1.41-5.21-.2-5.82-.27,1.56-2.25,4.38-2.72,5.63l-.76-1.23c-1.63.89-.43,2.33-2.11,3.62-.06,1.88,2-.28,2.07.81-.51.17-2.44,3.03-2.17,4.42,2.66.24.87-4,3.98-5l-1.67,2.76c1.5,2.83,1.98-4.71,3.42-2.95,1.4,3.21-4.25,3.6-2.09,6.94,1.15-1.11,3.05-5.41,3.64-4.5-1.51,1.15-.34,2.95-.93,5.18l-2.16,2.09c.27,1.38.65.52,1.49-.12-1.49,1.58-2.45,4.13-3.52,6.86-1.08,2.73-2.28,5.63-4.12,7.99-.88,3.3.88.8,1.16,2.55-2.07,1.14-2.01,4.43-2.65,6.19-.29.49.77,1.95,1.53,1.66.23-1.59.47-3.17.75-4.75.67.5,2.16.32,2.59-1.32-3.16.03,4.04-5.54,1.08-7.06l1.38.62,1.3-5.96-.26.09c.45.21.94-5.12,2.87-7.93.08,1.07-2.64,5.97.18,3.6-.16,2.6-3.05,6.18-4.14,10.59l1.28-.44c-.21,2.45-1.26,4.97-2.51,7.5-1.26,2.52-2.6,5.08-3.32,7.59l-.78-1.94c-1.12,1.55-3.01,3.4-2.48,5.43.7-2.13,1.05-.78,1.48-.2-.32,3.08-2.52,7.01-3.34,11.08,0,0-.22-.28-.47-.18-.19,1.45-.35,2.92-.52,4.37-.84,1.87-1.83,2.29-3.1,3.21-.05.78-.64,2.55.36,2.12.2-.36.39-.72.4-1,.79,2.53-.9,1.32-.79,4.21-.62-2.4-1.94.1-3.12-.52-.38,3.24,2.13.96,2.59,1.52-1.83,3.5-3.09,3.65-4.4,7.35.7.44,1.28-2.52,2.26-2.57-.53,1-.81,2.28-.57,2.56.41-.71.84-1.42,1.28-2.12-2.06,3.62-3.35,7.32-3.92,11.83l.48-.24-.74,2.69-1.2-1.36c0,1.56-1.71,2.79-.75,3.87l.24-.51v1.95s-.96-2.25-.96-2.25c-1.19,2.11.79,6.38,0,9.31-1.06.15-1.02-1.18-.86-2.92.14-1.71.37-3.82-.84-4.37-.37.57-.8,1.37-1.07,2.14-.27.76-.37,1.47-.11,1.91.72.02.94-.83,1.17-1.71.26,1.79-.4,3.64-.74,5.22-.36,1.58-.4,2.93.76,3.57.29-.53.58-1.04.92-1.6.04,1.01-.57,1.67-1.02,2.26-.43.56-.67,1.02.11,1.11-.92-.19-1.83-.56-2.73-1.05.69,1.02,1.14,1.91,1.63,2.62.54.7,1.07,1.32,1.9,1.52.29-.23.38-.44.34-.61-.02-.08-.07-.16-.15-.23-.06-.08-.13-.15-.21-.21-.38-.23-.79-.52-.65-.53.43.01.77.03,1.2-.03.02.21,0,.4,0,.57.02.15.03.28.02.39,0,.22-.07.37-.08.52.02.3-.16.64.85,1.99l.63-.79c-.03.46.22.79.62,1,.36.23.88.34,1.29.44.83.2,1.41.37.2,1.3-.26-.34-.46-.7-.66-1.05l-.5,1.11c1.5.5,3.16.89,4.9,1.18-.8.7,1.79,1.24.78,2.18.77-.15,1.52-.3,2.29-.48.25.95-.83,1.23-2.03,1.36-1.21.14-2.53.12-2.85.7-.2.78.82,1,1.33,1.05-1.45.22-2.26-.53-2.92-1.43-.66-.91-1.18-1.96-2.18-2.5-.5.14-1.02.27-1.55.4l.82-1.27c-.9-.22-2.12.17-2.74.43-.31-1.49-1.08-2.09-2.09-2.8-1.01-.68-2.12-1.67-2.45-3.25.42.55.68.66.85.56.15-.09.22-.4.25-.74.07-.68.14-1.57.38-1.42-.13-.59-.94-1.65-1.35-2.99-.43-1.31-.45-2.78.57-3.34.85-.82.79,2.1,1.44-.06.05-1.46-.47-2.72-1.39-1.85.12-1.77.58-3.73,1.15-5.79.56-2.04,1.18-4.11,1.68-6.12l.71,1.21c1.45-2.29.79-5.07.12-6.68.49-.24.26-.51.72.04,2.51-2.73-.89-4.65,1.04-9.78-1.45-.11-2.3,2.21-2.09,4.06l-1.43-.88c-1.34,4.54-2.47,9.76-2.48,13.72l-.7-2.01c-2.93,2.66,1.42,2.82-1.75,5.22-.02,2.37,1.23-1.41,1.45.44-.86,1.47-2.6-1.1-3.38,1.54,1.73-10.17,5-21.44,7.95-31.8-.22-.28-.5.22-.77.73-.45-2.09,2.92-9.9,6.21-17.31,3.27-7.43,6.34-14.51,4.56-15.71.77-.29.78,1.58,1.53-.58-.21-.3-.37-.99-1.13-.7,2.11-2.3,3.26-5.48,4.49-8.79,1.2-3.32,2.35-6.84,4.43-9.74-.71-.13-.46-1.7-.92-1.92,2.45-1.56,2.43-6.02,4.23-7.69l-1.04.33,2.88-6.46c-.19-.32-.59.56-.92,1.03.28-1.57,1.25-1.5,1.96-1.35l-.28-3.59c1.65-1.78,2.93-3.88,4.01-6.17,1.12-2.28,2.07-4.74,3.01-7.26.92-2.53,1.91-5.08,3.04-7.56,1.14-2.47,2.41-4.87,4.1-6.98-.47-2.06-.34-3.55.79-6l-1,.96c.27-2.98.7.2,1.3-2.13-.03-1.82-1.62-1.44-1.96.83-1.06.96-1.09,0-.93-1.02,2.1-3.75,4.42-7.21,6.83-10.37,2.48-3.12,5.13-5.89,7.98-8.22Z"/>
    <path class="cls-2" d="m590.51,582.55c-.94-.65,3.7-.61,1.41-2-7.22-2.6-18.9-.52-27.34-3.03-2.22-1.14-2.81-1.21-4.82-1.88-.05.23-.07.52.02.79-2.3-.2-6.05,0-8.31-.84-.67.25-1.23,1.31.04,1.13-3.58.75-5.89-2.46-7.92-1.75,1.64.86-1.78.9.21,1.64-3.69-.14-3.02-3.97-5.86-4.7-.2.29-.4.58.17.72-2.98-1.93-9.74-.02-9.79-2.77l-1.39.99c-1.27-1.03-.86-1.61-3.1-2.25-1.54.24-.06,1.01-.66,1.35-.49-1.18-4.56-1.16-6.16-2.96.12-1.71,2.92,2.72,4.93,1.4.1-.33-.15-.46-.51-.55,9.36,1.6,16.17,7.1,24.17,6.42,1.64,1.35,3.06.32,3.91-.82-1.39-.62-5.32-2.11-5.61.28l-2.33-1.75c-.94.04-.71-2.37-1.07-2.8,1.7.43,3.83-1.78,1.6-2.82,4.53.09-1.88,4.97,2.17,4.68l.72-1.68c-.83.86,2.58,1.95,3.92,1.46l-.51-.38c10.62,1.61,24.98,1.38,36.8.76,2.94,4.28,8.66-1.59,11.46,1.81,1.29-.61-1.89-1.49.59-2.07,1.24-.29,1.39.83,1.34,1.15.37-.12.75-.24,1.14-.37,1.04,4.14-1.01,7.96-9.22,10.86Z"/>
  </g>
  <g>
    <path class="cls-2" d="m661.38,493.26c.47,1.62-.05,4.74-1.48,4.25,1.43.49,1.45.49,1.85,2.84-.95-.33-1.25,1.58-1.53,2.77.99-.75,1.52-2.04,2.55-4.63-1.41-3.04,3.2-7.19,1.55-10.12-.98,1.51-2.91,2.7-2.93,4.88Z"/>
    <path class="cls-2" d="m651.82,502.18l.47.53.37-4.41c.21.98-.11,3.96-.83,3.88Z"/>
    <path class="cls-2" d="m649.11,516c-.93-.72-2.22,1.17-3.17.81,2.13.63-.66,3.42-.99,5.31l1.36,1.28c1.78-1.34,2.72-5.95,4.13-9.65l-1.32,2.26Z"/>
    <path class="cls-2" d="m646.79,518.97l.64,1.53c.06-1.08.66-3.42-.64-1.53Z"/>
    <path class="cls-2" d="m653.32,518.34c1.12-2.91-1.29,1.55-.64-1.54-.06,1.09-.36,2.27.64,1.54Z"/>
    <polygon class="cls-2" points="645.84 529.5 647.29 523.04 645.67 525.35 645.84 529.5"/>
    <path class="cls-2" d="m642.29,528.62c.3-.8,1.34-1.86,1.48-.51-2.06,1.75-.76,3.77-2.57,5.43l.16-2.16c-1.43-.22-.1,4.6-2.44,3.62.65,3.25,2.78-1.25,2.65,2.61.81-3.39,2.13-5.63,3.55-8.21-.77.62-.79.98-1.59,1.95.63-1.97.84-4.85,1.5-7.17-1.98.69-1.18,2.86-2.74,4.44Z"/>
    <path class="cls-2" d="m638.37,538.3c-.92,2.03-2.19,5.2-.63,6.45,2.1-1.71.75-2.68.38-3.95.53-.52,1.46-2.55,2.07-1.35-.5.16-.79-1.83-1.82-1.15Z"/>
    <path class="cls-2" d="m634.94,546.31l.99,2.14.11-1.08,1.17.33c-.21-.28-1.99-1.82-1.07-3.84-1.28.74-.39,1.51-1.2,2.46Z"/>
    <path class="cls-2" d="m642.54,549.89c-1.31,1.12-1.21,2.11-1.43,3.92.8-2.31,2.07-5.53,1.68-6.46l.21.29s0-2.46-.53-4.39c.21,2.74-3.03,6.21.06,6.65Z"/>
    <path class="cls-2" d="m643.79,547.03l.28,2.02-.28-2.02Z"/>
    <polygon class="cls-2" points="632.74 552.84 634.55 549.9 633.75 550.47 632.74 552.84"/>
    <path class="cls-2" d="m639.03,550.97c-1.27,2.46,1.81-.9.79,1.49-.08.72,1.39-3.54.69-4.04-.52.52-.05,2.82-1.49,2.55Z"/>
    <path class="cls-2" d="m631.78,554.84l.11,3.08-.11-3.08Z"/>
    <path class="cls-2" d="m628.37,560.98l.61.86c-1.77,2.18-2.08,6.04-4.65,7.06,1.21.03,1.66,1.97,2.92-.09-.4-.58-.05-1.36-.75-1.51.61-.85,1.26-.33,1.82-.83-.2-2,1.57-4.19,1.31-5.83-.09.71-.35.78-.65,1.2-.27-3.34,3.43-2.35,1.54-4.57.32,1.28-1.95,2.29-2.15,3.71Z"/>
    <path class="cls-2" d="m634.14,563.16l1.24-2.1c.83,1.16-1.07,2.75-.22,3.53.72.15,1.97-1.94,2.08-.93-2.49-1.37,1.11-3.11-2.27-3.17.85-3.03,1.96-.22,3.07-3.34l-1.04-1.43c-.7,3.68-2.14,3.76-2.86,7.43Z"/>
    <path class="cls-2" d="m630.01,571.52l-1.31.7,1.46-.04c-.5,1.28-1.27,2.27-2.16,3.1l-8.16,7.6,2.89-8.5c.58-1.71,1.55-3.2,2.28-4.54.74-1.34,1.29-2.54.95-3.72-1-1.97-.73-3.94-.35-5.88.44-1.94,1.08-3.87,1.03-5.9-1.04-2.04-.78,1.88-1.45,2.06-2.23-.66,1.23-1.9-.53-2.91-.79-.17-1.32.86-1.71,2.17-.39,1.31-.71,2.89-1.22,3.78.22,1.57.74,1.55,1.65,2.02-.9.39-1.16,1.98-2.07,2.4.65,1.63.45,2.87.22,4.13-.24,1.25-.41,2.51.39,4.07-1.15,1.09-.41-2.4-.52-1.32l.15,1.76.19-.2c.36.59.58,1.31.68,2.1l1.69,12.49,4.16-11.49c.77-2.14,2.58-4.28,3.6-5.07-.86.92-2.12,1.26-1.91-.18l1.77-.48-.7-3.6c.35,2.66-3.25,3.97-1.03,5.44Z"/>
    <path class="cls-2" d="m633.71,569.48c2.14-3.01-2.12-.45.07-3.81l-1.54,3.87,1.47-.06Z"/>
    <path class="cls-2" d="m622.85,564.63l.97-1.8c-2.02,1,.75,3.77-.97,1.8Z"/>
    <polygon class="cls-2" points="622.85 558.01 624.66 558.99 623.66 557.29 622.85 558.01"/>
    <path class="cls-2" d="m625.31,552.11c-.85-1.39-1.72.15-1.59,1.72.16-1.4.99-2.07,1.59-1.72Z"/>
    <path class="cls-2" d="m629.74,542.8c-.35,2.9.77-2.51,2.15-.21-.73-.47-1.58-2.09-2.15.21Z"/>
    <path class="cls-2" d="m635.51,534.27c.16,1.08-.24,1.42-.71,1.48.17-.73.39-1.3.71-1.48Z"/>
    <path class="cls-2" d="m627.47,569.87c.03.34.06.7.02,1.04,0-.35-.02-.69-.02-1.04Z"/>
    <path class="cls-2" d="m627.46,569.19c0,.22,0,.45.01.68-.02-.25-.03-.48-.01-.68Z"/>
    <path class="cls-2" d="m631.85,547.66s0,0,0,0c-.07.07-.11.14-.19.21l.19-.22Z"/>
    <path class="cls-2" d="m648.44,510.25c.09-.58.21-1.02.33-1.35-.1.45-.21.9-.31,1.34,0,0-.01,0-.02.01Z"/>
    <path class="cls-2" d="m651.37,509.49c.35,2.71-3.45,1.65-3.9,5.7.27-1.6.61-3.26.99-4.95,2.46-1.61.38,1.98,2.91-.75Z"/>
    <path class="cls-2" d="m642.37,541.73c0,.05,0,.09,0,.15-.03.25-.04.11,0-.15Z"/>
    <polygon class="cls-2" points="673.15 403.5 672.66 403.41 673.6 401.32 673.15 403.5"/>
    <path class="cls-2" d="m672.21,403.68l-1.48,3.56.7-5.47c.22-1.83.39-3.66.59-5.48.36-3.66.81-7.31,1.1-10.97l.63.78c.5-.1-.09,4.44-.7,8.93-.3,2.25-.61,4.48-.78,6.12-.21,1.63-.28,2.68-.05,2.54Z"/>
    <path class="cls-2" d="m672.84,404.84c1.77,2.41-1.25,3.43-.16,6.25-.73-1.89-1.64-3.27-.87-4.87l1.03-1.37Z"/>
    <path class="cls-1" d="m675.8,412.74c-.59,1.12.1,2.66-.31,3.27-1.52-.65-.05-2.29.31-3.27Z"/>
    <path class="cls-2" d="m681.39,416.83c0,.19-.03.37-.08.55-.06-.23-.13-.45-.2-.61l.28.06Z"/>
    <path class="cls-2" d="m681.11,416.77l-.71-.14c.34-.34.55-.2.71.14Z"/>
    <path class="cls-2" d="m681.31,417.38c.15.53.29,1.14.53,1.49l.19-.49c.08.73.45,2.05,0,2.32.35-1.36-.15-1.46-1.14-1.65l-.5,2.21c-2.3-.8.44-1.9.92-3.87Z"/>
    <path class="cls-1" d="m680.73,424.52l-.98-2.52c1.41-.42,1.14,1.66.98,2.52Z"/>
    <path class="cls-2" d="m678.63,427.63c-.3-.6.19-2.8-.65-1.56-.21-.41-.08-.83,0-1.29.08,1.56,1.91.41.64,2.85Z"/>
    <path class="cls-2" d="m677.99,424.79c0-.19,0-.39.04-.66.03.23,0,.45-.04.66Z"/>
    <path class="cls-1" d="m675.59,400.1c-.22.25-.39.22-.54.08l.54-.08Z"/>
    <path class="cls-2" d="m676.38,431.94l-.17.85c.05-.24.06-.48.06-.7l.11-.15Z"/>
    <path class="cls-2" d="m672.17,359.78c-.63,2.93-1.28,5.69-.69,10.03,1.72.03.36,1.75,2.15,2.15.21-4.46-.46,16.79.62,13.34l-.69-1.14,1.69,1.28c-.63,2.09-2.43,4.83-1.56,6.39-.49.35,1.73-18.15,1.15-17.5,1.11-.74,1.03,5.52.77,12.07-.35,6.54-.98,13.36-.54,13.76l-1.12.16c.74,3.43,1.98,5.76,2.35,8.64l-1.4.44c.72-1.97-.1-2.65-.37-4.79-.26,3.62-1.16,4.15-1.29,6.92,1.71.15,1.16-2.23,1.63,1.36-.85.89-2.39-1.68-2.47,1.45-1.03,3.64,1.57,3.29,1.2,6.55l.99-2.08c-.11,1.21-.12,3.5-1.22,4.5.34-1.34-.04-4.93-1.75-5.1.16,1.43-.98,4.35-1.1,5.55l-1.06-.92c-1.33,1.12.23,2.15-1.06,3.62.42,1.67,1.86-.65,2.2.3-.44.26-1.6,3.16-1.04,4.34,1.32-.14,1.3-1.07,1.3-2.15-.02-1.08-.03-2.31,1.33-3.07l-.91,2.79c2.16,2.23.72-4.6,2.54-3.33,2.2,2.6-3.18,4.07-.32,6.64.89-1.21,1.66-5.47,2.45-4.77-1.17,1.35.42,2.73.33,4.87l-1.62,2.3c.58,1.2.75.35,1.42-.39-2.15,3.42-1.55,9.98-4.46,14.79-.3,3.14,1,.61,1.57,2.19-1.85,1.32-1.19,4.35-1.57,6.04-.21.48,1.04,1.72,1.75,1.37v-4.5c.74.38,2.16.03,2.31-1.55-3.11.46,3.05-5.71-.15-6.69l1.47.36c.07-1.9.05-3.82.06-5.72l-.23.13c.49.11-.15-4.86,1.06-7.79.32.96-1.21,5.97.99,3.26.41,2.43-1.63,6.24-1.86,10.49l1.17-.6c.48,4.63-2.52,10-3.31,14.84l-1.03-1.72c-.91,1.56-2.53,3.46-1.74,5.3.41-2.05.94-.83,1.43-.32.07,2.93-1.64,6.79-2.1,10.66,0,0-.24-.26-.48-.15l-.19,4.14c-.7,1.8-1.66,2.23-2.85,3.14,0,.73-.45,2.42.5,1.99.17-.34.34-.69.32-.95.95,2.38-.77,1.28-.55,3.99-.7-2.24-1.93.11-3.13-.46-.27,3.02,2.16.88,2.64,1.4-1.72,3.3-2.92,3.45-4.16,6.89.72.42,1.23-2.34,2.19-2.39-.49.94-.74,2.14-.51,2.4l1.22-1.98c-1.96,3.4-3.18,6.84-3.83,11.05l.49-.2-.81,2.49-1.16-1.34c-.05,1.46-1.77,2.51-.84,3.59l.26-.46-.06,1.83-.89-2.18c-1.26,1.95.78,5.84-.64,9.24-2.17.12,1.3-6.21-1.1-7.46-.75,1.02-1.77,2.86-1.35,3.76.72.08,1.02-.74,1.28-1.57.32,3.46-3.28,7.3-1.74,9.95l1.56-2.02c-.63,2.75-3.81,3.57-2.68,4.94l-1.76-2.92c.34,3.11-1.13,6.45-1.12,9.27,1.4.57,1.25-3.63,1.47-3.35l.6,1.55c-2.21,3.62-1.27.81-3.79,5.23l.93.39c-2.01,1.05-.74,6.29-2.71,3.77l1.04-1.07-1.18-.31c-.37,1.92-.84,3.8-1.26,5.7-.64-.85-1.4,1.85-2.25.73l.25,2.37c-1.96.28-.53-4.39-1.67-5.06-.77-.21-1.03.76-1.11,1.25-.29-2.83,3-2.94,3.9-5.32l-.6-1.57,1.39.58c.09-1.09-.54-2.28-.98-2.84,2.78-1.67,1.35-5.04,3.05-8.45-.24,3.25,2.03-1.43,2.21-.8.57-1.64-.61-6.54,1.6-7.35,1-.73.36,2.35,1.44.17.32-1.55-.09-2.81-1.09-2.08.7-3.43,2.21-7.29,3.3-10.94l.69,1.16c1.51-2.04.87-4.65.19-6.16.49-.2.26-.46.72.06,2.46-2.45-.91-4.32.82-9.01-1.44-.11-2.18,2-1.95,3.7l-1.44-.84c-1.18,4.13-2.33,8.81-2.43,12.43l-.66-1.88c-2.95,2.23,1.36,2.68-1.82,4.64-.06,2.17,1.24-1.2,1.42.52-.88,1.27-2.55-1.2-3.37,1.13.97-4.55,2.28-9.32,3.62-14.14,1.24-4.84,2.65-9.7,3.75-14.42-.24-.26-.47.21-.71.67-.31-.95.22-3.19,1.14-6.06.92-2.87,2.26-6.35,3.38-9.81,1.15-3.46,2.22-6.86,2.76-9.51.48-2.66.44-4.56-.55-4.99.7-.34,1.05,1.33,1.4-.69-.25-.25-.53-.84-1.23-.5,1.65-2.31,2.28-5.28,2.76-8.42.46-3.14.84-6.42,2.16-9.37-.72.01-.85-1.42-1.34-1.53,2.05-1.82.86-5.75,2.12-7.57l-.91.51,1.02-6.24c-.27-.23-.42.61-.61,1.1-.16-1.42.8-1.58,1.52-1.61-.43-1.02-.86-2.03-1.32-3.04,2.02-3.86,2.29-8.51,2.37-13.31,0-4.82-.05-9.77,1.36-14.38-1.25-1.56-1.72-2.82-1.66-5.22l-.53,1.13c-.94-2.53.72-.07.34-2.18-.75-1.47-2.06-.62-1.47,1.34-.59,1.13-1,.36-1.26-.52.93-7.48,2.26-14.4,5.29-20.36Z"/>
    <path class="cls-2" d="m645.68,511.26c-.9.48.59-3.05-1.41-1.83-2.42,2.27-3.86,6.01-5.17,9.92-1.24,3.94-2.36,8.03-4.14,11.35-1.47,1.66-1.58,2.18-2.47,3.8.22.08.51.13.78.1-.5,1.93-.56,5.17-1.54,7.04.22.6,1.26,1.15,1.13.05.29,1.55-.37,2.77-1.03,3.84-.66,1.07-1.25,2-.9,2.89.85-1.39.91,1.54,1.64-.14-.15,3.13-3.95,2.56-4.57,5.09.3.17.59.34.72-.17-1.88,2.71.71,8.52-1.99,8.82l1.14,1.12c-.88,1.24-1.51.94-1.8,3.02.48,1.33,1.01-.09,1.44.39-.54.3-.65,1.34-.81,2.53-.14,1.18-.3,2.5-1.01,3.39-1.69.2,2.04-3.07.48-4.6-.34-.04-.43.2-.46.54.02-2.15.31-4.18.81-6.1.46-1.92,1.1-3.73,1.7-5.48,1.19-3.5,2.31-6.69,2-10.17,1.34-1.38.39-2.63-.71-3.46-.34.59-.93,1.73-1.09,2.79-.15,1.05.08,2,1.27,2.15l-1.75,2.03c.05.83-2.35.64-2.77.98.36-1.53-1.78-3.51-2.86-1.45.05-2.1,1.29-1.65,2.49-1.15,1.19.5,2.34,1.03,2.2-.79l-1.68-.69c.86.76,1.94-2.27,1.53-3.49l-.4.44c.94-4.75,1.87-10.28,3-15.93,1.12-5.64,2.46-11.4,3.96-16.55,2.49-.52,2.73-2.46,3.03-4.43.25-1.97.45-3.99,2.56-4.41-.06-1.31-2.07.93-1.65-1.35.21-1.15,1.28-.78,1.55-.6.03-.36.07-.72.1-1.09,2.08.49,3.74,1.59,4.89,3.47,1.15,1.88,1.73,4.51,1.8,8.15Z"/>
  </g>
  <g>
    <path class="cls-2" d="m732.31,453.09c1.31.34,2.91,2,1.64,2.83q1.27-.83,3.04-.18c-.85.55.18,1.53.75,2.21.18-1.01-.3-1.9-1.25-3.68-2.85-.25-2.28-5.25-5.21-5.29.27,1.32-.31,3.19,1.03,4.11Z"/>
    <path class="cls-2" d="m731.58,463.63l.65-.12-2.6-2.07c.77.25,2.47,1.7,1.95,2.19Z"/>
    <path class="cls-2" d="m738.78,471.11c-1.07.4-.66,2.09-1.51,2.65,1.79-1.32,1.83,1.82,2.86,2.8l1.72-.52c.23-1.82-2.17-4.3-3.7-6.77l.63,1.85Z"/>
    <path class="cls-2" d="m739.24,473.97l1.42.12c-.67-.46-1.82-1.81-1.42-.12Z"/>
    <path class="cls-2" d="m743.03,468.93c-1.18-1.94.18,1.54-1.42-.12.67.46,1.25,1.14,1.42.12Z"/>
    <polygon class="cls-2" points="745.67 478.64 742.24 475.17 742.77 477.23 745.67 478.64"/>
    <path class="cls-2" d="m742.85,480.95c-.35-.52-.41-1.69.59-1.3-.11,2.19,2.06,1.96,2.06,3.93l-1.35-.92c-1.04.99,3.03,1.77.93,3.17,2.65.66.84-2.53,3.42-1.07-1.84-1.81-2.48-3.65-3.34-5.64-.07.8.16.95.32,1.9-.94-1.19-2.74-2.42-3.89-3.77-.78,1.73,1.18,1.94,1.27,3.69Z"/>
    <path class="cls-2" d="m747.01,487.42c.84,1.41,2.27,3.49,4.08,2.73.09-2.18-1.39-1.49-2.49-1.67-.04-.59-.88-1.99.32-2.03-.19.43-1.75-.05-1.91.97Z"/>
    <path class="cls-2" d="m750.48,492.84l2.07-.02-.68-.45.93-.78c-.32.07-2.45.89-3.29-.52-.26,1.23.81.82.97,1.78Z"/>
    <path class="cls-2" d="m757.5,488.27c-.03,1.38.75,1.61,1.88,2.36-1.17-1.33-2.6-3.38-3.46-3.41l.32-.06s-1.68-.84-3.33-1.1c2,.78,2.43,4.43,4.58,2.22Z"/>
    <path class="cls-2" d="m756.31,486.35l1.55.47-1.55-.47Z"/>
    <polygon class="cls-2" points="753.78 496.71 752.76 494.35 752.7 495.15 753.78 496.71"/>
    <path class="cls-2" d="m756.16,491.29c.98,1.76.44-1.66,1.52-.12.45.3-1.66-2.21-2.4-1.86.04.58,1.91.98.88,1.98Z"/>
    <path class="cls-2" d="m754.63,498.11l2.24.91-2.24-.91Z"/>
    <path class="cls-2" d="m757.03,502.75l.97-.21c.58,2.06,3.21,3.46,2.51,5.79.69-.94,2.34-.72,1.56-2.32-.64.14-1.01-.37-1.52.14-.28-.73.46-1.09.42-1.68-1.57-.44-2.14-2.5-3.47-2.81.46.29.36.51.5.88-2.57-.84.3-3.42-2.37-2.66,1.1.16.49,2.27,1.4,2.87Z"/>
    <path class="cls-2" d="m761.88,498.94l-.76-1.61c1.29-.27,1.31,1.69,2.37,1.26.51-.51-.25-2.11.52-1.89-2.4,1.5-1.54-1.83-3.54.76-1.63-1.62.98-1.58-.55-3.42l-1.61.34c2.17,1.71,1.39,2.85,3.57,4.56Z"/>
    <path class="cls-2" d="m765.56,504.64l-.23,1.24.78-1.16c2.5,2.99-.4,8.08,1.64,9.51,3.22,1.25,2.81,5.05,4.89,7.26,1.82.44-.35-1.52.11-2.08,2.01-1.05-.04,1.86,1.83,1.26,1.38-.85-.54-3.5-.55-5.12-.87-.74-1.26-.42-2.19-.13.54-.78.05-1.85.59-2.62-2.44-1.08-1.26-3.51-3.75-4.51.54-1.31,1.23,1.22.92.51l-.78-.98-.08.23c-2.04-.59-2.99-3.83-2.99-5.21.18.94-.28,2.03-1.2,1.45l.65-1.52-2.98-.52c2.11.52,1.05,3.72,3.34,2.41Z"/>
    <path class="cls-2" d="m766.17,501.15c-.95-2.54-1.53,1.52-2.7-1.17l1.91,2.34.78-1.16Z"/>
    <path class="cls-2" d="m770.87,513.27l.02,1.62c1.15-1.78-2.21-1.76-.02-1.62Z"/>
    <polygon class="cls-2" points="773.81 517.03 771.95 517.61 773.52 517.94 773.81 517.03"/>
    <path class="cls-2" d="m774.77,521.83c1.34.18,1.22-1.21.34-1.95.57.84.28,1.75-.34,1.95Z"/>
    <path class="cls-2" d="m776.54,529.67c-1.41-1.71.89,1.81-1.4,1.62.79-.27,2.3-.06,1.4-1.62Z"/>
    <path class="cls-2" d="m777.77,537.99c-.79-.39-.75-.86-.48-1.22.35.47.57.9.48,1.22Z"/>
    <path class="cls-2" d="m764.96,512.78c-.16-.2-.33-.41-.43-.65.15.22.28.43.43.65Z"/>
    <path class="cls-2" d="m765.24,513.2l-.28-.42c.12.15.21.29.28.42Z"/>
    <path class="cls-2" d="m772.27,528.59s0,0,0,0c.01-.08,0-.15.03-.25l-.02.25Z"/>
    <path class="cls-2" d="m734.56,469.35c-.32-.3-.54-.55-.68-.77.23.25.46.51.68.76,0,0,0,.01,0,.02Z"/>
    <path class="cls-2" d="m735.97,466.92c2,.81-1.16,3.17,1.22,5.08-.88-.82-1.76-1.72-2.62-2.67.54-2.42,1.54.51,1.4-2.41Z"/>
    <path class="cls-2" d="m751.81,485.61s.06.04.1.05c.15.11.05.07-.1-.05Z"/>
    <polygon class="cls-2" points="692.59 400.38 692.13 400.57 692.05 398.82 692.59 400.38"/>
    <path class="cls-2" d="m691.86,400.96c.07.98.21,1.94.31,2.91-1.27-2.43-2.35-4.97-3.53-7.45-1.09-2.53-2.19-5.06-3.2-7.62l.83.26c.35-.25,1.58,2.92,2.76,6.08,1.26,3.12,2.56,6.21,2.82,5.82Z"/>
    <path class="cls-2" d="m692.9,401.35c2.58.54.46,2.7,2.63,3.81-1.45-.73-2.84-1.1-2.9-2.46l.27-1.35Z"/>
    <path class="cls-1" d="m698.87,404.47c-.02.97,1.26,1.47,1.2,2.04-1.57.46-1.09-1.28-1.2-2.04Z"/>
    <path class="cls-2" d="m705.36,403.76c.09.1.15.22.19.34-.16-.09-.31-.17-.45-.22l.26-.12Z"/>
    <path class="cls-2" d="m705.1,403.89l-.65.31c.12-.37.36-.4.65-.31Z"/>
    <path class="cls-2" d="m705.55,404.1c.37.2.77.46,1.13.51l-.07-.37c.4.35,1.31.84,1.06,1.24-.33-.91-.79-.69-1.7-.25l.6,1.46c-2.26.85-.51-1.27-1.02-2.58Z"/>
    <path class="cls-1" d="m708.35,408.23l-1.97-.78c.97-1.01,1.69.25,1.97.78Z"/>
    <path class="cls-2" d="m708.13,411.07c-.53-.14-1.18-1.6-1.27-.45-.36-.1-.46-.4-.62-.68.81.79,1.74-.87,1.88,1.14Z"/>
    <path class="cls-2" d="m706.25,409.93c-.1-.09-.19-.2-.28-.37.13.11.21.24.28.37Z"/>
    <path class="cls-1" d="m693.3,397.09c-.09.26-.25.32-.44.31l.44-.31Z"/>
    <path class="cls-2" d="m708.41,414.65l.29.54c-.09-.15-.19-.28-.3-.4v-.14Z"/>
    <path class="cls-2" d="m676.85,371.24c.19,2.3.27,4.56,2.05,7.48,1.63-.56.86,1.12,2.65.78-.61-1.58.58,1.39,1.94,4.35,1.46,2.93,3.06,5.85,2.97,4.47l-1.01-.47,1.97.15c.09,1.65-.38,4.18.96,4.81-.18.23-1.56-2.87-2.66-6.06-.56-1.59-1.18-3.15-1.56-4.31-.4-1.16-.69-1.87-.78-1.71.4-.45,1.07.4,1.86,1.91.83,1.5,1.85,3.64,2.82,5.85,1.04,2.18,2.11,4.4,2.95,6.1.9,1.67,1.59,2.8,1.85,2.82l-.91.64c1.03.88,2.05,1.51,3.01,2.1.98.58,1.91,1.14,2.69,1.88l-.99.98c-.25-1.53-1.25-1.5-2.42-2.64,1.36,2.28.84,3.06,1.95,4.77,1.51-.82,0-1.92,1.96-.07-.32.98-2.76.3-1.43,2.18.86,2.66,2.86,1.01,4.09,3.05l-.17-1.72c.48.74,1.54,2.02,1.13,3.2-.36-.93-2.36-2.74-3.86-1.88.82.72,1.25,3.04,1.77,3.77l-1.32.09c-.52,1.39,1.25,1.07.94,2.65,1.16.69,1.18-1.45,1.92-1.12-.24.4.28,2.7,1.34,2.99,1.94-1.72-1.95-1.97-.49-4.41l.63,2.07c2.83-.05-1.66-2.95.43-3.31,3.03.13-.58,4.1,3,3.77.07-1.16-1.36-3.9-.38-3.99-.29,1.41,1.64,1.23,2.64,2.38l-.11,2.15c1.07.27.77-.27.92-1.05.04,1.52.99,3.04,1.99,4.69,1.01,1.65,2.09,3.42,2.31,5.51,1.47,1.73,1.08-.34,2.37.06-.66,1.82,1.49,2.86,2.13,3.92.11.37,1.73.12,2.05-.5l-2.47-2.13c.76-.3,1.64-1.39.89-2.23-2.11,2.21-.75-4.66-3.7-3.12l1.32-.75c-.97-.95-1.97-1.89-2.92-2.86l-.12.2c.44-.24-2.59-2.36-3.11-4.58.74.3,2.07,3.75,2.43,1.06,1.57.95,1.81,4.15,3.93,6.34l.57-1.02c2.82,1.89,3.4,6.36,5.54,9.1l-1.72-.11c.2,1.32.12,3.25,1.74,3.57-.87-1.21.21-1,.86-1.1,1.73,1.26,2.62,4.19,4.62,6.16,0,0-.32.06-.43.27l2.31,1.91c.58,1.26.17,2.1-.12,3.32.44.31,1.13,1.36,1.54.5-.09-.27-.18-.53-.34-.63,2.08.34.21,1.1,2.01,2.08-1.85-.44-1.26,1.4-2.43,2,1.69,1.45,2.02-1.15,2.67-1.27.86,2.57.13,3.49,1.42,5.79.75-.34-.61-1.84,0-2.54.25.74.81,1.41,1.14,1.35l-.39-1.68c.75,2.79,2.06,5.09,4.33,7.22l.2-.43,1.05,1.57-1.62.3c.9.61.43,2.28,1.73,2.03l-.13-.37,1.12.77-1.97-.22c.4,1.69,4.21,1.77,5.52,4.06-1.34,1.63-3.19-3.32-5.53-2.09.15.95.65,2.43,1.53,2.46.52-.49.17-1.02-.18-1.54,2.44,1.11,2.63,5.19,5.35,5.07l-.31-1.9c1.37,1.5-.13,4.15,1.48,3.84l-3.04.19c2.22.95,3.53,3.24,5.42,4.25,1.26-.83-1.63-2.23-1.31-2.3l1.42.12c1.01,2.94-.27,1.23,1.1,4.69l.84-.56c-.56,1.87,3.72,2.79.82,3.36l-.06-1.16-.94.77,3.09,2.92c-.97.19.41,1.68-.88,1.94l1.77.62c-1,1.58-3.32-1.1-4.49-.47-.61.5-.11,1.04.19,1.26-2.12-.77-.2-3.26-1.24-4.79l-1.42-.12,1.26-.83c-.67-.46-1.87-.42-2.51-.29.62-2.67-2.54-2.85-3.75-5.37,2.02,1.38.34-2.03.89-1.94-.7-1.04-4.67-2.06-3.78-3.99.17-1.02,1.77.64,1.04-.98-.8-.83-1.9-1.02-2.07,0-1.83-1.81-3.26-4.49-4.88-6.74l1.2-.03c-.31-1.91-2.4-2.49-3.82-2.62.2-.43-.12-.37.52-.49.1-2.76-3.31-1.15-5.07-4.35-1.05.98-.23,2.4.99,2.95l-1.49.67c1.75,2.62,4.05,5.33,6.29,6.88l-1.64-.28c-.51,3.05,2.62.1,1.78,3.21,1.35.93.05-1.38,1.27-.83.24,1.15-2.44,1.37-1.49,2.92-4.57-5.12-8.92-11.55-13.17-17.3-.32.06-.2.43-.08.8-1.6-.4-4.01-5.55-6.42-10.39-2.42-4.85-4.8-9.41-6.77-8.56.33-.63,1.53-.01.65-1.26-.33.04-.87-.08-1.2.55-.06-2.25-1.24-4.16-2.58-6.1-1.33-1.95-2.74-3.98-3.26-6.36-.57.44-1.41-.26-1.86-.03.66-2.21-2.2-3.75-2.1-5.52l-.49.81c-.77-1.38-1.47-2.8-2.21-4.2-.33.01-.05.59.03.98-.82-.75-.11-1.37.47-1.78l-2.55-1.07c-.03-3.46-1.96-6.35-3.88-9.46-2-3.05-4-6.32-4.44-10-1.67-.53-2.54-1.21-3.32-2.9l-.09.99c-1.74-1.38.63-.34-.45-1.65-1.21-.73-2.11.37-.87,1.52-.14,1.03-.79.66-1.33.14-.23-.71-.45-1.41-.65-2.11-.19-.71-.34-1.42-.49-2.13-.29-1.41-.5-2.82-.63-4.2-.21-2.78.02-5.52.65-8.11Z"/>
    <path class="cls-2" d="m788.34,555.32c.06-.9,2.11,1.43,2.12-.64-.64-2.68-2.59-5.13-4.72-7.59-2.07-2.5-4.31-5.02-5.29-7.88-.15-1.84-.39-2.16-.82-3.56-.19.13-.42.32-.58.53-.92-1.23-2.8-2.89-3.24-4.51-.5-.15-1.55.29-.82.77-2.22-1.2-.96-4.4-2.44-4.88.14,1.34-1.52-.23-1.12,1.19-1.64-1.82,1.53-4.06.69-5.85-.31.1-.62.2-.46.56,0-2.66-4.71-4.48-2.71-6.32l-1.42.03c.14-1.27.76-1.46.12-2.9-.94-.53-.78.65-1.33.61.62-1-1.4-2.83-.9-4.73,1.32-1.09-.52,3.11,1.44,3.14.29-.18.27-.38.15-.6,3.49,5.27,2.73,12.04,7.01,15.34-.22,1.66,1.23,1.63,2.47,1.28-.18-1.07-.97-3.88-2.87-2.44l.2-2.25c-.48-.41,1.43-1.91,1.57-2.37.5,1.07,3.14.61,2.86-1.14,2.09,2.18-4.59,2.42-2.45,4.13l1.6-.78c-1.04.19-.22,2.5.79,2.8l.04-.49c3.82,6.07,10.58,12.84,16.26,18.29-1.92,4.35,5,3.24,3.67,6.95,1.01.24.28-1.95,1.79-1.09.75.43-.02,1.26-.27,1.45.25.11.51.22.77.33-2.63,3.31-6.32,4.81-12.1,2.62Z"/>
  </g>
  <g>
    <path class="cls-2" d="m680.06,481.22c.4-.98,1.56-1.55,1.81-.06q-.25-1.49.39-2.71c.16,1,.87.59,1.33.42-.52-.64-1.09-.66-2.21-.7-.59,2.33-3.24-.55-3.73,1.97.77.39,1.7,1.79,2.42,1.07Z"/>
    <path class="cls-2" d="m685.68,486.92l.04-.62-1.54,1.24c.26-.55,1.32-1.31,1.5-.63Z"/>
    <path class="cls-2" d="m690.91,484.34c.04,1.11,1.02,1.59,1.19,2.58-.43-2.18,1.28-.69,1.98-1.1v-1.73c-.94-1.09-2.69-.23-4.27-.1l1.1.35Z"/>
    <path class="cls-2" d="m692.53,485.33l.3-1.16c-.36.36-1.28.69-.3,1.16Z"/>
    <path class="cls-2" d="m690.42,479.62c-1.24.08.86.59-.3,1.16.36-.36.82-.52.3-1.16Z"/>
    <polygon class="cls-2" points="696.12 482.08 693.68 483.33 694.88 483.88 696.12 482.08"/>
    <path class="cls-2" d="m696.9,485.63c-.34.05-.98-.47-.6-1.14,1.16,1.16,1.4-.81,2.47.17l-.72.71c.36,1.38,1.47-1.73,1.86.76.81-1.94-1.22-1.97,0-3.46-1.29.69-2.39.33-3.61.1.42.45.54.33,1.08.66-.8.21-1.77,1.16-2.69,1.49.8,1.52,1.24-.07,2.2.71Z"/>
    <path class="cls-2" d="m701.09,485.26c.9-.02,2.26-.21,2.17-2.13-1.16-1.16-1.05.45-1.33,1.3-.32-.26-1.22-.24-1.04-1.28.2.38-.33,1.47.19,2.11Z"/>
    <path class="cls-2" d="m704.59,484.98l.35-1.78-.36.35-.26-1.19c-.02.31.05,2.54-.85,2.56.62.83.58-.28,1.12.05Z"/>
    <path class="cls-2" d="m703.37,476.7c.74.72,1,.17,1.61-.42-.93.33-2.29.52-2.46,1.25l.02-.31s-.75,1.02-1.18,2.3c.77-1.33,2.81.13,2-2.82Z"/>
    <path class="cls-2" d="m702.12,476.76l.53-1.09-.53,1.09Z"/>
    <polygon class="cls-2" points="707.24 484.11 705.8 483.8 706.22 484.25 707.24 484.11"/>
    <path class="cls-2" d="m704.76,479.36c1.12.05-.82-1.21.21-1.35.24-.24-1.49.31-1.43,1.11.32.26.87-1.14,1.22.24Z"/>
    <path class="cls-2" d="m708.14,484.09l.89-1.45-.89,1.45Z"/>
    <path class="cls-2" d="m711.05,484.42l.07-.93c1.2.55,2.43-.93,3.54.86-.37-1.07.06-2.35-.94-2.52-.05.62-.39.66-.21,1.35-.44-.15-.49-.95-.81-1.22-.53,1.09-1.73.54-2.13,1.5.24-.24.34-.05.56.03-.91,1.75-1.77-2-1.84.66.28-.85,1.3.74,1.78.27Z"/>
    <path class="cls-2" d="m709.91,478.36l-1.01-.17c.09-1.23,1.15-.25,1.12-1.37-.18-.69-1.18-.86-.92-1.4.36,2.8-1.27.37-.25,3.39-1.17.57-.67-1.64-1.94-1.26l-.11,1.54c1.31-.99,1.78.26,3.1-.72Z"/>
    <path class="cls-2" d="m713.64,478.17l.61.83-.47-1.26c2.08-.58,4.21,4.56,5.36,3.6,1.3-2.03,3.21.35,4.79-.19.6-1.26-.87-.54-1.07-1.22-.14-2.24.96,1.03,1.03-.84-.16-1.62-1.95-1.44-2.81-2.29-.57.33-.48.82-.51,1.76-.3-.86-.96-1.03-1.27-1.9-1.06,1.46-2.12-.79-3.14.76-.59-1.15.89-.39.45-.5l-.68.14.11.19c-.72,1.39-2.62.54-3.35-.18.54.33,1.03,1.29.54,1.76l-.69-1.33-.84,2.25c.67-1.52,2.18,1.03,1.92-1.58Z"/>
    <path class="cls-2" d="m711.9,475.86c-1.54-.51.53,2.07-1.14,1.68l1.61-.42-.47-1.26Z"/>
    <path class="cls-2" d="m719.26,478.22l.86.85c-.71-1.91-1.37.91-.86-.85Z"/>
    <polygon class="cls-2" points="721.84 477.78 721.77 479.65 722.26 478.52 721.84 477.78"/>
    <path class="cls-2" d="m724.55,479.58c.37-1.01-.38-1.67-.95-1.35.56-.02.98.72.95,1.35Z"/>
    <path class="cls-2" d="m729,482.43c-1.18.2,1.12.28.54,2.05.03-.79.46-1.92-.54-2.05Z"/>
    <path class="cls-2" d="m733.52,486.1c-.37.41-.6.12-.73-.31.32-.01.58.05.73.31Z"/>
    <path class="cls-2" d="m717.84,482.93c-.13.03-.28.06-.42.02.14,0,.28-.01.42-.02Z"/>
    <path class="cls-2" d="m718.12,482.91h-.28c.1,0,.19-.01.28,0Z"/>
    <path class="cls-2" d="m727.55,485.34h0c-.04-.05-.08-.09-.12-.15l.12.15Z"/>
    <path class="cls-2" d="m689.27,487.12c-.21.13-.38.2-.53.21l.52-.22h0Z"/>
    <path class="cls-2" d="m688.18,484.73c.76-1.33,1.53,2.53,2.95,1.41-.59.36-1.22.68-1.87.97-1.23-1.64.52-1.08-1.08-2.38Z"/>
    <path class="cls-2" d="m700.94,480.24s.03-.03.05-.06c.08-.08.05-.01-.05.06Z"/>
    <polygon class="cls-2" points="645.93 494.79 646.02 495.29 645.03 494.84 645.93 494.79"/>
    <path class="cls-2" d="m646.23,495.66l1.66.65-8.63,2.05.14-.74c-.3-.87,7.25-1.22,6.83-1.96Z"/>
    <path class="cls-2" d="m646.49,494.8c.43-2.22,1.55.46,2.3-1.19-.5,1.11-.77,2.27-1.54,1.89l-.75-.7Z"/>
    <path class="cls-1" d="m648.6,490.27c.55.32.93-.66,1.25-.41.15,1.61-.81.54-1.25.41Z"/>
    <path class="cls-2" d="m648.66,484.02c.07-.05.14-.06.21-.06-.07.11-.12.23-.16.34l-.05-.28Z"/>
    <path class="cls-2" d="m648.71,484.31l.13.71c-.21-.24-.21-.47-.13-.71Z"/>
    <path class="cls-2" d="m648.87,483.97c.15-.27.33-.54.39-.86l-.22-.07c.24-.24.61-.91.82-.54-.56-.01-.47.48-.29,1.48l.9-.04c.3,2.39-.78.02-1.6.03Z"/>
    <path class="cls-1" d="m651.53,482.85l-.63,1.53c-.51-1.25.3-1.48.63-1.53Z"/>
    <path class="cls-2" d="m653.17,484.12c-.13.43-1.04.47-.38.98-.09.29-.27.27-.45.3.53-.44-.34-1.92.84-1.28Z"/>
    <path class="cls-2" d="m652.33,485.4c-.06.05-.14.1-.24.12.07-.08.16-.1.24-.12Z"/>
    <path class="cls-1" d="m644.09,493.15c.15.16.18.33.16.5l-.16-.5Z"/>
    <path class="cls-2" d="m655.26,485.21l.34-.05c-.1.02-.18.07-.26.12l-.08-.07Z"/>
    <path class="cls-2" d="m629.87,503.42c1.26.17,2.46.38,3.96-.86-.39-1.68.58-.61.31-2.41-1.71.59,6.39-2.42,4.84-2.88l-.26.86.07-1.85c.93.27,2.37,1.44,2.74.31.27.52-7.15,1.57-6.77,2.01-1.07-1.91,9.41-3.99,9.49-4.95l.33,1.05c1.07-1.4,1.59-3.12,2.54-4.09l.51,1.25c-.89-.26-.93.66-1.64,1.39,1.37-.53,1.79.22,2.82-.26-.38-1.67-1.1-.64.08-1.85.54.63,0,2.66,1.15,2.06,1.57.16.78-2.27,2.03-2.68l-.99-.46c.46-.17,1.27-.71,1.91.1-.56-.01-1.74,1.2-1.37,2.88.47-.49,1.8-.08,2.26-.26l-.06,1.23c.74,1.01.71-.73,1.56.16.49-.79-.71-1.62-.46-2.17.21.38,1.54.77,1.8-.08-.78-2.43-1.28,1.02-2.53-1.23l1.23.21c.23-2.59-1.82.39-1.84-1.65.35-2.71,2.27,2.09,2.43-1.31-.65-.51-2.35-.24-2.31-1.16.78.8.86-1.03,1.62-1.51l1.22.95c.27-.86-.07-.81-.5-1.25,1.75,1.15,3.89-1.02,6.3.34,1.16-.59-.06-1.11.33-2.09.94,1.38,1.81-.08,2.49-.18.22.07.31-1.47,0-2.04l-1.53,1.26c-.07-.81-.57-2.06-1.15-1.76.98,2.81-2.76-1.3-2.25,1.99l-.26-1.49-1.99,1.44.1.19c-.09-.49-1.65,1.38-2.98.98.25-.55,2.39-.38.88-1.77.73-1.03,2.6,0,4.11-.95l-.52-.94c1.45-1.76,4.08-.33,5.93-1.02l-.3,1.48c.77.39,1.85,1.35,2.25.06-.8.22-.53-.63-.5-1.25.96-.96,2.73-.42,4.14-1.24,0,0-.02.31.08.5l1.42-1.13c.79.09,1.2.84,1.83,1.67.24-.24.93-.34.52-1.1-.16-.05-.32-.1-.4,0,.52-1.65.64.34,1.47-.77-.54,1.41.58,1.75.72,3.06,1.06-.77-.32-2.3-.28-2.92,1.55.48,1.94,1.54,3.41,1.54-.06-.81-1.11-.35-1.39-1.22.44.14.9-.03.92-.34l-.99-.47c1.66.67,3.12.66,4.65-.27l-.2-.38,1.03-.15-.1,1.54c.48-.48,1.31.73,1.39-.51l-.22-.07.6-.6-.44,1.59c.99.47,1.64-2.78,3.11-2.79.67,1.94-2.33,1.15-2.04,3.76.54.33,1.43.61,1.59-.13-.18-.69-.53-.64-.87-.59,1-1.57,3.26.25,3.64-2.15l-1.09-.66c1.05-.46,2.23,2.13,2.33.58l-.4,2.71c.88-1.45,2.35-1.46,3.22-2.59-.24-1.49-1.49.31-1.47,0l.3-1.16c1.77.57.62.83,2.74,1.35l-.16-1c.92,1.4,2.16-1.83,1.97.95l-.64-.52.26,1.19,2.12-1.21c-.06.93.98.48.9,1.71l.65-1.21c.68,1.64-1.17,2.3-1.04,3.61.17.78.54.61.71.47-.78,1.43-1.8-1.44-2.8-1.3l-.31,1.16-.24-1.49c-.36.35-.55,1.4-.59,2.01-1.34-1.85-1.97.78-3.53.6,1.08-1.07-1.04-1.28-.9-1.71-.68.1-1.89,3.02-2.79,1.31-.52-.64.64-1.21-.36-1.37-.58.29-.86,1.14-.34,1.78-1.28.69-2.97.63-4.45.95l.18-1.05c-1.09-.66-1.75.87-2.04,2.03-.2-.38-.22-.07-.18-.68-1.49-1.42-1.15,2.31-3.18,2.3.37,1.37,1.27,1.34,1.77.56l.13,1.61c1.7-.25,3.54-.93,4.74-2.12l-.42,1.28c1.57,1.91.47-2.21,2.03.01.72-.72-.74-.71-.25-1.49.67.35.35,2.77,1.34,2.69-3.51,1.46-7.69,2.1-11.47,3.08-.02.31.2.38.42.45-.91,2.37-12.64-1.34-12.19,2.88-.31-.57.18-1.36-.62-1.13-.02.31-.15.74.16,1.3-2.49-1.86-4.77,1.05-7.53.06.19.68-.28,1.17-.19,1.67-1.17-1.45-2.27.57-3.25-.2l.42.75-2.49.5c-.01.31.33.25.55.32-.47.48-.77-.39-.96-1.07l-.76,1.96c-3.83-2.23-6.97,3.08-11.08,2.02-.28,1.48-.64,2.15-1.55,2.51l.55.32c-.72,1.35-.2-.68-.9.05-.37.98.26,2.1.85,1.19.57.37.37.91.11,1.31-3.02.48-5.99.14-8.95-1.87Z"/>
    <path class="cls-2" d="m744.58,487.82c-.43-.6,1.21-.77.2-2.04-2.95-2.31-6.71.49-10.04-1.15-.97-.93-1.18-.92-1.99-1.37.02.23.07.52.14.77-.83.04-2.08.66-3.01.11-.19.32-.18,1.44.22,1.11-1.08,1.15-2.46-1.67-3.02-.7.72.61-.43,1.13.38,1.58-1.27.36-1.78-3.48-2.89-3.77-.01.31-.02.62.2.68-1.39-1.46-3.28,1.52-3.85-1.14l-.27,1.19c-.64-.79-.62-1.42-1.5-1.64-.46.51.19.99.06,1.43-.41-1.05-1.76-.32-2.67-1.73-.32-1.69,1.54,2.07,1.94.44-.04-.34-.15-.42-.29-.44,3.48-.15,6.85,4.15,9.43,2.43.81,1.09,1.1-.1,1.18-1.31-.59-.46-2.22-1.36-1.86,1.02l-1.13-1.39c-.31.17-.7-2.22-.91-2.59.66.17.98-2.27,0-2.99,1.58-.54.3,5.12,1.64,4.28l-.07-1.75c-.12.96,1.25,1.55,1.62.9l-.25-.31c3.96.18,8.95-1.4,13.1-2.63,1.71,4.09,2.88-1.98,4.39,1.32.38-.65-.9-1.41-.08-2.07.41-.33.62.78.65,1.1.12-.13.24-.27.36-.4.97,4.08.75,7.88-1.7,11.06Z"/>
  </g>
  <g>
    <path class="cls-2" d="m878.47,422.39c1.21.04,2.68,1.16,1.52,2.14,1.16-.98,1.15-.97,2.79-.76-.77.65.17,1.3.71,1.77.15-.92-.29-1.6-1.17-2.96-2.6.35-2.12-4.11-4.81-3.57.24,1.1-.27,2.83.97,3.38Z"/>
    <path class="cls-2" d="m877.88,431.73l.59-.24-2.41-1.29c.71.06,2.29.99,1.82,1.52Z"/>
    <path class="cls-2" d="m884.59,436.82c-.98.57-.58,1.96-1.35,2.62,1.62-1.52,1.7,1.22,2.66,1.87l1.57-.8c.2-1.64-2.04-3.33-3.48-5.17l.6,1.49Z"/>
    <path class="cls-2" d="m885.05,439.23l1.31-.18c-.63-.27-1.7-1.22-1.31.18Z"/>
    <path class="cls-2" d="m888.46,434.05c-1.11-1.46.19,1.31-1.31.18.63.27,1.16.74,1.31-.18Z"/>
    <polygon class="cls-2" points="891.01 442.02 887.81 439.67 888.33 441.36 891.01 442.02"/>
    <path class="cls-2" d="m888.43,444.6c-.33-.38-.39-1.4.53-1.25-.08,1.93,1.91,1.31,1.91,3.04l-1.25-.54c-.95,1.07,2.79.96.86,2.59,2.43.07.77-2.37,3.15-1.59-1.69-1.23-2.29-2.72-3.1-4.3-.05.71.15.8.3,1.6-.87-.86-2.53-1.58-3.61-2.53-.7,1.67,1.11,1.46,1.2,2.97Z"/>
    <path class="cls-2" d="m892.26,449.46c.77,1.07,2.06,2.63,3.73,1.64.1-1.93-1.27-1.06-2.28-1-.03-.51-.8-1.58.3-1.84-.18.42-1.61.28-1.76,1.21Z"/>
    <path class="cls-2" d="m895.41,453.55l1.91-.39-.62-.28.87-.85c-.3.11-2.27,1.21-3.03.14-.25,1.12.74.57.88,1.37Z"/>
    <path class="cls-2" d="m901.94,448.3c-.04,1.23.68,1.29,1.72,1.77-1.06-.99-2.38-2.56-3.18-2.43l.3-.11s-1.55-.45-3.07-.38c1.85.33,2.22,3.47,4.23,1.15Z"/>
    <path class="cls-2" d="m900.84,446.82l1.43.15-1.43-.15Z"/>
    <polygon class="cls-2" points="898.36 456.36 897.48 454.47 897.41 455.18 898.36 456.36"/>
    <path class="cls-2" d="m900.67,451.2c.88,1.39.43-1.55,1.4-.36.42.19-1.51-1.67-2.2-1.23.03.5,1.76.54.8,1.59Z"/>
    <path class="cls-2" d="m899.11,457.45l2.04.44-2.04-.44Z"/>
    <path class="cls-2" d="m901.15,461.12l.9-.33c.44,1.7,2.8,2.56,2,4.7.7-.92,2.21-.93,1.59-2.24-.6.21-.91-.19-1.41.32-.21-.61.49-1.02.48-1.53-1.42-.17-1.87-1.88-3.08-1.95.41.19.31.4.42.69-2.33-.34.42-3.05-2.07-1.96,1.02-.04.36,1.91,1.17,2.29Z"/>
    <path class="cls-2" d="m905.78,457.06l-.65-1.32c1.2-.43,1.16,1.31,2.16.78.49-.52-.17-1.84.55-1.75-2.27,1.68-1.37-1.41-3.3,1.19-1.47-1.18.95-1.55-.43-2.94l-1.5.56c1.98,1.16,1.22,2.29,3.18,3.48Z"/>
    <path class="cls-2" d="m908.95,461.6l-.29,1.12.79-1.12c2.2,2.35-.94,7.17.81,8.2,2.9.78,2.05,4.19,3.71,5.95,1.63.28-.13-1.31.37-1.82,2.01-1.04-.27,1.62,1.54.99,1.41-.82-.07-3.04.08-4.47-.73-.6-1.12-.29-2.02.04.59-.73.24-1.64.82-2.37-2.18-.74-.9-3-3.13-3.65.6-1.23,1.05.97.81.36l-.66-.79-.09.21c-1.86-.31-2.56-3.04-2.48-4.27.12.82-.37,1.84-1.19,1.43l.68-1.43-2.75-.06c1.95.17.78,3.14,2.98,1.7Z"/>
    <path class="cls-2" d="m909.69,458.43c-.78-2.13-1.48,1.55-2.47-.68l1.68,1.81.78-1.13Z"/>
    <path class="cls-2" d="m913.26,468.67l-.14,1.42c1.24-1.66-1.9-1.35.14-1.42Z"/>
    <polygon class="cls-2" points="915.6 471.77 913.8 472.42 915.22 472.6 915.6 471.77"/>
    <path class="cls-2" d="m915.9,475.93c1.21.1,1.31-1.13.58-1.73.43.71.02,1.53-.58,1.73Z"/>
    <path class="cls-2" d="m916.27,482.67c-.96-1.44.47,1.54-1.59,1.42.77-.25,2.12-.09,1.59-1.42Z"/>
    <path class="cls-2" d="m915.65,489.69c-.62-.33-.47-.72-.14-1.03.2.4.3.75.14,1.03Z"/>
    <path class="cls-2" d="m907.81,468.83c-.13-.15-.26-.33-.34-.52.12.18.22.34.34.52Z"/>
    <path class="cls-2" d="m908.04,469.17l-.22-.34c.1.12.17.23.22.34Z"/>
    <path class="cls-2" d="m912.54,481.89h0c.02-.08.03-.13.07-.21l-.06.21Z"/>
    <path class="cls-2" d="m880.69,436.14c-.3-.19-.5-.37-.63-.54.21.17.43.35.64.52,0,0,0,0,0,.02Z"/>
    <path class="cls-2" d="m881.96,433.73c1.84.3-1.02,3,1.18,4.19-.82-.54-1.63-1.15-2.44-1.8.46-2.23,1.42.13,1.26-2.39Z"/>
    <path class="cls-2" d="m896.69,446.97s.06.02.1.02c.14.07.05.05-.1-.02Z"/>
    <polygon class="cls-2" points="841.71 384.06 841.26 384.29 841.2 382.83 841.71 384.06"/>
    <path class="cls-2" d="m841,384.66c.07.82.15,1.63.26,2.43-1.16-1.89-2.22-3.86-3.32-5.79-1-1.99-2.09-3.94-3.02-5.97l.81.11c.35-.26,1.48,2.24,2.62,4.73,1.16,2.47,2.41,4.86,2.66,4.5Z"/>
    <path class="cls-2" d="m841.99,384.84c2.43.09.41,2.22,2.47,2.83-1.38-.4-2.7-.5-2.76-1.64l.29-1.19Z"/>
    <path class="cls-1" d="m847.66,386.58c0,.81,1.15,1.06,1.1,1.55-1.51.64-.98-.93-1.1-1.55Z"/>
    <path class="cls-2" d="m853.81,384.97c.08.07.14.16.18.25-.15-.05-.29-.09-.42-.11l.25-.14Z"/>
    <path class="cls-2" d="m853.56,385.12l-.63.36c.12-.33.35-.4.63-.36Z"/>
    <path class="cls-2" d="m853.99,385.22c.34.11.72.26,1.06.24l-.06-.3c.37.23,1.23.49.98.86-.3-.71-.74-.45-1.61.06l.55,1.12c-2.16,1.08-.47-.99-.93-2Z"/>
    <path class="cls-1" d="m856.58,388.23l-1.84-.34c.93-1.01,1.6-.07,1.84.34Z"/>
    <path class="cls-2" d="m856.31,390.67c-.5-.03-1.1-1.15-1.19-.17-.34-.02-.44-.26-.57-.48.74.54,1.65-1.02,1.76.65Z"/>
    <path class="cls-2" d="m854.56,390.02c-.09-.06-.17-.14-.25-.27.12.07.19.17.25.27Z"/>
    <path class="cls-1" d="m842.41,381.2c-.09.23-.24.31-.42.32l.42-.32Z"/>
    <path class="cls-2" d="m856.54,393.65l.26.41c-.08-.12-.18-.21-.28-.29v-.12Z"/>
    <path class="cls-2" d="m826.51,361.74c.19,1.88.3,3.75,2.05,5.98,1.6-.65.84.84,2.59.35-.6-1.23.58,1.08,1.89,3.38,1.41,2.26,2.96,4.49,2.87,3.35l-.98-.27,1.91-.13c.07,1.36-.42,3.55.89,3.89-.19.23-1.47-2.2-2.54-4.71-1.15-2.47-2.08-5.01-2.25-4.72.4-.42,1.05.2,1.82,1.36.78,1.15,1.77,2.79,2.71,4.5.96,1.7,2,3.39,2.79,4.69.81,1.29,1.5,2.13,1.74,2.11l-.88.67c1.96,1.18,3.91,1.52,5.41,2.51l-.96.98c-.22-1.25-1.2-1.06-2.27-1.87,1.24,1.74.76,2.46,1.8,3.74,1.45-.93.03-1.62,1.88-.36-.32.88-2.63.67-1.39,2.07.78,2.13,2.71.41,3.85,1.95l-.15-1.43c.45.55,1.45,1.45,1.04,2.53-.32-.74-2.22-1.94-3.65-.98.76.49,1.18,2.37,1.64,2.93l-1.24.28c-.53,1.29,1.17.72.86,2.12,1.09.4,1.12-1.43,1.82-1.27-.23.38.25,2.26,1.25,2.33,1.85-1.79-1.83-1.36-.43-3.68l.58,1.66c2.67-.51-1.55-2.23.43-2.88,2.86-.4-.59,3.58,2.8,2.7.08-1-1.25-3.08-.32-3.32-.29,1.24,1.54.77,2.47,1.57l-.15,1.86c1.01.04.72-.36.88-1.05.04,2.58,3.5,4.5,3.91,7.98,1.36,1.22,1.02-.49,2.21-.38-.66,1.7,1.36,2.19,1.94,2.98.1.3,1.6-.21,1.91-.81l-2.28-1.37c.72-.4,1.52-1.49.86-2.08-1.98,2.27-.64-3.85-3.41-2l1.24-.87c-.92-.63-1.79-1.28-2.68-1.93l-.11.19c.43-.29-2.43-1.55-2.85-3.36.66.14,1.88,2.83,2.25.49,1.47.53,1.64,3.21,3.59,4.7l.55-.97c1.32.55,2.08,1.75,2.76,3.07.69,1.31,1.32,2.73,2.3,3.71l-1.6.22c.18,1.09.06,2.79,1.57,2.75-.8-.88.2-.9.8-1.11,1.61.75,2.38,3.12,4.23,4.44,0,0-.3.11-.4.31l2.13,1.21c.52.98.13,1.79-.13,2.9.41.18,1.04.96,1.42.13-.08-.21-.16-.43-.32-.48,1.92-.11.19.91,1.85,1.41-1.71-.02-1.15,1.46-2.23,2.22,1.55.93,1.86-1.4,2.45-1.63.78,2.07.12,3,1.31,4.75.68-.44-.57-1.48,0-2.21.23.59.75,1.06,1.05.95l-.37-1.39c.71,2.27,1.9,4.02,4,5.41l.18-.41.97,1.15-1.48.59c.83.35.41,1.89,1.6,1.42l-.12-.3,1.04.44-1.81.21c.39,1.4,3.89.68,5.11,2.42-1.21,1.7-2.97-2.25-5.1-.7.15.8.63,1.99,1.43,1.84.47-.54.14-.92-.18-1.31,2.25.47,2.48,4,4.97,3.35l-.31-1.6c1.29,1.04-.06,3.66,1.42,3.06l-2.79.77c2.05.38,3.28,2.14,5.04,2.65,1.15-.98-1.53-1.64-1.23-1.76l1.31-.17c.97,2.39-.23,1.13,1.07,3.91l.77-.65c-.5,1.75,3.46,1.77.79,2.81l-.06-1.01-.86.86,2.87,2c-.9.35.39,1.41-.8,1.87l1.64.23c-.92,1.57-3.07-.38-4.14.4-.57.56-.1.93.17,1.08-1.95-.28-.19-2.82-1.16-3.97l-1.31.17,1.16-.97c-.62-.28-1.72-.01-2.32.23.55-2.47-2.36-2-3.5-3.96,1.88.8.29-1.84.79-1.87-.66-.77-4.32-.86-3.52-2.73.14-.92,1.63.2.94-1.07-.74-.56-1.75-.5-1.9.42-1.7-1.22-3.05-3.26-4.56-4.9l1.1-.27c-.3-1.6-2.22-1.69-3.53-1.52.18-.41-.12-.3.47-.53.08-2.43-3.04-.34-4.69-2.79-.96,1.06-.19,2.13.93,2.38l-1.37.88c1.62,1.95,3.77,3.86,5.85,4.76l-1.51.08c-.44,2.77,2.4-.44,1.67,2.44,1.25.54.02-1.22,1.15-.98.24.96-2.23,1.69-1.33,2.85-4.26-3.55-8.34-8.31-12.28-12.53-.3.11-.18.41-.07.71-1.48-.04-3.73-4.09-5.96-7.87-2.26-3.76-4.44-7.31-6.3-6.21.31-.61,1.42-.28.62-1.21-.3.09-.81.08-1.12.69-.03-1.95-1.15-3.37-2.39-4.83-1.21-1.48-2.57-2.95-3.02-4.93-.53.47-1.32,0-1.74.27.64-2.01-2.08-2.84-1.95-4.39l-.47.78-2.06-3.25c-.32.06-.05.51.03.83-.78-.51-.1-1.15.46-1.59-.8-.17-1.62-.34-2.41-.53-.02-2.94-1.8-5.12-3.64-7.47-.47-.58-.94-1.17-1.41-1.76-.44-.61-.87-1.23-1.25-1.88-.75-1.3-1.41-2.65-1.55-4.19-1.62-.23-2.47-.7-3.22-2.01l-.09.84c-1.7-.95.62-.36-.43-1.33-1.17-.47-2.06.57-.85,1.38-.13.88-.77.65-1.3.28-.47-1.12-.83-2.28-1.11-3.43-.28-1.15-.5-2.3-.63-3.44-.2-2.3-.01-4.6.6-6.8Z"/>
    <path class="cls-2" d="m919.9,504.23c.4-.7,1.28,1.36,2.08-.25.5-2.2-.53-4.34-1.59-6.52-1.17-2.15-2.37-4.35-2.61-6.72.31-1.54.17-1.82.1-3.01-.2.11-.46.26-.65.44-.53-1.06-1.95-2.42-2.03-3.79-.43-.12-1.47.29-.9.68-1.76-.96-.05-3.71-1.35-4.06-.09,1.13-1.35-.12-1.23,1.07-1.2-1.45,2.06-3.55,1.56-5.06-.3.11-.6.21-.5.51.37-2.32-3.78-3.51-1.71-5.29l-1.31.15c.26-1.11.86-1.34.4-2.53-.83-.37-.78.64-1.29.66.66-.94-1.02-2.32-.42-4.04,1.32-1.11-.74,2.79,1.06,2.6.29-.18.28-.36.19-.54.69,1.07,1.13,2.24,1.43,3.44.29,1.21.45,2.44.63,3.61.39,2.33.77,4.45,2.47,5.76-.48,1.42.84,1.35,2.04,1.02.06-.93-.24-3.32-2.23-1.99l.53-1.95c-.38-.33,1.6-1.73,1.81-2.13.3.91,2.83.43,2.82-1.11,1.63,1.85-4.62,2.29-2.89,3.7l1.6-.73c-1,.2-.59,2.17.28,2.41l.13-.43c2.53,5.17,7.15,11.2,10.55,16.59-1.56,1.68-.66,2.49.24,3.32.92.82,1.93,1.6.66,2.99.82.38.97-1.54,2.01-.55.52.5-.48,1.02-.78,1.12.19.13.38.27.57.41-3.61,2.15-7.53,2.57-11.69.22Z"/>
  </g>
  <g>
    <path class="cls-2" d="m967.76,495.26c.03,1.8-1.3,5-2.6,4.22q1.3.78,1.12,3.36c-.86-.53-1.63,1.46-2.2,2.68,1.16-.63,2-1.91,3.67-4.47-.6-3.48,5.09-6.97,4.19-10.4-1.35,1.42-3.58,2.3-4.18,4.61Z"/>
    <path class="cls-2" d="m955.98,503.04l.33.65,1.46-4.67c-.03,1.09-1.1,4.23-1.8,4.03Z"/>
    <path class="cls-2" d="m949.91,517.4c-.76-.91-2.5.91-3.36.38,1.99,1-1.46,3.57-2.24,5.55l1.08,1.57c2.07-1.18,4.11-5.97,6.37-9.72l-1.85,2.22Z"/>
    <path class="cls-2" d="m946.89,520.24l.28,1.74c.31-1.15,1.46-3.57-.28-1.74Z"/>
    <path class="cls-2" d="m953.57,520.56c1.79-2.93-1.64,1.45-.28-1.74-.31,1.15-.89,2.36.28,1.74Z"/>
    <polygon class="cls-2" points="943.59 531.41 946.45 524.67 944.33 526.94 943.59 531.41"/>
    <path class="cls-2" d="m940.22,529.98c.48-.82,1.76-1.82,1.6-.34-2.46,1.61-1.6,3.94-3.78,5.49l.64-2.3c-1.39-.42-1.12,4.92-3.25,3.57,0,3.6,3.04-1.01,2.14,3.15,1.49-3.56,3.36-5.76,5.33-8.35-.91.56-1.01.94-2.03,1.87,1.06-2.03,1.91-5.09,3.08-7.5-2.14.46-1.81,2.91-3.73,4.4Z"/>
    <path class="cls-2" d="m934.21,539.9c-1.32,2.09-3.27,5.36-1.94,6.88,2.47-1.59,1.31-2.78,1.19-4.2.64-.5,1.97-2.58,2.35-1.21-.54.11-.43-2.08-1.6-1.47Z"/>
    <path class="cls-2" d="m929.11,548.15l.57,2.4.33-1.15,1.12.49c-.16-.33-1.64-2.18-.29-4.25-1.44.65-.7,1.58-1.72,2.51Z"/>
    <path class="cls-2" d="m936.07,552.83c-1.56,1.04-1.62,2.14-2.17,4.05,1.19-2.41,3.14-5.69,2.94-6.73l.15.33s.5-2.62.36-4.75c-.34,2.95-4.32,6.29-1.28,7.1Z"/>
    <path class="cls-2" d="m937.91,549.93l-.12,2.19.12-2.19Z"/>
    <polygon class="cls-2" points="925.64 554.96 928.01 551.97 927.1 552.51 925.64 554.96"/>
    <path class="cls-2" d="m932.32,553.6c-1.73,2.51,1.98-.77.53,1.69-.22.77,2.05-3.66,1.47-4.26-.64.49-.61,3.01-2,2.57Z"/>
    <path class="cls-2" d="m924.3,557.04l-.45,3.33.45-3.33Z"/>
    <path class="cls-2" d="m919.69,563.35l.47.98c-2.17,2.22-3.14,6.36-5.93,7.26,1.22.12,1.35,2.25,2.98.14-.31-.66.18-1.47-.51-1.7.76-.87,1.34-.26,1.99-.75.14-2.18,2.3-4.4,2.33-6.19-.22.76-.49.81-.87,1.24.31-3.65,3.94-2.21,2.4-4.78.1,1.42-2.43,2.27-2.88,3.8Z"/>
    <path class="cls-2" d="m925.15,566.21l1.64-2.13c.62,1.32-1.59,2.83-.86,3.77.69.22,2.33-1.9,2.26-.81-2.27-1.7,1.71-3.21-1.71-3.61,1.41-3.17,2.03-.05,3.71-3.28l-.79-1.64c-1.37,3.88-2.85,3.83-4.25,7.7Z"/>
    <path class="cls-2" d="m919.58,574.86l-1.45.64,1.49.07c-2.8,5.24-9.25,5.45-10.43,8.91-.76,4.75-5.17,6.95-7.27,11-.16,2.5,1.67-1.48,2.39-1.32,1.59,1.7-2.12,1.25-1.08,3.09,1.24,1.09,3.89-3.11,5.73-4.29.68-1.58.23-1.82-.29-2.74.99.09,2.12-1.25,3.12-1.16.73-3.7,3.75-4.07,4.37-7.77,1.62-.31-1.14,2.37-.39,1.47l.95-1.65-.27.07c.23-2.88,3.66-6.42,5.22-7.44-1.02.92-2.37,1.18-1.91-.34l1.88-.37-.1-3.93c-.1,2.89-3.96,4.01-1.96,5.77Z"/>
    <path class="cls-2" d="m923.67,572.97c2.67-3.05-2.08-.67.7-4.09l-2.2,4.03,1.5.06Z"/>
    <path class="cls-2" d="m910.93,587.52l-1.85,1.18c2.27.11,1.55-3.91,1.85-1.18Z"/>
    <polygon class="cls-2" points="907.22 593.75 906.18 591.92 906.12 594.04 907.22 593.75"/>
    <path class="cls-2" d="m901.92,598.27c.03,1.74,1.62.64,2.3-.94-.86,1.28-1.96,1.55-2.3.94Z"/>
    <path class="cls-2" d="m893.25,605.73c1.72-2.84-1.92,2.28-2.09-.62.44.77.46,2.75,2.09.62Z"/>
    <path class="cls-2" d="m883.94,612.62c.33-1.2.87-1.45,1.33-1.35-.49.72-.94,1.26-1.33,1.35Z"/>
    <path class="cls-2" d="m910.22,580.11c.19-.33.4-.68.64-.98-.22.33-.42.65-.64.98Z"/>
    <path class="cls-2" d="m909.81,580.75c.14-.21.28-.43.42-.64-.14.25-.29.46-.42.64Z"/>
    <path class="cls-2" d="m893.73,599.86s0-.01,0-.01c.1-.04.17-.09.28-.13l-.29.14Z"/>
    <path class="cls-2" d="m950.59,511.12c.23-.61.44-1.06.65-1.41-.21.46-.42.94-.63,1.4,0,0-.01,0-.02,0Z"/>
    <path class="cls-2" d="m953.69,510.78c-.3,2.96-3.83,1.22-5.24,5.5.64-1.68,1.38-3.41,2.16-5.17,2.83-1.33-.1,2.19,3.08-.33Z"/>
    <path class="cls-2" d="m937.54,544.09c0,.06-.03.1-.03.16-.08.27-.06.12.03-.16Z"/>
    <polygon class="cls-2" points="1007.4 403.33 1006.96 403.08 1008.61 401.17 1007.4 403.33"/>
    <path class="cls-2" d="m1006.43,403.23l-2.69,3.29,5.28-11.08,5.2-11.12.28,1.02c.49.04-1.78,4.6-4.04,9.1-2.26,4.5-4.56,8.93-4.03,8.79Z"/>
    <path class="cls-2" d="m1006.62,404.64c.82,3.06-2.43,3.22-2.4,6.5-.02-2.19-.39-3.91.92-5.37l1.48-1.13Z"/>
    <path class="cls-1" d="m1006.61,413.78c-.96.99-.85,2.8-1.46,3.32-1.24-1.13.77-2.41,1.46-3.32Z"/>
    <path class="cls-2" d="m1010.53,419.67c-.06.2-.15.38-.26.55.02-.26.03-.5,0-.69l.25.14Z"/>
    <path class="cls-2" d="m1010.28,419.52l-.63-.35c.44-.26.59-.05.63.35Z"/>
    <path class="cls-2" d="m1010.27,420.22c-.04.59-.11,1.27,0,1.7l.35-.46c-.18.78-.26,2.26-.79,2.41.79-1.31.35-1.56-.53-2.05l-1.23,2.15c-1.94-1.49,1.08-1.86,2.2-3.76Z"/>
    <path class="cls-1" d="m1007.27,427.47l-.09-2.89c1.5-.04.53,2.05.09,2.89Z"/>
    <path class="cls-2" d="m1004.19,430.13c-.09-.71,1.14-2.86-.09-1.8-.06-.48.21-.89.44-1.34-.46,1.64,1.7.96-.35,3.14Z"/>
    <path class="cls-2" d="m1004.54,426.98c.05-.2.13-.41.26-.67-.05.24-.15.46-.26.67Z"/>
    <path class="cls-1" d="m1010.98,400.52c-.3.19-.45.11-.54-.09l.54.09Z"/>
    <path class="cls-2" d="m1000.59,434.01l-.44.85c.12-.24.21-.48.28-.72l.15-.13Z"/>
    <path class="cls-2" d="m1023.6,357.44c-1.79,2.82-3.54,5.46-4.76,10.17,1.6.64-.38,1.94,1.13,2.97.95-2.29-.8,2.04-2.49,6.55-1.72,4.49-3.4,9.15-2.19,7.53l-.2-1.41,1.09,1.89c-1.44,1.95-4.15,4.25-3.92,6.16-.7.16,8.71-18.3,7.88-17.83,2.72-.75-10.17,25.88-9.71,26.96l-1.13-.19c-.58,3.81-.2,6.63-.88,9.74l-1.49.04c1.39-1.84.86-2.8,1.36-5.13-1.55,3.71-2.6,4-3.72,6.86,1.59.66,1.91-1.99,1.07,1.9-1.14.68-1.69-2.46-2.89.79-2.26,3.53.37,3.91-1.12,7.23l1.67-1.9c-.53,1.23-1.32,3.63-2.72,4.37.79-1.3,1.67-5.18.08-5.85-.35,1.55-2.45,4.29-2.98,5.53l-.71-1.27c-1.67.8-.52,2.32-2.28,3.52-.17,1.87,2.02-.17,2.02.92-.53.14-2.63,2.88-2.45,4.29,2.63.4,1.14-3.94,4.3-4.78l-1.84,2.68c1.32,2.93,2.28-4.62,3.6-2.78,1.23,3.33-4.48,3.38-2.54,6.88,1.23-1.05,3.42-5.29,3.96-4.33-1.59,1.08-.55,2.96-1.3,5.18l-2.31,1.98c.17,1.42.61.57,1.49-.03-3.17,3.02-4.82,9.99-9.08,14.37-1.26,3.24.78.89.86,2.7-2.2.94-2.5,4.28-3.41,5.96-.36.45.49,2.06,1.29,1.86l1.39-4.71c.61.58,2.1.56,2.73-1.06-3.16-.29,4.71-5.23,1.91-7.06l1.32.75,1.9-5.96-.26.07c.43.25,1.46-5.1,3.56-7.86,0,1.1-3.1,5.92-.09,3.68-.37,2.65-3.66,6.05-5.19,10.45l1.32-.34c-.92,4.98-5.54,9.83-7.74,14.73l-.5-2.06c-1.35,1.43-3.48,3.05-3.25,5.18,1-2.07,1.16-.65,1.5,0-.76,3.1-3.62,6.74-5.12,10.74,0,0-.17-.32-.44-.26l-1.34,4.32c-1.19,1.74-2.25,2-3.68,2.7-.2.77-1.12,2.45-.05,2.2.26-.33.52-.66.58-.93.29,2.7-1.13,1.17-1.63,4.09-.11-2.52-1.93-.27-2.96-1.11-1.05,3.16,1.9,1.36,2.24,2.01-2.54,3.16-3.77,3.08-5.91,6.48.6.59,1.83-2.24,2.8-2.1-.73.9-1.3,2.11-1.14,2.44l1.74-1.86c-2.84,3.2-4.97,6.6-6.61,10.97l.53-.12-1.4,2.5-.83-1.63c-.4,1.54-2.36,2.36-1.71,3.66l.37-.45-.51,1.93-.35-2.46c-1.73,1.86-.69,6.3-2.85,9.69-2.2-.23,2.73-6.39.68-8.1-1.01.95-2.49,2.72-2.27,3.76.7.2,1.17-.63,1.65-1.46-.5,3.73-4.96,7.26-4.03,10.31l2.01-1.9c-1.26,2.81-4.62,3.2-3.81,4.83l-1.09-3.38c-.4,3.34-2.56,6.72-3.16,9.73,1.28.8,2.03-3.69,2.19-3.36l.27,1.74c-2.99,3.53-1.45.68-4.92,5.03l.85.54c-2.24.84-2.09,6.58-3.52,3.64l1.28-.99-1.12-.49-2.41,5.94c-.48-.99-1.76,1.82-2.4.51l-.22,2.57c-2.02.07.34-4.76-.68-5.62-.73-.32-1.19.69-1.36,1.21.28-3.08,3.57-2.81,4.98-5.23l-.26-1.75,1.28.81c.32-1.15-.05-2.51-.37-3.16,3.15-1.4,2.46-5.21,4.9-8.63-.93,3.46,2.34-1.24,2.4-.53.95-1.66.9-7.07,3.3-7.6,1.17-.62-.19,2.57,1.39.41.68-1.6.56-3.02-.61-2.39,1.47-3.58,4-7.39,5.95-11.11l.4,1.36c2-1.91,2-4.81,1.71-6.55.53-.12.37-.45.7.2,3.06-2.15.24-4.76,3.2-9.42-1.4-.4-2.7,1.71-2.93,3.57l-1.2-1.17c-2.33,4.15-4.59,9.01-5.6,12.86l-.19-2.13c-3.49,1.88.69,3.11-2.97,4.66-.62,2.3,1.54-1.07,1.29.79-1.2,1.21-2.24-1.71-3.66.64,2.15-4.69,4.59-9.62,7.17-14.55,2.58-4.93,5.21-9.9,7.62-14.72-.17-.32-.53.13-.89.57-.1-2.16,4.72-9.13,9.03-15.99,4.32-6.85,8.28-13.52,6.6-14.93.79-.2.6,1.67,1.58-.4-.17-.32-.26-1.03-1.05-.83,4.67-4.11,6.07-12.08,10.56-17.61-.7-.18-.35-1.73-.79-1.98,2.54-1.39,2.8-5.83,4.64-7.41l-1.06.28,3.16-6.3c-.18-.32-.61.53-.97.98.35-1.54,1.32-1.44,2.02-1.26l-.2-3.59c6.7-6.93,7.64-19.21,13.87-27.92-.57-2.03-.51-3.51.5-5.99l-.95,1c.12-2.95.71.16,1.19-2.16-.12-1.79-1.7-1.34-1.92.91-1.01.99-1.09.04-.98-.96,3.78-7.57,7.96-14.3,13.22-19.42Z"/>
    <path class="cls-2" d="m865.41,635.82c1.05-.43-1.45,3.38.93,2.25,3.04-2.26,5.65-6.12,8.26-10.15,2.59-4.05,5.2-8.28,8.33-11.29,2.09-1.34,2.42-1.83,3.98-3.25-.18-.15-.43-.31-.7-.37,1.29-1.89,2.85-5.27,4.63-6.86.09-.71-.6-1.69-1.02-.49.99-3.46,4.86-4.06,5.14-6.18-1.49,1.07-.02-1.98-1.56-.55,1.77-3.19,4.91-.9,6.8-3.13-.17-.3-.34-.61-.72-.16,3.05-1.84,4.13-8.78,6.64-7.68l-.32-1.67c1.47-.73,1.82-.12,3.32-1.91.4-1.51-.9-.47-.97-1.15,1.27.02,2.92-3.69,5.17-4.48,1.54.79-3.65,1.63-3.26,3.98.26.22.49.05.71-.25-5.27,7.99-13.08,11.77-16.08,19.11-1.93.85-1.65,2.56-1.04,3.83,1.2-.92,4.29-3.78,2.29-5.1l2.61-1.29c.39-.86,2.45.41,3,.28-1.14,1.34-.14,4.23,1.82,2.69-2.14,4.04-3.6-3.9-5.18-.13l1.18,1.4c-.4-1.13-2.9,1.43-3.08,2.85l.58-.28c-3.14,4.38-6.41,9.72-9.66,15.25-3.24,5.53-6.39,11.29-9.34,16.46-5.2.17-3.37,8.18-7.79,8.63-.21,1.42,2.29-.75,1.39,1.65-.45,1.2-1.46.69-1.7.47-.11.38-.22.77-.33,1.16-4.02-1.47-5.98-5.34-4.01-13.63Z"/>
  </g>
</svg>