<?xml version="1.0" encoding="UTF-8"?>
<svg id="Layer_2" data-name="Layer 2" xmlns="http://www.w3.org/2000/svg" viewBox="0 0 787 698">
  <defs>
    <style>
      .cls-1 {
        fill: none;
        stroke: #fff;
        stroke-linecap: round;
        stroke-linejoin: round;
      }

      .cls-1, .cls-2 {
        stroke-width: 0px;
      }

      .cls-2 {
        fill: #fff;
      }
    </style>
  </defs>
  <g>
    <path class="cls-2" d="m611.17,474.96c.08-1.62.48-3.54,1.03-5.51.52-2,1.3-3.97,2.11-5.75,1.67-3.51,3.76-6.04,5.84-4.97-4.19-2.15-4.07-2.14-3.77-11.48,1.41.68,2.65-.9,3.76-3.24,1.07-2.38,2-5.51,2.74-7.96-1.76,1.6-3.26,3.68-4.91,6.66-.83,1.48-1.73,3.16-2.71,5.12-1.03,1.91-2.09,4.15-3.43,6.59,1.02,6.03-3.18,12.8-7.57,18.93-4.39,6.21-8.94,11.69-8.63,17.53,1.29-1.1,2.72-2.11,4.23-3.12,1.48-1.03,2.99-2.11,4.47-3.28,1.45-1.2,2.81-2.54,4.02-4.07,1.16-1.58,2.16-3.35,2.81-5.44Z"/>
    <path class="cls-2" d="m649.3,438.37l-1.2-2.17c-1.2,6.45-2.54,12.89-4.07,19.33.03-1.06.25-2.67.57-4.49.33-1.82.8-3.83,1.3-5.72,1.03-3.77,2.26-7.01,3.41-6.94Z"/>
    <path class="cls-2" d="m661.24,376.69c3.06,2.38,6.72-7.07,9.72-6.46-3.42-.35-3.15-4.25-2.16-9.2.99-4.94,2.6-11.06,2.36-15.42-1.72-1.24-3.44-2.44-5.16-3.61-1.97,4.05-2.86,11.12-4,19.35-1.12,8.23-2.49,17.64-4.69,26.1,1.39-3.55,2.68-7.14,3.93-10.75Z"/>
    <path class="cls-2" d="m667.51,361.58c-.91-2-1.83-3.97-2.76-5.91.49,4.66-.48,15.48,2.76,5.91Z"/>
    <path class="cls-2" d="m647.51,370.36c-1.33,6.32-.49,4.52.65,2.74,1.05-1.77,2.4-3.55,1.73,3.05-.03-4.54.5-9.56-2.39-5.79Z"/>
    <path class="cls-2" d="m659.8,316.35c1.9,9.32,3.12,18.83,3.59,28.45.43-1.97.9-3.95,1.3-5.94l1.11-6.02-1.38-4.21-.69-2.08-.76-2.07-1.52-4.1-1.65-4.03Z"/>
    <path class="cls-2" d="m670.79,313.44c.2,1.96-.02,4.53-.58,5.91-.63,1.39-1.49,1.59-2.7-1.06,1.53-5.48.5-9.77-.71-13.82-1.21-4.08-2.57-7.94-1.99-13.16.68,1.46,1.3,2.94,1.91,4.44.6,1.49,1.26,2.98,1.83,4.5,1.03-.53,1.01-1.97.52-3.85-.48-1.88-1.42-4.18-2.35-6.41-.45-1.12-.87-2.23-1.19-3.27-.33-1.04-.59-2.01-.65-2.87-.13-1.72.45-3.01,2.36-3.43-4.49-5.51-5.38-2.57-6.19-.32-.41,1.14-.86,2.15-1.68,1.95-.8-.2-2.08-1.59-4.22-5.17,3.04,7.06,4.6,13.6,5.55,19.87.97,6.28,1.14,12.37,1.23,18.75.61-1.93.72-3.26.8-4.78.06-1.52.12-3.23.28-5.93.92,4.49,2.24,9.74,3.49,15.27.28,1.39.55,2.79.83,4.19l.41,2.11.32,2.12c.21,1.41.4,2.82.58,4.22.14,1.4.23,2.78.31,4.14,1.24-1.48,1.93-3.12,2.18-4.87.25-1.75.16-3.62,0-5.58-.21-1.96-.52-4.01-.63-6.16-.13-2.15-.15-4.39.32-6.79Z"/>
    <path class="cls-2" d="m660.59,266.55c-1.6-4.86-3.83-11.02-6.77-15.8-1.41-2.42-3.01-4.47-4.62-5.92-1.59-1.46-3.25-2.27-4.88-2.18.32,2.8.73,4.9,1.43,6.47.69,1.57,1.52,2.69,2.47,3.55,1.9,1.74,4.32,2.49,6.35,4.26.39,3.21,3.51,12.77-.82,10.03.33-.91,1.91.22,3.48.98,1.53.77,3.07,1.17,3.35-1.39Z"/>
    <path class="cls-2" d="m644.5,229.65c-2.78-1.28-5.55-2.5-8.29-3.68l3.19,3.59-2.94,2.37c.61.12,2.85.05,5.48,1.15,1.32.55,2.75,1.38,4.15,2.65,1.37,1.29,2.66,3.04,3.76,5.36.04-3.02-.92-4.57-2.06-6-1.18-1.42-2.52-2.74-3.28-5.44Z"/>
    <path class="cls-2" d="m620.97,240.68c-.24-1.66-.63-3.06-1.15-4.3-.55-1.23-1.23-2.3-2.03-3.32-.79-1.03-1.72-2.01-2.8-3.02-1.08-1.01-2.24-2.11-3.58-3.36,3.04,3.92,6.45,8.87,9.29,13.16,1.47,2.12,2.77,4.09,3.96,5.6,1.21,1.51,2.21,2.61,3.03,3.02l-1.18-.26s.43.44,1.15,1.17c.75.73,1.8,1.75,3,2.92,1.2,1.18,2.61,2.52,4.11,3.85,1.46,1.35,3,2.7,4.54,3.88-3.73-4.06-6.49-10.71-9.35-15.49-1.48-2.36-2.87-4.28-4.36-5.1-1.5-.82-3-.58-4.64,1.26Z"/>
    <path class="cls-2" d="m626.68,251.99c-2.02-1.67-3.99-3.32-6.06-4.88,2.07,1.56,4.04,3.22,6.06,4.88Z"/>
    <path class="cls-2" d="m625.83,204.02l2.03,3.36,1.94,3.41c1.31,2.26,2.52,4.57,3.74,6.87l-.82-4.05c-2.24-3.24-4.5-6.47-6.89-9.59Z"/>
    <path class="cls-2" d="m623.43,227.87c-2.94-5.09-2.92-3.16-2.9-1.16.02,2,0,4.08-3-.42-.53-.52-.23.03.55,1.15.39.56.91,1.25,1.5,2.03.57.79,1.22,1.66,1.91,2.54.68.88,1.42,1.77,2.12,2.63.69.86,1.39,1.67,2.04,2.36,1.3,1.38,2.44,2.28,3.07,2.17-.28-1.49-2.39-3.49-3.98-5.53-1.65-2.01-2.83-4.04-1.33-5.76Z"/>
    <path class="cls-2" d="m619.75,195.79c-1.91-1.21-3.78-2.41-5.68-3.58l-5.74-3.39,5.74,3.39c1.9,1.17,3.78,2.37,5.68,3.58Z"/>
    <path class="cls-2" d="m599.09,170.72c-1.25.1-2.51.24-3.77.38-3.88-5.04-9.88-9.39-15.41-13.55-2.8-2.03-5.44-4.09-7.65-6.29-.56-.55-1.07-1.12-1.58-1.67-.51-.54-1-1.09-1.44-1.65-.89-1.13-1.64-2.31-2.21-3.56-.01,2.03-2.08,2.83-3.03,3.98-.95,1.15-.81,2.63,3.47,5.95,2.41-.59,5.56,1.71,6.3-.45,3.44,3.26,1.2,4.73,3.13,7.29,4.13,1.08,8.25,4.12,12.11,7.14,3.85,3.04,7.41,6.09,10.7,7.31-2.74-1.7-2.83-2.72-4.38-4.49,3.39,1.36,5.48,3.15,6.94,4.89,1.4,1.8,2.13,3.6,2.74,5.15,1.22,3.12,1.9,5.27,6.93,4.68-1.29-.47-2.37-1.41-3.36-2.64-.98-1.23-1.87-2.74-2.83-4.28-.95-1.54-1.88-3.18-2.97-4.61-1.1-1.43-2.3-2.7-3.69-3.58Z"/>
    <path class="cls-2" d="m587.07,185.54c1.13,1.3,2.29,2.56,3.38,3.88l3.28,3.95c-2.46.22-4.64-1.96-6.79-3.91-1.07-.98-2.09-1.94-3.07-2.57-.98-.62-1.94-.87-2.81-.51-.25.51-.01,1.35.42,2.3.42.97,1.02,2.05,1.54,3.03,1.04,1.95,1.73,3.46-.11,2.8,3.45-2.8,5.96-.46,8.01,1.2,2.01,1.68,3.55,2.79,5.21-2.52,5.06,4.4,4.7,6.14,4.41,7.89-.15.88-.31,1.79.17,3.1.46,1.32,1.53,3.05,3.86,5.59,2,.02,4.02.05,6.06.11-5.79-5.36-8.56-8.94-11.32-12.64-2.85-3.58-5.71-7.29-12.26-11.7Z"/>
    <path class="cls-2" d="m556.3,160.48l-2.77-5.13.18,4.95c-1.23-.73-2.4-1.49-3.51-2.3-1.14-.74-2.23-1.51-3.27-2.31-2.07-1.6-3.95-3.33-5.68-5.12-.85-.92-1.73-1.76-2.56-2.64-.83-.87-1.64-1.76-2.42-2.65-1.56-1.78-3.04-3.59-4.48-5.36-2.92-3.45-5.76-6.61-8.73-9.26-.75-.65-1.49-1.29-2.27-1.83-.79-.53-1.59-1.01-2.4-1.44-1.64-.86-3.35-1.51-5.16-1.87-4.72-.39-9.15-1.16-13.37-2.51-4.19-1.42-8.32-2.93-12.42-4.71-4.08-1.84-8.27-3.47-12.56-5.01-4.27-1.61-8.75-2.66-13.4-3.27-9.53,1.95,8.27,3.52,8.75,5.87-1.94,3.11-3.89,1.89-6.05.42-2.15-1.45-4.54-3.11-7.03-.67-.95,2.38,3.44,4.51,8.88,6.57.68.25,1.38.51,2.08.77.7.29,1.41.57,2.12.86,1.41.58,2.83,1.17,4.19,1.73,2.7,1.18,5.18,2.24,6.84,3.5,6.6,1.05,6.92-.48,9.68-2.66.94,3.03,7.16,5.97,7.89,9.13,1.79.06,3.44.26,4.98.56,1.53.31,2.91.83,4.23,1.35,2.63,1.07,4.94,2.39,7.23,3.69,2.27,1.34,4.47,2.81,7.02,3.93,2.54,1.14,5.43,1.97,8.9,2.58,1.07,2.64-1.28,1.69-3.41.39-2.16-1.25-4.19-2.75-2.25-1.62l1.7.71,1.66.79,3.32,1.59-.43-.9c2.66.26,5.67,1.11,8.64,2.48,2.93,1.45,5.9,3.3,8.65,5.26,1.4.94,2.65,2.06,3.85,3.13,1.2,1.07,2.31,2.13,3.32,3.15,2.02,2.04,3.65,3.83,4.56,5.33-.42-.5-.8-1-1.14-1.5-.36-.48-.67-.95-.94-1.41-.52-.92-.84-1.77-.86-2.43-.05-1.33,1.05-1.92,3.94-.8.58,2.11,1.05,4.33,1.55,6.47,4.69.73,9.56,1.44,14.3,2.5-1.32-.35-2.53-.86-3.65-1.49-1.12-.63-2.21-1.3-3.21-2.06-2-1.51-3.75-3.26-5.37-4.78-.82-.75-1.57-1.48-2.36-2-.79-.53-1.55-.95-2.3-1.18-1.5-.47-2.95-.22-4.44,1.23Z"/>
    <path class="cls-2" d="m563.52,174.95c1.35,1.31,2.39,2.19,3.22,2.76.8.59,1.38.86,1.84.91.91.1,1.28-.66,1.69-1.41.41-.75.85-1.48,1.94-1.28,1.09.19,2.85,1.3,5.71,4.36-4.53-3.67-9.31-6.99-14.19-10.22l-.2,4.87Z"/>
    <path class="cls-2" d="m503.54,132.08l-6.5-5.26c1.12,3.61,5.16,4.36,7.76,4.5.65.04,1.21.02,1.59.04.39,0,.61,0,.6.02-.01.02-.26.05-.8.14-.55.1-1.42.28-2.65.55Z"/>
    <path class="cls-2" d="m475.97,124.41c1.76-1.55,3.54-3.09,5.35-4.62l-7.96,1.53,2.61,3.1Z"/>
    <path class="cls-2" d="m451.15,113.02c-3.14,1.05-3,2.4-1.25,3.5.88.55,2.15,1.04,3.64,1.41.74.18,1.54.32,2.36.45.82.15,1.67.25,2.52.31-2.99-.69-5.23-1.56-6.5-2.64-1.27-1.05-1.59-2.19-.77-3.03Z"/>
    <path class="cls-2" d="m407.04,99.47c6.97-.03,3.89-.37.28-1.35-3.59-1-7.8-2.51-2.76-5.15-.91,1.18-3.12,2.68-3.67,3.93-.28.62-.15,1.18.76,1.6.9.4,2.58.75,5.39.97Z"/>
    <path class="cls-2" d="m359.65,90.06c2.57-1.01,4.46-1.29,5.8-1.2,1.35.09,2.15.58,2.6,1.21-1.93.23-3.68.38-5.13.39-1.44.02-2.57-.07-3.28-.39Z"/>
    <path class="cls-2" d="m531.17,128.27c1.46.61,3.04,1.26,4.38,2.08-1.49-.71-2.9-1.38-4.38-2.08Z"/>
    <path class="cls-2" d="m528.3,126.92c.95.45,1.92.9,2.87,1.35-1.1-.46-2.05-.92-2.87-1.35Z"/>
    <path class="cls-2" d="m429.64,91.8s.04,0,.05,0c.37.2.72.34,1.08.59l-1.13-.58Z"/>
    <path class="cls-2" d="m663.39,401.43c-.4,2.63-.84,4.64-1.33,6.2.44-2.04.88-4.11,1.28-6.14.02-.04.03-.04.06-.06Z"/>
    <path class="cls-2" d="m653.88,406.36c-.26-5.76,2.51-8.01,5.64-11.16,3.08-3.14,6.59-7.22,7.02-16.38-.59,7.31-1.72,14.94-3.21,22.66-4.08,4.27-4.28,2.12-4.55.63-.27-1.51-.57-2.34-4.91,4.24Z"/>
    <path class="cls-2" d="m643.41,264.62c-.15-.16-.22-.33-.39-.48-.58-.88-.2-.46.39.48Z"/>
    <path class="cls-2" d="m261.85,566.49l-.74,1.38-4.13-3.07c-1.36-1.03-2.75-2-4.05-3.13,1.43.91,2.95,1.64,4.44,2.45l4.48,2.37Z"/>
    <path class="cls-2" d="m261.96,569.65l7.42,4.72c2.52,1.5,5.08,2.93,7.64,4.41-4.06-1.44-8.14-2.83-12.13-4.54l-3.01-1.23c-1.01-.4-2-.82-2.98-1.3l-5.91-2.76c-1.99-.87-3.87-1.99-5.81-2.99l-2.89-1.54-1.44-.77c-.48-.27-.94-.56-1.41-.84l-5.61-3.42-1.4-.86c-.46-.3-.9-.62-1.36-.93l-2.7-1.88-2.7-1.88-1.35-.94c-.44-.32-.87-.68-1.3-1.02l-5.17-4.11c-1.74-1.32-3.39-2.9-5.08-4.37-.83-.76-1.62-1.55-2.43-2.33-.8-.78-1.62-1.55-2.38-2.38-6.23-6.44-11.79-13.49-16.51-21.07,1.22.61,2.41,1.21,3.66,1.75.42-.71,3.4,3.62,8.51,9.79,1.27,1.55,2.72,3.18,4.24,4.91,1.58,1.68,3.21,3.5,5.03,5.25,1.76,1.81,3.73,3.56,5.69,5.32,2.02,1.67,4.08,3.37,6.13,5.06,8.38,6.55,17.38,12.17,24.26,15.65,1.68.95,3.3,1.6,4.68,2.24,1.39.62,2.59,1.13,3.56,1.51.97.38,1.7.63,2.17.73.48.08.68.02.57-.2Z"/>
    <path class="cls-2" d="m267.44,569.29c1.44-.27,2.73-.35,3.91-.27,1.18.08,2.29.23,3.33.54,2.07.59,3.9,1.64,5.79,2.77,1.91,1.08,3.9,2.18,6.2,3,1.15.4,2.37.77,3.72.92,1.35.16,2.8.18,4.39.03-2.11.2-4.12.49-6.03.66-1.9.15-3.73.26-5.51.22-3.58,0-6.94-.82-10.33-2.93-1.88-1.55-3.69-3.26-5.47-4.93Z"/>
    <path class="cls-1" d="m302.41,567.73c2.34,1.23,5.19,1.53,7.74,1.73,2.57.16,4.88.15,6.21.92-1.36,2.25-3.86,2.05-6.5,1.05-2.63-1.06-5.39-2.87-7.45-3.71Z"/>
    <path class="cls-2" d="m319.66,552.27c.76.06,1.49.21,2.2.41-.93.12-1.78.26-2.44.45l.23-.86Z"/>
    <path class="cls-2" d="m319.43,553.13l-.57,2.16c-1.39-1.17-.81-1.76.57-2.16Z"/>
    <path class="cls-2" d="m321.87,552.68c2.08-.27,4.6-.65,5.96-1.32l-2-.69c2.93-.09,8.13-1.01,9.29.4-2.78-.58-4.2-.57-5.06.03-.85.59-1.12,1.74-1.46,3.26,2.98.7,6.04,1.26,9.08,1.85-1.4,3.54-3.41,3.14-6.05,1.65-2.61-1.57-5.83-4.18-9.76-5.19Z"/>
    <path class="cls-1" d="m351.01,555.24c-3.35,1.06-6.69,2.04-10.09,3.06-2.07-4.38,6.53-3.49,10.09-3.06Z"/>
    <path class="cls-2" d="m364.84,561.43c-1.19.51-4.17.46-6.14.58-1.97.1-2.94.38-.15,1.63-1.64.69-3.47.31-5.42.09,6.55-.36.94-5.87,11.72-2.3Z"/>
    <path class="cls-2" d="m353.12,563.73c-.78.04-1.64.05-2.78-.08.95-.1,1.88-.02,2.78.08Z"/>
    <path class="cls-1" d="m249.88,553.55c.79,1.09.49,1.53-.24,1.72l.24-1.72Z"/>
    <path class="cls-2" d="m384.31,567.34l3.71.21c-1.06-.05-2.05,0-3,.07l-.71-.28Z"/>
    <path class="cls-2" d="m184.3,393.26c-5.53,6.33-10.28,13.33-13.78,21.86-.43,1.07-.87,2.15-1.27,3.26-.37,1.12-.73,2.26-1.08,3.42-.17.58-.35,1.17-.52,1.76-.14.6-.28,1.2-.42,1.8-.28,1.21-.55,2.45-.8,3.72-.85,5.07-1.31,10.55-1.03,16.43,2.64-.07,2.91,2.24,3.22,4.75.31,2.51.85,5.21,3.63,5.77-.12-2.82-.13-3.6-.08-2.86.07.74.1,3.03.49,6.3.09.82.17,1.7.29,2.64.14.93.29,1.91.44,2.95.27,2.07.77,4.29,1.23,6.64,1.06,4.67,2.46,9.78,4.26,14.74,1.82,4.96,3.94,9.81,6.17,14.09,2.25,4.26,4.5,8,6.48,10.8,1.94,2.83,3.58,4.74,4.44,5.51.86.76.99.36.14-1.59-.78-.5-1.59-1.01-2.37-1.53l-2.31-1.62c1.24.32,2.48.63,3.71.92,1.24.28,2.5.53,3.73.77,1.96,4.56,4.1,10.27,6.97,15.15,2.84,4.87,6.24,8.99,9.86,10.2.02.32-.94-.38-2.62-1.85-.81-.77-1.79-1.74-2.92-2.87-1.13-1.13-2.31-2.52-3.64-4-5.21-6.03-11.42-14.9-16.19-24.5-2.39-4.79-4.53-9.71-6.19-14.41-1.65-4.71-3.01-9.14-3.91-12.95-1.87-7.6-2.51-12.55-2.85-11.65.66-1.08,1.51-.04,2.51,2.53.98,2.58,2.3,6.65,4.06,11.65,1.77,4.99,4.16,10.86,7.2,16.99,3.03,6.14,6.81,12.52,11.15,18.56,4.33,6.05,9.24,11.77,14.33,16.69,1.28,1.22,2.58,2.39,3.84,3.55,1.32,1.1,2.59,2.2,3.86,3.22,2.62,1.95,5.12,3.81,7.43,5.54,2.43,1.56,4.68,2.99,6.69,4.28.99.66,2,1.18,2.92,1.67.93.49,1.79.94,2.57,1.36,1.58.81,2.87,1.44,3.83,1.85.99.37,1.64.52,1.89.46l-.49,3.59c1.87.51,3.66.95,5.39,1.34,1.73.39,3.46.59,5.09.84,1.64.23,3.23.43,4.78.61,1.55.16,3.11.23,4.6.33,3.01.19,5.87.41,8.81.53,2.93.14,5.79.5,8.86.79l1.37,4.72c-2.03-1.01-3.76-1.61-5.34-2.04-1.56-.46-3-.69-4.48-.84-1.48-.15-3.01-.19-4.75-.32-1.72-.19-3.65-.45-5.96-.93,1.89.69,3.57,1.34,5.09,1.97,1.52.61,2.92,1.11,4.17,1.64,1.26.52,2.4,1.03,3.47,1.52.53.25,1.05.49,1.56.73.51.22,1.01.44,1.51.65,1.97.86,3.84,1.68,5.97,2.47,2.12.8,4.55,1.4,7.57,2.05.47-2.62-1.87-3.94-2.39-4.46-.26-.26-.07-.31,1.16-.23.61.05,1.48.12,2.69.22,1.2.1,2.72.25,4.67.31,1.87,1.59,0,3.21-.67,4.7-.67,1.47-.08,2.85,6.85,3.9,4.06,1.19,7.01,1.59,9.35,1.48,2.35-.14,4.09-.71,5.77-1.35,3.34-1.25,6.43-2.91,13.6-2.09l-9.32-3.38c2.64.27,6.44.49,10.17,1.06,3.75.49,7.4,1.43,9.8,3.11-1.5-.23-3.58-.41-5.89-.38-2.3.01-4.84.24-7.18.55-4.69.68-8.76,2.17-8.97,4.8,1.59-.02,3.61.15,5.84.51,2.23.35,4.66.86,7.07,1.3,2.42.47,4.81.94,6.93,1.35,2.13.36,3.99.63,5.35.71l-3.71,3.34c2.8,2.04,5.21,1.86,7.81,1.63,2.6-.26,5.38-.53,9.04,1.39,7.27-1.57-3.89-5.67.2-6.87.68.69,4.41,1.78,8.61,2.44,4.2.6,8.85.8,11.3-.34-1.49-3.97-5.56-3.63-10.34-3.31-4.77.29-10.27.53-14.28-3.64,4.25.85,8.52,1.63,12.8,2.39,4.31-3.57-.85-3.9-6.49-4.1-5.64-.25-11.77-.39-9.4-3.29,5.15-3.57,9.91-1.21,14.74.76,2.4,1.02,4.8,1.9,7.2,1.96,2.39.07,4.78-.74,7.13-3.19-2.91-1.08-9.06-1.97-14.16-2.98-5.11-.99-9.12-2.1-7.8-3.39,6.38,3.43,11.57-1.7,20.65-2.22,3.59,1.38,7.2,2.76,10.83,4.06,4.71-2.3.96-2.46-2.6-4.17,7.95,2.58,18.78,2.55,30.3,2.15,11.54-.4,23.69-1.25,35.14.07,6.52-1.38,6.76-2.38,6.14-3.33-.64-.97-2.16-2.01.55-3.82,1.88.9,4.01,1.25,6.21,1.16,2.2-.1,4.5-.57,6.77-1.18,2.26-.67,4.48-1.5,6.57-2.23,2.09-.74,4.02-1.5,5.76-1.9,1.07-.1,2.27-1.46,2.82-3.04.57-1.57.56-3.26-.63-3.91-2.67,1.23-5.43,2.36-8.16,3.55-2.78,1.07-5.55,2.23-8.39,3.26.19-1.3-.57-2.83-2.1-3.83-1.55-1.02-3.84-1.42-6.9-.68,1.45,2.08.59,3.01-1.54,3.41-1.06.2-2.43.27-3.98.27-1.56-.03-3.29-.13-5.06-.22-.88-.03-1.78-.07-2.66-.11-.89-.05-1.78-.08-2.64-.09-1.73-.02-3.36.06-4.78.32-2.86.45-4.87,1.63-5,4.22l-.11-4.69c-7.51,1.65-15.15,3.1-22.92,4.27l.7.61c.01-.39-1.21-.36-3.25-.12-2.06.25-4.95.59-8.25.98-6.62.67-14.97,1.18-21.51-.2.96-.34,3.05-.41,5.44-.43,2.39-.05,5.07-.04,7.24-.16,4.34-.3,6.55-1.1.23-3.78,2.42-.63,5.28-.83,8.5-.79,3.2-.04,6.79.24,10.58.37,7.6.37,16.19.54,24.61-1.18l-3.55-2.88c8.71-2.86,18.77-3.63,29.06-4.6,10.24-.96,20.8-2.2,29.61-5.4-1.36,1.93-2.78,3.77-4.23,5.68,1.73-.07,3.62-.02,5.56-.07,1.92-.08,3.91-.21,5.84-.48,1.94-.26,3.76-.82,5.44-1.56,1.67-.75,3.16-1.77,4.29-3.23-1.87.82-3.13,1.12-3.9,1.15-.77.03-1.07-.23-1.11-.65-.07-.84.89-2.32,1.25-3.43,4.64-3.05,10.84-5.39,17.26-8.38.81-.36,1.62-.73,2.45-1.1.82-.37,1.61-.8,2.42-1.2,1.61-.83,3.27-1.63,4.86-2.53,1.57-.93,3.14-1.88,4.68-2.87,1.54-.98,2.95-2.13,4.37-3.24,0,0-.1,1.16.77,1.37,1.93-1.67,3.71-3.5,5.51-5.27,1.84-1.73,3.47-3.64,5.18-5.44,1.52-.88,2.78-1.61,4-2.11,1.22-.51,2.36-.84,3.49-1.07,2.24-.48,4.34-.65,6.95-1.06.81-1.07,2.32-2.78,3.21-4.2.9-1.42,1.15-2.53-.61-2.57-1.14.79-2.27,1.59-2.73,2.4.95-4.32,2.12-4.89,3.55-5.62.71-.36,1.51-.73,2.39-1.55.85-.84,1.9-2.06,2.74-4.31-.33,2.01-.22,3.12.27,3.73.49.61,1.35.74,2.34.69,1.93-.12,4.44-.92,5.72.71,1.48-2.47,1.89-4.01,1.64-5.03-.23-.99-1.06-1.39-2.06-1.56-1.98-.3-4.78.15-5.07-.94,1.29-1.03,2.35-2.06,3.42-2.91,1.08-.87,2.04-1.65,2.94-2.38.91-.73,1.8-1.37,2.63-2.01.83-.66,1.62-1.28,2.41-1.91,3.15-2.55,6.15-5.35,9.89-11.45-.92-.96-2.43,1.12-4.21,3.23-1.74,2.17-3.71,4.4-5.22,4.15.65-.74,1.27-1.55,1.84-2.36.54-.84,1.03-1.68,1.42-2.46.79-1.54,1.18-2.87.93-3.41-.95,1.11-1.96,2.14-2.93,3.2l-1.47,1.57-1.51,1.51c4.92-5.2,9.11-11.1,12.59-17.76,3.48-6.66,6.22-14.09,8.26-22.5l-1.65.83,1.89-4.98,1.84-5.05,3.09,5.19c.42-2.94,2.09-5.6,3.36-8.05,1.25-2.46,2.1-4.72.81-6.79l-.99,1.98c.3-2.5.58-5.03.84-7.52.71,2.87,1.4,5.78,2.06,8.68,2.41-4.22,2.32-10.22,2.1-16.8-.21-6.6-.57-13.74,1.41-20.71,3.4-.85,2.63,5.42,1.54,12.5-1.06,7.07-2.39,14.94,1.16,17.09,2.77-4.5,6.43-12.56,5.11-16.07-2.28.04-3.23,3.51-4.28,7.02-.2-7.01,2.5-14.77,4.32-22.05,1.85-7.26,2.84-14.06-.15-18.43-1.27,2.97-2.63,5.92-4.02,8.85.58-5.44,3.02-9.51,4.89-12.89,1.84-3.36,3-5.96.84-7.92,1.21,1.5,2.43,3.03,3.64,4.59,1.18,1.57,2.35,3.16,3.52,4.79-1.28-5.91-1.58-12.35-2.17-18.54-.6-6.21-1.41-12.3-3.36-17.25-1.17.04-1.67.97-1.79,2.32-.11,1.35.17,3.13.47,4.91.7,3.54,1.63,7.07,1.18,6.72-1.14-1.6-2.24-3.17-3.46-4.7.24-1.94.51-3.48.68-4.72.17-1.24.34-2.17.5-2.91.32-1.48.65-2.18.91-2.98.49-1.61,1.25-3.61.98-13.43l-3.1.37c.45-.89.65-1.92.68-3.02,0-1.1-.19-2.27-.46-3.45-.52-2.37-1.61-4.76-2.42-6.77-1.72-3.99-2.68-6.55,2.22-4.51l-.21,2.82-.3,2.81,3.53-1.35c-2.67-7.21-5.78-14.23-9.28-21.02,1.69.55,1.4-1.69,1.18-3.91-.25-2.19-.37-4.38,1.91-3.7-2.09-2.25-4.34-4.39-6.5-6.52,1.6-2.9,4.7-.01,7.88,3.68,1.52,1.87,3.16,3.88,4.53,5.46,1.4,1.57,2.69,2.64,3.72,2.52,2.17-1.13.43-5.04-.71-6.83,1.96,2.14,2.9,4.35,3.41,6.52.45,2.19.34,4.38.13,6.56-.25,2.2-.68,4.43-.82,6.71-.19,2.3-.16,4.67.5,7.2l4.52,4.31-4.62.77c1.8,3.99,5.56,7.08,7.63,8.32-2.15,5.75-1.17,10.95.35,16.94,1.49,5.96,3.32,12.79,2.4,20.74-.29-1.66-.57-2.77-.87-3.44-.31-.68-.61-.92-.89-.85-.55.13-1.07,1.51-1.6,3.21-.98,3.39-2.05,8.08-2.59,6.94-.25,3.51,1.25,9.84,1.69,16.17.48,6.3-.09,12.52-3.51,15.01-1.53,1.87-1.88-.51-2.25-2.1-.42-1.6-.73-2.43-2.28,2.39-.8,6.49.42,11.54,3.61,7.86-1.02,7.41-3.11,15.38-5.63,23.45-2.54,8.07-5.46,16.28-8.14,24.05l-1.61-4.71c-2.92,4.42-4.21,9.27-4.74,13.78-.5,4.53-.18,8.77.3,11.91-1.71.8-1.18,1.89-2.25-.29-4.92,4.92-5.17,9.21-5.64,14.77-.21,2.79-.53,5.84-1.49,9.36-.52,1.74-1.19,3.6-2.13,5.58-.99,1.93-2.13,4.06-3.75,6.19,1.08.34,2.26.11,3.42-.56,1.15-.68,2.3-1.8,3.37-3.18,2.11-2.78,3.81-6.65,4.48-10.19l3.52,3.95c9.45-16.83,16.1-37.65,18.12-53.26.4,2.63.81,5.29,1.18,7.95,5.36-5.29,4.57-8.15,3.86-10.8-.71-2.67-1.35-5.14,4.13-10.07.49-4.76-.62-3.3-1.83-1.61-1.22,1.7-2.59,3.64-2.56-.02,1.62-2.95,3.57-1.94,5.54-1.49,1.96.44,3.99.32,5.67-5.05-2.26,10.33-5.1,20.82-8.43,31.46-1.66,5.32-3.51,10.66-5.47,16-2.01,5.33-4.14,10.67-6.49,15.95-4.7,10.56-10.15,20.96-16.52,30.76-3.19,4.9-6.54,9.7-10.21,14.21-1.82,2.26-3.59,4.56-5.55,6.68-1.92,2.15-3.77,4.35-5.79,6.36.02,1.25,2.02-.17,3.9-1.71-.35,1.04-1.15,2.25-2.27,3.72-1.13,1.44-2.55,3.16-4.34,4.94-1.82,1.76-3.9,3.72-6.28,5.74-1.22.97-2.49,1.98-3.81,3.03-1.33,1.03-2.69,2.13-4.18,3.13-2.94,2.05-6.04,4.23-9.42,6.24-1.69,1.01-3.35,2.12-5.14,3.07-1.77.98-3.57,1.97-5.39,2.97-1.81,1.01-3.72,1.88-5.6,2.84-1.88.95-3.78,1.89-5.74,2.73-1.94.87-3.88,1.74-5.83,2.61-1.97.8-3.94,1.6-5.91,2.4-15.78,6.28-31.65,10.61-43.65,13.99-11.98,3.38-20.15,6.02-20.57,9.46-2.55-1.48,4.21-4.83-5.1-2.95-.69,1.05-2.92,2.64-.39,4.15-12.55-1.53-26.34.06-40.93,1.21-14.54,1.09-29.81,1.77-44.01-1.17.55,2.22-5.84,3.11-6.03,4.66-4.8-2.79-11.43-3.13-18.01-3.27-3.3-.09-6.59-.14-9.61-.37-3.03-.28-5.79-.78-8.01-1.74l2.71,2.83c-4.85-.46-9.7-1.11-14.55-1.71-4.85-.73-9.71-1.37-14.56-2.27-1.02.76,2.93,1.51,5.22,2.21-6.58.1-7.51-2.97-7.73-5.21-2.31.55-4.62.97-6.96,1.43-2.34.44-4.69.93-7.06,1.31-9.04-4.36-18.75-7.91-28.95-11.49-10.2-3.55-20.85-7.41-31.48-12.31-10.62-4.9-21.15-10.95-30.64-18.68-9.7-7.97-17.63-17.86-22.92-28.69-1.85-.95-3.55-1.96-5.17-3.12-1.57-1.18-3.06-2.5-4.51-4.04-2.8-3.14-5.54-7.14-8.13-12.96.4,2.08.77,4.2,1.28,6.27-1.11-1.29-1.88-2.31-2.41-3.11-.54-.79-.86-1.36-1.02-1.76-.32-.8-.03-.96.34-1.07.76-.25,1.73-.3-1-5.18-2.57-3.08-4.24-3.21-4.67-1.26-.22.97-.05,2.42.55,4.19.3.89.69,1.86,1.22,2.88.55,1.01,1.21,2.07,1.99,3.17.28,1.66.35,2.71.22,3.28-.13.58-.48.69-.96.48-.98-.42-2.42-2.23-3.83-4.26-.51-1.24-.97-2.5-1.41-3.76-.44-1.26-.9-2.52-1.31-3.78-.77-2.56-1.6-5.08-2.21-7.67-1.37-5.12-2.27-10.36-2.97-15.56-1.21-10.46-1.18-20.98.59-31.17,1.73-10.16,4.95-19.94,9.72-28.58,4.72-8.64,10.81-16.12,17.61-21.89Z"/>
    <path class="cls-2" d="m232.38,148c2.34-1.34-.39,2.77-2.04,6.55-.42.93-.81,1.82-1.03,2.59-.22.78-.3,1.42-.18,1.81.25.81,1.26.56,3.82-1.24,6.96-6.52,14.53-13.67,22.91-20.59,4.22-3.39,8.57-6.86,13.16-10.04,2.26-1.66,4.62-3.16,6.97-4.74,1.18-.77,2.38-1.49,3.58-2.25,1.2-.75,2.4-1.5,3.62-2.19,19.41-11.52,41.09-19.23,60-20.43,2.6.18,4.71.38,6.54.48,1.83.09,3.4.17,4.93.2,3.04.05,5.94,0,10.4.2.06-.73-.06-1.64-.6-2.36,2.49-.3,5.34-.75,8.4-1.15.76-.1,1.54-.21,2.32-.31.77-.08,1.55-.16,2.34-.25,1.58-.16,3.17-.31,4.77-.47,6.39-.7,12.84-.67,17.76.15,2.74-1.02,4.74-4.51-.62-3.46,3.73-.98,7.25-.87,10.52-.49,1.64.2,3.21.5,4.73.85.76.17,1.5.36,2.23.55.73.21,1.44.45,2.14.67,2.8.92,5.36,1.84,7.76,2.38,2.4.54,4.62.69,6.75.23-3.53-1.41-1.69-2.07,0-2.68,1.68-.61,3.2-1.18-1.11-2.43,3.95.21,6.78,1.11,8.94,2.38,2.17,1.28,3.69,2.86,5.07,4.64,2.77,3.49,5,7.15,10.85,8.62.84-.83,1.73-1.68-.65-2.28,1.55.81,3.31,1.63,5.25,2.24,1.93.63,4.02,1.13,6.19,1.56,1.08.22,2.19.4,3.3.59,1.11.22,2.22.43,3.33.65,2.23.4,4.45.8,6.57,1.18,1.06.2,2.1.4,3.11.59,1,.22,1.96.49,2.87.74,1.83.52,3.47,1.08,4.84,1.7,2.73,1.26,4.33,2.8,4.08,4.91,2.01-.64,4.01-1.18,6.05-1.77,2.34,2.19,3,3.62,4.17,5,.59.69,1.3,1.37,2.4,2.12,1.1.77,2.56,1.71,4.67,2.79,6.24.93.86-3.01,3.43-3.41.63,2.09,5.03,4.07,9.72,6.91,2.37,1.37,4.85,2.84,7.04,4.42,2.14,1.69,3.98,3.49,5.12,5.38-1,2.48-3.12-.6-6.25-4.12-3.18-3.37-7.39-7.31-11.73-6.53-.61.89.28,1.55,1.62,2.29-.55-.26-1.1-.52-1.65-.78-.55-.24-1.11-.48-1.66-.72-1.1-.49-2.18-.99-3.26-1.47-2.15-1-4.26-2.03-6.34-3.08-4.2-1.98-8.3-3.94-12.29-6.03-4.04-1.94-8.02-3.84-11.94-5.8-3.95-1.86-7.89-3.57-11.8-5.32-15.68-6.62-31.63-11.27-48.37-10.04-3.58-1.98-6.85-2.26-9.59-1.39-2.75.87-4.97,2.66-6.56,4.5,1.49.42,3.66.95,6.07,1.4.6.1,1.22.21,1.85.32.63.12,1.26.24,1.9.35,1.28.21,2.56.38,3.81.47,4.97.36,9.32-.42,9.78-4.04,3.34,1.89,6.62,3.77,9.85,5.65,1.95-.04,2.7,1.88,3.14,3.93.44,2.05.57,4.26,1.31,4.98-3.42-.94-7.32.43-9.15,2.32-1.83,1.9-1.64,4.42,2.79,6.14-8.92-.32-7.23-4.14-5.2-7.79,2.03-3.65,4.41-7.15-3.94-6.9-.92,1.7-1.83,3.46-2.72,5.22,1.63-1.37-1.05-2.81-4.86-3.72-1.9-.45-4.09-.77-6.13-.88-2.04-.08-3.94.15-5.27.59l2.2,1.06c-5.46-.28-11.17-.63-17.05-.42-1.47.03-2.96.06-4.45.09-1.49.04-3,.05-4.51.18-3.02.23-6.08.46-9.18.7-12.39,1.07-25.22,3.54-37.79,7.28-12.58,3.73-24.93,8.76-36.3,15.05-11.37,6.27-21.8,13.73-30.43,22.12-2.23-.28-4.25.04-6.14.75-1.91.68-3.6,1.85-5.17,3.27-.39.35-.78.72-1.16,1.1-.37.39-.72.81-1.07,1.23-.7.85-1.37,1.74-2.02,2.66-.65.92-1.21,1.93-1.79,2.91-.56,1-1.15,1.98-1.63,3.03-1,2.08-2.01,4.11-2.88,6.15-.45,1.01-.93,1.98-1.4,2.93-.44.97-.9,1.9-1.4,2.78-1.04,1.74-2.02,3.39-3.33,4.75-1.33,1.35-2.72,2.54-4.55,3.39-.25,2.93,1.63,1.49,3.2.73,1.6-.77,2.83-.9,1.71,4.09-.45,2.52-1.54,3.6-2.63,4.02-1.05.43-2.14.16-2.57-.1-.1,1.61-.2,3.25-.3,4.9-6.68.09-12.5-2.11-15.78-10.72-.74-2.12-1.31-4.61-1.66-7.54-.12-1.44-.19-2.99-.19-4.65,0-.83.02-1.69.05-2.57.06-.87.14-1.77.24-2.69.75-7.41,3.14-16.5,8.15-26.55Z"/>
  </g>
  <g>
    <path class="cls-2" d="m221.14,238.85c.4-1.47.93-2.54,1.46-2.68.09-.02.08,0,.26-.02.16,0,.31.01.46.04.3.06.59.19.84.41.51.43.91,1.17,1.11,2.33q-.77-4.61,1.53-8.42c.51,3.08,2.97,1.76,4.58,1.18-1.79-1.92-3.73-1.93-7.63-1.98-.27.91-.66,1.57-1.12,2.04-.12.12-.24.22-.36.32-.12.1-.28.19-.28.24-.07.11-.15.19-.24.23-.36.18-.83-.16-1.22-.49-.85-.64-1.23-1.3-2.35,2.64.28.78.57,2.36,1.08,3.47.49,1.1,1.22,1.73,1.88.7Z"/>
    <path class="cls-2" d="m238.37,256.45l.16-1.92c-1.84,1.35-3.67,2.73-5.52,4.05.96-1.7,4.75-4.25,5.36-2.12Z"/>
    <path class="cls-2" d="m256.93,247.63c.15,3.45,3.64,4.74,4.23,7.8-1.54-6.7,4.55-2.36,7.02-3.81l-.06-5.38c-3.37-3.14-9.5-.18-15.09.49l3.9.89Z"/>
    <path class="cls-2" d="m262.69,250.41l1.03-3.66c-1.26,1.17-4.52,2.38-1.03,3.66Z"/>
    <path class="cls-2" d="m255.14,233.06c-4.34.45,3.03,1.68-1.02,3.67,1.26-1.17,2.86-1.77,1.02-3.67Z"/>
    <polygon class="cls-2" points="275.22 239.5 266.67 243.98 270.93 245.39 275.22 239.5"/>
    <path class="cls-2" d="m278.2,250.36c-1.21.23-3.51-1.24-2.2-3.39,4.2,3.34,4.92-2.83,8.75-.12l-2.5,2.41c1.39,4.18,5.05-5.79,6.67,1.83,2.67-6.26-4.5-5.77-.31-10.75-4.47,2.49-8.38,1.73-12.71,1.26,1.52,1.3,1.93.9,3.87,1.8-2.82.85-6.17,4.03-9.42,5.28,2.91,4.53,4.4-.52,7.86,1.68Z"/>
    <path class="cls-2" d="m293.04,248.03c3.21-.31,8.02-1.35,7.43-7.29-4.24-3.23-3.62,1.75-4.52,4.48-1.17-.72-4.36-.39-3.82-3.69.75,1.13-1,4.66.92,6.5Z"/>
    <path class="cls-2" d="m305.45,246.05l.98-5.64-1.23,1.22-1.08-3.59c-.03.96.54,7.86-2.66,8.23,2.3,2.37,2.03-1.08,3.98-.22Z"/>
    <path class="cls-2" d="m299.91,220.77c2.68,1.98,3.52.2,5.51-1.82-3.16,1.32-7.87,2.33-8.34,4.66l.04-.96s-2.44,3.4-3.78,7.51c2.5-4.37,9.84-.53,6.56-9.39Z"/>
    <path class="cls-2" d="m295.6,221.38l1.66-3.55-1.66,3.55Z"/>
    <path class="cls-2" d="m314.72,242.42c-1.71-.13-3.43-.29-5.15-.45l1.55,1.26c1.2-.25,2.4-.53,3.6-.81Z"/>
    <path class="cls-2" d="m305.19,228.56c3.93-.21-3.06-3.49.49-4.26.81-.81-5.13,1.43-4.81,3.91,1.16.7,2.86-3.8,4.32.35Z"/>
    <path class="cls-2" d="m317.9,242.02l2.88-4.82-2.88,4.82Z"/>
    <path class="cls-2" d="m328.27,241.88l.04-2.9c4.36,1.19,8.38-3.95,12.73,1.09-1.57-3.15-.37-7.29-3.93-7.38-.01,1.92-1.2,2.21-.43,4.27-1.59-.26-1.96-2.73-3.16-3.41-1.61,3.59-5.96,2.43-7.2,5.57.8-.83,1.2-.28,1.99-.14-2.89,5.78-6.66-5.5-6.41,2.76.84-2.75,4.74,1.79,6.37.14Z"/>
    <path class="cls-2" d="m322.98,223.59l-3.55-.15c.06-3.86,3.95-1.22,3.6-4.66-.77-2.06-4.28-2.21-3.48-4,1.86,8.52-4.33,1.63-.14,10.58-3.97,2.19-2.67-4.83-7.01-3.19l-.09,4.82c4.39-3.56,6.29.16,10.68-3.4Z"/>
    <path class="cls-2" d="m335.96,221.42l2.36,2.32-1.97-3.7c7.05-2.68,15.98,12.12,19.77,8.58,3.94-6.91,11.41-.63,16.81-3.15,1.69-4.22-3.25-1.19-4.17-3.18-1.25-6.84,3.74,2.66,3.34-3.13-1.13-4.89-7.32-3.41-10.58-5.57-1.87,1.31-1.39,2.79-1.21,5.69-1.33-2.51-3.69-2.68-5.02-5.19-3.23,5.05-7.59-1.42-10.68,3.88-2.38-3.26,2.99-1.64,1.42-1.77l-2.31.76.42.52c-2.1,4.67-8.98,2.85-11.71.94,1.95.81,3.92,3.53,2.34,5.2l-2.74-3.83-2.4,7.32c2-4.98,7.89,2.26,6.33-5.7Z"/>
    <path class="cls-2" d="m329.31,215c-5.47-.92,2.32,6.18-3.55,5.68l5.5-1.97-1.95-3.7Z"/>
    <path class="cls-2" d="m355.58,218.94l3.27,2.16c-3.07-5.52-4.51,3.51-3.27-2.16Z"/>
    <polygon class="cls-2" points="364.43 216.2 364.81 222.02 366.14 218.26 364.43 216.2"/>
    <path class="cls-2" d="m374.55,220.27c.94-3.33-1.93-4.93-3.8-3.61,1.95-.36,3.66,1.67,3.8,3.61Z"/>
    <path class="cls-2" d="m391.26,226.42c-4.1,1.34,4.08.16,2.7,5.97-.21-2.47.87-6.22-2.7-5.97Z"/>
    <path class="cls-2" d="m408.8,234.75c-1.15,1.53-2.08.77-2.72-.47,1.12-.25,2.09-.24,2.72.47Z"/>
    <path class="cls-2" d="m351.99,234.16c-.47.16-.98.31-1.49.27.5-.11.99-.17,1.49-.27Z"/>
    <path class="cls-2" d="m352.97,233.98c-.32.06-.65.12-.97.18.35-.12.68-.17.97-.18Z"/>
    <path class="cls-2" d="m387.21,236.26s-.01,0-.01.01c-.17-.14-.31-.23-.49-.41l.5.4Z"/>
    <path class="cls-2" d="m251.12,256.57c-.76.46-1.37.68-1.89.73.62-.25,1.25-.49,1.86-.77.02,0,.02.02.03.03Z"/>
    <path class="cls-2" d="m247.29,249.31c2.7-4.24,5.38,7.6,10.44,3.88-2.09,1.24-4.33,2.32-6.65,3.35-4.32-4.89,1.87-3.44-3.79-7.22Z"/>
    <path class="cls-2" d="m291.94,232.53c.05-.09.1-.11.15-.21.29-.27.16-.05-.15.21Z"/>
    <polygon class="cls-2" points="189.8 166.32 188.29 165.92 191.01 163.32 189.8 166.32"/>
    <path class="cls-2" d="m186.96,166.08l-4.11,4.65c2.07-10.65,4.69-21.22,7.95-31.6l1.71,1.7c.7.12.48,1.75-.19,4.13-.33,1.19-.82,2.56-1.28,4.04-.48,1.48-1,3.06-1.51,4.63-1.09,3.13-2,6.31-2.55,8.65-.55,2.35-.69,3.88-.01,3.8Z"/>
    <path class="cls-2" d="m189,168.16c2.79,2.25,1.94,3.34.84,4.5-1.1,1.15-2.5,2.36-.6,4.69-2.53-3.08-5.34-5.59-3.21-7.65l2.98-1.54Z"/>
    <path class="cls-1" d="m198.95,180.99c-1.59,1.36.73,3.79-.4,4.51-4.78-1.45-.52-3.28.4-4.51Z"/>
    <path class="cls-2" d="m216.69,188.68c.05.25,0,.48-.09.7-.25-.33-.5-.63-.77-.88l.87.18Z"/>
    <path class="cls-2" d="m215.82,188.51l-2.19-.44c.95-.34,1.61-.07,2.19.44Z"/>
    <path class="cls-2" d="m216.59,189.38c.59.74,1.21,1.61,2.04,2.14l.43-.58c.44.98,1.98,2.81.67,3.01.65-1.65-.88-1.94-3.95-2.51l-.87,2.76c-7.23-1.71.79-2.42,1.67-4.82Z"/>
    <path class="cls-1" d="m216.94,198.56c-1.3-1.17-2.51-2.34-3.76-3.54,4.18-.17,3.93,2.46,3.76,3.54Z"/>
    <path class="cls-2" d="m211.59,202.22c-1.13-.84-.34-3.68-2.49-2.18-.77-.59-.52-1.13-.42-1.72.75,2.1,5.95.93,2.91,3.9Z"/>
    <path class="cls-2" d="m208.68,198.31c-.09-.25-.15-.52-.1-.87.16.31.14.6.1.87Z"/>
    <path class="cls-1" d="m197.04,162.73c-.66.23-1.17.08-1.62-.21l1.62.21Z"/>
    <path class="cls-2" d="m206.36,207.66l-.15,1.12c.04-.32-.04-.63-.12-.93l.27-.19Z"/>
    <path class="cls-2" d="m196.86,100.2c-3.09,3.53-6.35,6.89-6.37,14.07,4.94,1.97.32,3,5.33,5.52.5-1.59.3-.88-.17,1.04-.43,1.93-1.14,5.07-1.75,8.25-.55,3.21-.97,6.49-1.03,8.69-.06,2.2.34,3.35,1.29,2.3l-1.8-2.28,4.72,3.35c-2.27,2.46-7.88,5.19-5.43,8.18-.23,0-.29-.39-.22-1.09.09-.69.32-1.68.63-2.87.66-2.37,1.58-5.56,2.73-8.66,2.13-6.26,4.64-12.33,3.7-12.16,1.71.05,2.08,2.34,1.73,5.73-.2,1.69-.47,3.7-.88,5.83-.38,2.15-.95,4.41-1.39,6.74-.48,2.31-.97,4.64-1.44,6.85-.41,2.22-.78,4.31-1.06,6.14-.61,3.64-.65,6.27-.04,6.68l-3.38-.45c2.23,5.5,6.38,9.54,7.84,13.79h-4.19c1.95-2.51-.6-3.86-1.67-7.16-.19,2.58-.96,3.96-1.68,5.19-.73,1.23-1.43,2.33-1.38,4.34,5.22.91,3.18-2.73,5.16,2.62-2.46.96-7.54-3.39-7.3,1.17-1.23,2.5.19,3.86,1.85,5.13,1.66,1.28,3.57,2.48,3.43,4.77l2.44-2.71c0,1.7.6,4.91-2.45,6.11.62-1.82-1.49-7.06-6.76-7.83.87,2.15-1.87,6.15-1.79,7.93l-3.53-1.57c-3.71,1.44,1.37,3.23-2.12,5.24,1.8,2.52,5.49-.72,6.83.73-.65.15-1.63,1.25-2.14,2.55-.48,1.3-.52,2.79.62,3.67,3.95-.14,3.49-1.46,3.03-3.03-.44-1.55-.84-3.36,3.09-4.24l-1.9,3.88c7.34,3.42.74-6.46,6.71-4.36,3.78,2.01,1.67,3.28-.17,4.61-1.83,1.33-3.32,2.73,1.61,4.62,1.06-.82,1.75-2.67,2.58-4.17.84-1.5,1.74-2.66,3.08-2.12-1.57.83-1.04,1.78-.03,2.87,1.02,1.09,2.54,2.32,2.9,3.75l-3.93,3.01c2.3,1.64,2.45.49,4.15-.47-2.54,2.24-2.51,5.59-2.7,9.16-.02.42-.05.84-.07,1.27-.02.29-.03.47-.06.72-.05.46-.16.92-.35,1.41-.38.97-1.15,2-2.55,3.35.55,1.08,1.41.85,2.48.46,1.07-.41,2.34-.93,3.72-.97-2.4,1.18-2.61,2.06-2.23,2.58.37.55,1.38.7,1.35,1.2-.17.24.92-.16,2.28-.86,1.36-.69,3.01-1.66,3.96-2.3-.99.12-2,.07-2.98-.15,1.25-.48,2.91-1.24,4.19-1.84,1.28-.61,2.17-1.04,1.89-1.09-4.59,1.76-3.18.68-1.92-.07,1.26-.78,2.38-1.09-2.78-.77l4.7-.39c-.53-.13-1.05-.33-1.57-.58l-.2-.1c-.06-.05-.13-.02-.19-.18-.12-.23-.23-.47-.34-.8l-.67-1.82-.64.17c.77.06.07-1.49-.54-3.56-.65-2.07-1.02-4.65.16-6.53,1.38,1.29-1.02,7.7,4.45,4.27,1.2,1.55.72,3.52.08,5.79-.16.57-.32,1.16-.47,1.76-.06.26-.13.53-.19.8-.03.16-.04.12-.06.16-.02.02-.03.05-.04.07-.08.2.02.43.51.57,1.06-.16,2.12-.28,3.18-.37,2.24-.07,1.89-.34,1.1,0-.39.15-.9.42-1.23.68-.34.25-.51.48-.25.4-1.44.93-2.88,1.77-4.33,2.53-.82.7-2.11,1.86-2.73,2.66-.61.79-.54,1.2,1.32-.08-.29-.47,2.19-2,4.04-3.48,1.2-.77,1.14-.62,1.08-.28-.08.32-.01.74.81-.18,0,0-.72,1.03-1.18,1.74.85-.95,1.57-1.95,2.14-2.93-.35.78-1.6,3.57-2.56,6.64.47-.68.85-.67,1.64-3.38.03-.25.07-.5-.07-.22,1.1-2.59.9-2.2.77-1.59-.18.62-.3,1.45.22-.1-.62,2.12-1.1,3.64-1.37,5.13-.3,1.5-.42,2.98-.95,5.12.92-1.04,1.2-2.91,1.47-4.8.25-1.88.56-3.79.8-4.77-.03,2.39.06,5.89,1.47,6.44-.15-2.5-.98-1.53-.96-4.4.2.64.5.33.45-.61-.18-.64-.3-1.28-.36-1.94.08.74.25,1.33.45,1.76.1.22.21.39.32.53.06.07.11.13.17.18l.04.04s.15,0,.22,0l.5-.02c2.64-.17,5.24-.92,7.89-2.47l-.68-1.15,3.53-.57-.38,4.8c1.67-1.54,4.51,2.11,4.81-1.73l-.76-.19,2.09-1.92-1.56,4.99c3.42,1.33,5.73-8.79,10.76-9.07,1.16,2.96-.84,3.95-3.01,5.2-2.18,1.24-4.53,2.72-4.06,6.75,1.88.95,4.96,1.73,5.52-.6-.64-2.1-1.82-1.9-3.01-1.71,3.47-4.99,11.3.24,12.56-7.25l-3.77-1.87c3.57-1.59,7.79,6.23,8.07,1.42l-1.28,8.46c3.02-4.64,8.09-5,11.01-8.71-.93-4.57-5.12,1.28-5.07.32l.97-3.67c6.14,1.38,2.2,2.44,9.55,3.59l-.64-3.05c3.32,4.1,7.24-6.23,6.89,2.43l-2.27-1.45,1.01,3.61,7.19-4.32c-.11,2.89,3.46,1.22,3.33,5.06l2.08-3.94c2.58,4.88-3.77,7.48-3.15,11.47.67,2.36,1.97,1.74,2.56,1.25-2.58,4.66-6.46-3.96-9.93-3.26l-.96,3.69-.96-4.57c-1.23,1.19-1.77,4.49-1.87,6.41-4.85-5.43-6.83,2.89-12.35,2.66,3.73-3.56-3.71-3.74-3.23-5.1-2.36.45-6.52,9.7-9.72,4.57-1.83-1.89,2.21-3.87-1.29-4.2-2.02.99-3,3.69-1.17,5.59-4.49,2.41-10.42,2.37-15.62,3.54l.66-3.27c-3.76-1.9-6.13,2.88-7.25,6.51-.69-1.16-.77-.2-.6-2.11-2.52-2.15-3.83-.29-4.38,1.93-.42,1.14-.96,2.42-1.78,3.42-.81,1-1.92,1.71-3.26,1.66,0,2.23.69,3.32,1.67,3.54.97.21,2.18-.44,3.02-1.67,0,1.69-.04,3.38-.1,5.08,2.99-.45,6.15-1.24,9.1-2.39,2.94-1.15,5.65-2.73,7.79-4.64l-1.53,4.04c5.49,5.74,1.77-6.92,7.18-.22,2.57-2.32-2.61-2.1-.83-4.61,2.35,1,1.16,8.55,4.69,8.18-6.28,2.49-13.15,4.46-20.18,6.02l-2.92.65-3.18.68c-2.11.42-4.27.93-6.36,1.27-4.18.66-8.36,1.33-12.52,2.06-.63.96.13,1.19.91,1.42-.99.93-2.55,1.54-4.52,1.94-.98.19-2.08.35-3.22.42-1.08-.03-2.21-.13-3.38-.33-2.32-.4-4.82-1.12-7.27-2.6-1.22-.73-2.38-1.71-3.41-2.87-1.02-1.17-1.85-2.54-2.45-3.98-2.35-5.87-1.63-12.01-2.33-16.25-.29-2.12-.88-3.74-1.67-4.82-.77-1.09-1.92-1.57-3.53-1.16,1.87-1.56,3.98.35,3.72-3.11-.92.01-2.15-.56-4.01.95.86-1.51,1.49-2.94,1.96-4.32.46-1.38.75-2.72,1-4.06.45-2.68.41-5.36.29-8.18-.03-.69-.07-1.45-.07-2.04,0-.59-.02-1.19-.03-1.79,0-1.19.02-2.38.13-3.57.12-1.19.3-2.37.66-3.52.37-1.15.87-2.28,1.57-3.37-2.2,0-3.18-2.16-4.73-2.36,2.69-1.34,2.8-3.47,2.74-5.63-.09-2.15-.44-4.34,1.18-5.62l-2.63.61c.38-3.13.96-6.23,1.44-9.34-.87-.43-1.11.83-1.57,1.53-.84-2.25,2.03-2.22,4.21-2.04-1.59-1.69-3.08-3.39-4.61-5.12,2.83-2.63,4.22-5.66,5.05-8.95.4-1.65.61-3.37.72-5.15.14-1.77.22-3.58.26-5.43.06-1.84.04-3.73.18-5.58.14-1.86.34-3.71.67-5.53.17-.91.37-1.81.62-2.69.26-.88.59-1.73.95-2.57.74-1.68,1.69-3.27,2.93-4.74-3.42-3.44-4.44-5.8-3.67-9.46l-1.85,1.26c-2.12-4.81,2.13.55,1.56-3.08-1.82-3.02-5.88-2.93-4.65.74-2.02,1.26-3.04-.33-3.56-1.98,4.59-11.17,11.91-20.46,23.18-25.43Z"/>
    <path class="cls-2" d="m449.07,231.74c-1.84-1.48,3.89-3.36-.4-6.42-5.84-2.29-11.73-.64-17.75,1.31-6,1.99-12.21,4.08-18.48,2.75-3.83-2.16-4.59-2-7.66-2.85.18.69.46,1.56.84,2.28-2.93.66-7.13,3.38-10.61,2.31-.53,1.12-.07,4.54,1.23,3.26-3.41,4.25-9.4-3.61-11.01-.28,2.78,1.46-1.12,3.74,1.94,4.64-4.42,1.88-7.6-9.66-11.58-9.88.07.97.13,1.94.94,1.99-5.41-3.73-11.13,6.49-13.99-1.43l-.57,3.83c-2.5-2.11-2.61-4.04-5.79-4.31-1.49,1.81.96,2.97.63,4.4-1.75-3.03-6.32-.12-9.91-4.03-1.61-5.06,6.01,5.65,6.94.42-.22-1.03-.64-1.24-1.13-1.22,6.09-1.06,12.42,1.18,18.38,2.91,5.95,1.75,11.46,2.81,15.73-.62,3.28,2.87,3.87-.97,3.69-4.75-2.28-1.05-8.34-2.85-6.21,4.25l-4.49-3.62c-1.04.71-3.26-6.44-4.12-7.45,2.39.14,2.58-7.56-1.08-9.22,5.3-2.58,2.95,15.6,7.33,12.23l-.9-5.34c-.07,3.03,4.98,4.03,6.03,1.81l-.99-.8c13.95-1.85,30.73-10.04,44.45-16.97,4.05,5.62,6.3,3.54,8.38,1.17,2.09-2.37,4.03-5.01,7.59-.58.94-2.27-3.92-3.58-1.47-6.23,1.22-1.32,2.6,1.88,2.88,2.83.33-.5.67-1,1.01-1.51,5.71,11.66,7.2,23.38.13,35.14Z"/>
  </g>
</svg>